<svg xmlns="http://www.w3.org/2000/svg" width="24.12" height="75" viewBox="0 0 24.12 75">
  <defs>
    <style>
      .cls-1 {
        fill: #e0e0e0;
        fill-rule: evenodd;
      }
    </style>
  </defs>
  <path id="arrow-next.svg" class="cls-1" d="M1799.19,2522.63l20.64-35.76,0.03-.05a1.22,1.22,0,0,0,.07-0.17l0.06-.15a1.244,1.244,0,0,0,.04-0.16,1.114,1.114,0,0,0,.02-0.17,1.45,1.45,0,0,0,0-.34,1.114,1.114,0,0,0-.02-0.17,1.244,1.244,0,0,0-.04-0.16l-0.06-.15a1.22,1.22,0,0,0-.07-0.17l-0.03-.05-20.64-35.76a1.743,1.743,0,1,0-3.02,1.74l20.15,34.89-20.15,34.89A1.743,1.743,0,1,0,1799.19,2522.63Z" transform="translate(-1795.94 -2448.5)"/>
</svg>
