<?xml version="1.0" encoding="utf-8"?>
<!-- Generator: Adobe Illustrator 19.2.1, SVG Export Plug-In . SVG Version: 6.00 Build 0)  -->
<svg version="1.1" id="Layer_1" xmlns="http://www.w3.org/2000/svg" xmlns:xlink="http://www.w3.org/1999/xlink" x="0px" y="0px"
	 viewBox="0 0 200 200" style="enable-background:new 0 0 200 200;" xml:space="preserve">
<style type="text/css">
	.st0{opacity:0.5;}
	.st1{fill:#2E3191;}
	.st2{opacity:0.1;fill:#2E3191;}
	.st3{fill:#808080;}
	.st4{fill-rule:evenodd;clip-rule:evenodd;fill:#808080;}
</style>
<g>
	<g>
		<path class="st3" d="M124.5,98.7c-0.2-0.1-0.4-0.1-0.6-0.1h-8.6c-0.7-4-4.1-7-8.3-7c-4.7,0-8.4,3.8-8.4,8.4c0,4.6,3.8,8.4,8.4,8.4
			c4.2,0,7.6-3,8.3-7h7.2c7,0,12.7,5.7,12.7,12.6s-5.7,12.6-12.7,12.6h-45c-0.8,0-1.4,0.6-1.4,1.4c0,0.8,0.6,1.4,1.4,1.4h45
			c8.5,0,15.5-6.9,15.5-15.5C138,106.2,132.1,99.7,124.5,98.7z M107,105.6c-3.1,0-5.6-2.5-5.6-5.6c0-3.1,2.5-5.6,5.6-5.6
			s5.6,2.5,5.6,5.6C112.7,103.1,110.1,105.6,107,105.6z M89.6,101.4l-10.3,10.2c-0.5,0.5-0.5,1.4,0,2c0.3,0.3,0.6,0.4,1,0.4
			c0.4,0,0.7-0.1,1-0.4L94,101c0.1-0.1,0.2-0.3,0.3-0.5c0.1-0.3,0.1-0.7,0-1.1c-0.1-0.2-0.2-0.3-0.3-0.5L81.3,86.4
			c-0.5-0.5-1.4-0.5-2,0c-0.5,0.5-0.5,1.4,0,2l10.3,10.3H77.5c-7,0-12.7-5.7-12.7-12.6c0-7,5.7-12.6,12.7-12.6h45
			c0.8,0,1.4-0.6,1.4-1.4c0-0.8-0.6-1.4-1.4-1.4h-45C68.9,70.5,62,77.4,62,86s6.9,15.5,15.5,15.5H89.6z M69.3,8c0.2,0,0.4,0,0.5-0.1
			c3.7-1.2,7.5-2.2,11.2-2.9c1.3-0.3,1.7-2,0.6-2.7c-0.7-0.5-1.6-0.2-2.4,0c-3.4,0.7-6.8,1.6-10.2,2.7C69.1,4.9,69,5,68.9,5
			c-0.8,0.3-1.2,1.1-1,1.9C68.1,7.5,68.7,7.9,69.3,8z M92.4,3.4c0.1,0,0.3,0,0.4,0c1.9-0.1,3.7-0.2,5.6-0.2c3,0,6.1,0,9.1,0.3
			c0.4,0,0.8,0.1,1.2,0c0.6-0.2,1.1-0.7,1.1-1.3c0.1-0.6-0.3-1.2-0.8-1.5c-0.4-0.2-0.9-0.2-1.3-0.2C103.8,0.1,99.9,0,96,0.1
			c-1.2,0-2.4,0.1-3.6,0.2C91.5,0.4,90.9,1.1,91,2c0,0.4,0.2,0.8,0.5,1C91.8,3.3,92.1,3.3,92.4,3.4z M48.8,17.7
			c0.7-0.3,1.4-0.8,2.1-1.2c1.5-0.9,3-1.7,4.6-2.5c1.2-0.6,2.4-1.2,3.5-1.7c1-0.4,1.2-1.8,0.4-2.5c-0.9-0.8-1.9-0.2-2.8,0.3
			c-1.5,0.7-3,1.5-4.5,2.3c-0.7,0.4-1.5,0.8-2.2,1.2c-0.4,0.2-0.7,0.4-1.1,0.7c-0.1,0.1-1.1,0.6-1.1,0.7c-0.3,0.2-0.7,0.4-1,0.8
			c-0.3,0.5-0.3,1.1,0,1.6C47.2,18.1,48,18,48.8,17.7z M30.7,32.2c0.2-0.1,0.3-0.3,0.5-0.4c0.7-0.7,1.4-1.4,2.1-2
			c1.4-1.3,2.8-2.6,4.3-3.8c0.6-0.5,1.2-1,1.8-1.5c0.8-0.6,0.7-1.8-0.1-2.4c-0.6-0.4-1.3-0.4-1.9,0c-3,2.4-5.9,5-8.6,7.7
			c-0.5,0.5-0.9,1-0.7,1.7c0.1,0.5,0.5,1,1,1.1C29.8,32.8,30.3,32.6,30.7,32.2z M15.2,51.4C15.2,51.4,15.2,51.4,15.2,51.4
			c0.6,0,1.1-0.3,1.4-0.7c2-3.3,4.2-6.6,6.5-9.6c0.5-0.6,0.4-1.6-0.2-2.1c-0.7-0.6-1.7-0.4-2.2,0.2c-2.4,3.2-4.7,6.5-6.7,9.9
			C13.4,50.1,14.1,51.4,15.2,51.4z M193,72.7c0.2,0.6,0.8,1.1,1.4,1.1c0.2,0,0.3,0,0.5-0.1c0.8-0.2,1.3-1.1,1-1.9
			c-1.1-3.7-2.5-7.3-3.9-11c-0.2-0.5-0.4-0.9-0.9-1.1c-1.2-0.5-2.5,0.8-2,2C190.6,65.3,191.9,68.9,193,72.7z M185.9,48.8
			c-1.7-2.8-3.5-5.6-5.5-8.3c-0.6-0.8-1.6-1.9-2.7-1c-0.7,0.5-0.8,1.5-0.3,2.1c2.3,3.1,4.5,6.3,6.4,9.7c0.4,0.7,1.3,1,2.1,0.6
			c0.7-0.4,1-1.4,0.6-2.1C186.3,49.5,186.1,49.2,185.9,48.8z M119.7,5.1c1.9,0.4,3.8,0.8,5.6,1.4c1.2,0.3,2.4,0.6,3.6,1
			c0.6,0.2,1.2,0.4,1.8,0.6c0.9,0.3,1.8,0,2.1-0.9c0.3-0.8-0.2-1.7-1-1.9c-3.7-1.3-7.5-2.3-11.3-3c-0.5-0.1-1-0.2-1.4,0.1
			C118,3.1,118.4,4.8,119.7,5.1z M195.6,84c0.6,3.8,1,7.7,1.2,11.6c0.1,1.9,3.1,1.9,3.1-0.1c-0.2-4-0.6-8-1.3-11.9
			C198.3,81.6,195.3,82,195.6,84z M5.4,72.9c0.7,0.2,1.6,0,1.9-1c1.1-3.7,2.5-7.4,4-10.9c0.8-1.8-2-3-2.8-1.2
			C6.9,63.3,5.6,67,4.4,70.7c0,0.1-0.1,0.2-0.1,0.3C4,72,4.6,72.7,5.4,72.9z M165.2,24.3c-0.6-0.5-1.2-1-1.7-1.5
			c-0.4-0.3-0.7-0.5-1.2-0.6c-0.5,0-0.9,0.2-1.3,0.6c-0.5,0.7-0.4,1.6,0.2,2.1c3,2.4,5.9,5.1,8.5,7.9c0.3,0.3,0.7,0.5,1,0.5
			c0.4,0,0.8-0.1,1.1-0.4c0.6-0.6,0.6-1.6,0-2.2C169.8,28.4,167.6,26.3,165.2,24.3z M153.5,15.5c-3.2-2-6.6-3.9-10-5.6
			c-0.2-0.1-0.3-0.2-0.5-0.2c-0.2-0.1-0.4-0.1-0.6-0.1c-0.6,0-1.2,0.3-1.4,0.9c-0.4,0.8,0,1.7,0.7,2c3.4,1.6,6.9,3.4,10,5.6
			c0.3,0.2,0.6,0.3,0.9,0.3c0.5,0,1-0.3,1.3-0.7C154.4,16.9,154.2,16,153.5,15.5z M169,168.7c-0.4,0-0.8,0.1-1.1,0.4
			c-2.8,2.7-5.7,5.3-8.8,7.6c-0.7,0.5-0.8,1.5-0.3,2.1c0.5,0.7,1.5,0.8,2.1,0.3c3-2.3,5.8-4.8,8.6-7.4c0.4-0.3,0.8-0.7,0.9-1.2
			c0.1-0.5,0-1-0.4-1.4C169.8,168.9,169.4,168.7,169,168.7z M150.4,183.1c-0.3,0-0.6,0.1-0.8,0.2c-3.3,2-6.8,3.8-10.3,5.3
			c-0.8,0.3-1.1,1.2-0.8,2c0.2,0.5,0.8,0.9,1.3,0.9c0.6,0,1.1-0.2,1.6-0.5c0.6-0.3,1.2-0.6,1.7-0.9c2.2-1.1,4.5-2.2,6.6-3.5
			c1-0.6,2.8-1.4,1.9-2.9C151.3,183.4,150.9,183.1,150.4,183.1z M184.5,150.5c-0.7-0.4-1.6-0.2-2.1,0.5c-2,3.3-4.3,6.5-6.7,9.5
			c-0.5,0.7-0.4,1.6,0.2,2.1c0.3,0.2,0.6,0.3,0.9,0.3c1.2,0.1,1.8-1.3,2.4-2.1c2.1-2.7,4-5.4,5.7-8.3
			C185.4,151.9,185.2,150.9,184.5,150.5z M128.8,192.6c-0.2,0-0.3,0-0.5,0.1c-3.7,1.1-7.5,2-11.3,2.7c-0.8,0.1-1.4,0.9-1.2,1.8
			c0.1,0.7,0.7,1.2,1.4,1.3c0.1,0,0.2,0,0.3,0c3.9-0.7,7.7-1.6,11.4-2.7c0.1,0,0.2,0,0.2-0.1c0.8-0.2,1.3-1.1,1-1.9
			C130,193.1,129.4,192.7,128.8,192.6z M198.3,105.8C198.2,105.8,198.2,105.8,198.3,105.8c-0.9,0-1.6,0.6-1.6,1.4
			c-0.3,3.9-0.8,7.7-1.5,11.5c-0.4,1.9,2.6,2.5,3,0.6c0.8-3.8,1.2-7.7,1.6-11.6C199.7,106.8,199.3,105.8,198.3,105.8z M194.1,129
			c-0.7-0.2-1.6,0-1.9,0.9c-1.2,3.7-2.6,7.3-4.2,10.8c-0.8,1.7,1.9,3.1,2.8,1.3c1.6-3.5,3.2-7.1,4.3-10.8c0.1-0.5,0.3-0.9,0.1-1.4
			C194.9,129.5,194.5,129.2,194.1,129z M105.6,196.7c-0.1,0-0.1,0-0.2,0c-3.9,0.2-7.8,0.2-11.6-0.1c0,0,0,0,0,0
			c-0.8,0-1.5,0.6-1.6,1.4c-0.1,0.8,0.6,1.6,1.4,1.6c4,0.3,8,0.3,12,0.1c0,0,0,0,0.1,0c0.8,0,1.5-0.8,1.4-1.6
			C107,197.4,106.4,196.8,105.6,196.7z M60.1,188.3c-3.5-1.6-6.8-3.4-10.1-5.3c-0.8-0.5-1.8-0.5-2.3,0.4c-0.4,0.7-0.2,1.7,0.5,2.1
			c1.6,1,3.3,1.9,5,2.8c1.6,0.9,3.3,1.6,4.9,2.5c0.5,0.3,1.1,0.5,1.7,0.4c0.5-0.1,0.9-0.4,1.1-0.8C61.2,189.6,60.9,188.7,60.1,188.3
			z M82.3,195.3c-3.2-0.6-6.5-1.4-9.6-2.3c-1.2-0.3-3-1.2-3.6,0.5c-0.4,1.2,0.6,1.8,1.6,2.1c1.5,0.5,3,0.9,4.5,1.3
			c2,0.5,4.1,1,6.1,1.4c0,0,0,0,0.1,0c0.9,0.2,1.9-0.1,2.1-1.2C83.6,196.2,83.1,195.4,82.3,195.3z M7.6,129.2
			c-0.6-1.8-3.5-1-2.9,0.9c1.2,3.7,2.6,7.4,4.2,10.9c0.3,0.6,0.8,1.1,1.5,1.2c1.1,0,1.9-1.2,1.4-2.2C10.2,136.6,8.8,132.9,7.6,129.2
			z M4.8,118c-0.7-3.8-1.2-7.7-1.5-11.5c-0.1-1.9-3.2-1.8-3,0.2c0.2,3.9,0.8,7.8,1.4,11.6c0,0.3,0.1,0.5,0.3,0.8
			c0.3,0.6,1,0.9,1.6,0.7C4.4,119.6,4.9,118.8,4.8,118z M17.2,150.4c-1-1.7-3.6-0.1-2.6,1.6c2,3.3,4.2,6.4,6.5,9.4
			c0.4,0.5,0.8,1,1.5,1c0.4,0,0.7-0.1,1-0.3c0.7-0.5,0.8-1.5,0.3-2.1C21.5,156.9,19.2,153.7,17.2,150.4z M40.3,176.3
			c-3-2.4-6-5-8.7-7.7c-0.6-0.6-1.7-0.6-2.3,0.1c-1,1.2,0.4,2.3,1.2,3.1c2.5,2.4,5.1,4.7,7.9,6.9C39.9,179.9,41.8,177.5,40.3,176.3z
			 M1.7,96.2c0.5,0,1.1-0.3,1.3-0.7c0.3-0.4,0.3-1,0.3-1.5c0.2-3.4,0.6-6.8,1.2-10.2c0.1-0.5,0.2-1,0-1.5c-0.4-1.1-2-1.3-2.7-0.3
			c-0.2,0.3-0.3,0.6-0.3,1c-0.6,3.6-1,7.3-1.3,11c0,0.4,0,0.7,0.1,1.1c0.2,0.5,0.7,1,1.2,1C1.6,96.2,1.6,96.2,1.7,96.2z"/>
	</g>
</g>
</svg>
