<?xml version="1.0" encoding="utf-8"?>
<!-- Generator: Adobe Illustrator 19.2.1, SVG Export Plug-In . SVG Version: 6.00 Build 0)  -->
<svg version="1.1" id="Layer_1" xmlns="http://www.w3.org/2000/svg" xmlns:xlink="http://www.w3.org/1999/xlink" x="0px" y="0px"
	 viewBox="0 0 200 200" style="enable-background:new 0 0 200 200;" xml:space="preserve">
<style type="text/css">
	.st0{opacity:0.1;}
	.st1{fill:#2E3191;}
	.st2{opacity:0.1;fill:#2E3191;}
	.st3{fill:#808080;}
	.st4{fill-rule:evenodd;clip-rule:evenodd;fill:#808080;}
</style>
<g>
	<g>
		<path class="st3" d="M69.9,76.8c0,8.8,7.1,16,15.8,16s15.8-7.2,15.8-16c0-0.1-0.1-0.1-0.1-0.1H85.8V60.9c0-0.1-0.1-0.1-0.1-0.1
			C77,60.8,69.9,68,69.9,76.8z M83.8,62.9v15.6c0,0.1,0.1,0.1,0.1,0.1h15.4c-0.9,6.9-6.8,12.2-13.7,12.2c-7.6,0-13.8-6.3-13.8-14
			C71.8,69.8,77,63.8,83.8,62.9z M129,114.9c0-0.1-0.1-0.1-0.1-0.1H93.1c-0.1,0-0.1,0.1-0.1,0.1v1.7c0,0.1,0.1,0.1,0.1,0.1h35.8
			c0.1,0,0.1-0.1,0.1-0.1V114.9z M78.8,105.2c-4.1,0-7.5,3.4-7.5,7.6c0,4.2,3.3,7.6,7.5,7.6s7.5-3.4,7.5-7.6c0-0.1-0.1-0.1-0.1-0.1
			h-7.2v-7.3C78.9,105.3,78.8,105.2,78.8,105.2z M83.9,114.6c-0.8,2.2-2.8,3.7-5.2,3.7c-3,0-5.5-2.5-5.5-5.6c0-2.4,1.5-4.5,3.6-5.2
			v7c0,0.1,0.1,0.1,0.1,0.1H83.9z M87.8,74.7h17.4c0.1,0,0.1-0.1,0.1-0.1v-0.9c0-9.3-7.5-16.9-16.7-16.9h-0.9
			c-0.1,0-0.1,0.1-0.1,0.1v17.6C87.7,74.7,87.8,74.7,87.8,74.7z M89.7,58.9c7.3,0.5,13.2,6.4,13.7,13.9H89.7V58.9z M128.9,136.9
			H93.1c-0.1,0-0.1,0.1-0.1,0.1v1.7c0,0.1,0.1,0.1,0.1,0.1h35.8c0.1,0,0.1-0.1,0.1-0.1V137C129,136.9,129,136.9,128.9,136.9z
			 M108.8,84.5v5.6c0,0.1,0.1,0.1,0.1,0.1h1.7c0.1,0,0.1-0.1,0.1-0.1v-5.6c0-0.1-0.1-0.1-0.1-0.1h-1.7
			C108.9,84.4,108.8,84.5,108.8,84.5z M113.8,90.2h1.7c0.1,0,0.1-0.1,0.1-0.1V71.5c0-0.1-0.1-0.1-0.1-0.1h-1.7
			c-0.1,0-0.1,0.1-0.1,0.1v18.6C113.6,90.2,113.7,90.2,113.8,90.2z M129,130.9c0-0.1-0.1-0.1-0.1-0.1H93.1c-0.1,0-0.1,0.1-0.1,0.1
			v1.7c0,0.1,0.1,0.1,0.1,0.1h35.8c0.1,0,0.1-0.1,0.1-0.1V130.9z M93,108.8v1.7c0,0.1,0.1,0.1,0.1,0.1h35.8c0.1,0,0.1-0.1,0.1-0.1
			v-1.7c0-0.1-0.1-0.1-0.1-0.1H93.1C93,108.7,93,108.8,93,108.8z M130,90.2c0.1,0,0.1-0.1,0.1-0.1V80c0-0.1-0.1-0.1-0.1-0.1h-1.7
			c-0.1,0-0.1,0.1-0.1,0.1v10.1c0,0.1,0.1,0.1,0.1,0.1H130z M120.3,90.2c0.1,0,0.1-0.1,0.1-0.1v-28c0-0.1-0.1-0.1-0.1-0.1h-1.7
			c-0.1,0-0.1,0.1-0.1,0.1v28c0,0.1,0.1,0.1,0.1,0.1H120.3z M125.2,90.2c0.1,0,0.1-0.1,0.1-0.1V70.9c0-0.1-0.1-0.1-0.1-0.1h-1.7
			c-0.1,0-0.1,0.1-0.1,0.1v19.2c0,0.1,0.1,0.1,0.1,0.1H125.2z M86.1,135.5h-7.2v-7.3c0-0.1-0.1-0.1-0.1-0.1c-4.1,0-7.5,3.4-7.5,7.6
			s3.3,7.6,7.5,7.6s7.5-3.4,7.5-7.6C86.2,135.5,86.2,135.5,86.1,135.5z M78.8,141.1c-3,0-5.5-2.5-5.5-5.6c0-2.4,1.5-4.5,3.6-5.2v7
			c0,0.1,0.1,0.1,0.1,0.1h6.9C83.2,139.7,81.1,141.1,78.8,141.1z M80.3,126.5c-0.1,0-0.1,0.1-0.1,0.1v7.4c0,0.1,0.1,0.1,0.1,0.1h7.3
			c0.1,0,0.1-0.1,0.1-0.1C87.7,129.9,84.4,126.5,80.3,126.5z M82.1,132.2v-3.4c1.6,0.6,2.8,1.8,3.3,3.4H82.1z M80.3,103.7
			c-0.1,0-0.1,0.1-0.1,0.1v7.4c0,0.1,0.1,0.1,0.1,0.1h7.3c0.1,0,0.1-0.1,0.1-0.1C87.7,107.1,84.4,103.7,80.3,103.7z M82.1,109.4V106
			c1.6,0.6,2.8,1.8,3.3,3.4H82.1z M105.6,196.7c-0.1,0-0.1,0-0.2,0c-3.9,0.2-7.8,0.2-11.6-0.1c0,0,0,0,0,0c-0.8,0-1.5,0.6-1.6,1.4
			c-0.1,0.8,0.6,1.6,1.4,1.6c4,0.3,8,0.3,12,0.1c0,0,0,0,0.1,0c0.8,0,1.5-0.8,1.4-1.6C107,197.4,106.4,196.8,105.6,196.7z M69.8,7.9
			c3.7-1.2,7.5-2.2,11.2-2.9c1.3-0.3,1.7-2,0.6-2.7c-0.7-0.5-1.6-0.2-2.4,0c-3.4,0.7-6.8,1.6-10.2,2.7C69.1,4.9,69,5,68.9,5
			c-0.8,0.3-1.2,1.1-1,1.9c0.2,0.6,0.8,1,1.4,1.1C69.5,8,69.7,8,69.8,7.9z M184.5,150.5c-0.7-0.4-1.6-0.2-2.1,0.5
			c-2,3.3-4.3,6.5-6.7,9.5c-0.5,0.7-0.4,1.6,0.2,2.1c0.3,0.2,0.6,0.3,0.9,0.3c1.2,0.1,1.8-1.3,2.4-2.1c2.1-2.7,4-5.4,5.7-8.3
			C185.4,151.9,185.2,150.9,184.5,150.5z M92.4,3.4c0.1,0,0.3,0,0.4,0c1.9-0.1,3.7-0.2,5.6-0.2c3,0,6.1,0,9.1,0.3
			c0.4,0,0.8,0.1,1.2,0c0.6-0.2,1.1-0.7,1.1-1.3c0.1-0.6-0.3-1.2-0.8-1.5c-0.4-0.2-0.9-0.2-1.3-0.2C103.8,0.1,99.9,0,96,0.1
			c-1.2,0-2.4,0.1-3.6,0.2C91.5,0.4,90.9,1.1,91,2c0,0.4,0.2,0.8,0.5,1C91.8,3.3,92.1,3.3,92.4,3.4z M193,72.7
			c0.2,0.6,0.8,1.1,1.4,1.1c0.2,0,0.3,0,0.5-0.1c0.8-0.2,1.3-1.1,1-1.9c-1.1-3.7-2.5-7.3-3.9-11c-0.2-0.5-0.4-0.9-0.9-1.1
			c-1.2-0.5-2.5,0.8-2,2C190.6,65.3,191.9,68.9,193,72.7z M153.5,15.5c-3.2-2-6.6-3.9-10-5.6c-0.2-0.1-0.3-0.2-0.5-0.2
			c-0.2-0.1-0.4-0.1-0.6-0.1c-0.6,0-1.2,0.3-1.4,0.9c-0.4,0.8,0,1.7,0.7,2c3.4,1.6,6.9,3.4,10,5.6c0.3,0.2,0.6,0.3,0.9,0.3
			c0.5,0,1-0.3,1.3-0.7C154.4,16.9,154.2,16,153.5,15.5z M195.6,84c0.6,3.8,1,7.7,1.2,11.6c0.1,1.9,3.1,1.9,3.1-0.1
			c-0.2-4-0.6-8-1.3-11.9C198.3,81.6,195.3,82,195.6,84z M150.4,183.1c-0.3,0-0.6,0.1-0.8,0.2c-3.3,2-6.8,3.8-10.3,5.3
			c-0.8,0.3-1.1,1.2-0.8,2c0.2,0.5,0.8,0.9,1.3,0.9c0.6,0,1.1-0.2,1.6-0.5c0.6-0.3,1.2-0.6,1.7-0.9c2.2-1.1,4.5-2.2,6.6-3.5
			c1-0.6,2.8-1.4,1.9-2.9C151.3,183.4,150.9,183.1,150.4,183.1z M169,168.7c-0.4,0-0.8,0.1-1.1,0.4c-2.8,2.7-5.7,5.3-8.8,7.6
			c-0.7,0.5-0.8,1.5-0.3,2.1c0.5,0.7,1.5,0.8,2.1,0.3c3-2.3,5.8-4.8,8.6-7.4c0.4-0.3,0.8-0.7,0.9-1.2c0.1-0.5,0-1-0.4-1.4
			C169.8,168.9,169.4,168.7,169,168.7z M128.8,192.6c-0.2,0-0.3,0-0.5,0.1c-3.7,1.1-7.5,2-11.3,2.7c-0.8,0.1-1.4,0.9-1.2,1.8
			c0.1,0.7,0.7,1.2,1.4,1.3c0.1,0,0.2,0,0.3,0c3.9-0.7,7.7-1.6,11.4-2.7c0.1,0,0.2,0,0.2-0.1c0.8-0.2,1.3-1.1,1-1.9
			C130,193.1,129.4,192.7,128.8,192.6z M131.9,5.2c-3.7-1.3-7.5-2.3-11.3-3c-0.5-0.1-1-0.2-1.4,0.1c-1.1,0.7-0.8,2.5,0.5,2.8
			c1.9,0.4,3.8,0.8,5.6,1.4c1.2,0.3,2.4,0.6,3.6,1c0.6,0.2,1.2,0.4,1.8,0.6c0.9,0.3,1.8,0,2.1-0.9C133.1,6.4,132.7,5.5,131.9,5.2z
			 M165.2,24.3c-0.6-0.5-1.2-1-1.7-1.5c-0.4-0.3-0.7-0.5-1.2-0.6c-0.5,0-0.9,0.2-1.3,0.6c-0.5,0.7-0.4,1.6,0.2,2.1
			c3,2.4,5.9,5.1,8.5,7.9c0.3,0.3,0.7,0.5,1,0.5c0.4,0,0.8-0.1,1.1-0.4c0.6-0.6,0.6-1.6,0-2.2C169.8,28.4,167.6,26.3,165.2,24.3z
			 M17.2,150.4c-1-1.7-3.6-0.1-2.6,1.6c2,3.3,4.2,6.4,6.5,9.4c0.4,0.5,0.8,1,1.5,1c0.4,0,0.7-0.1,1-0.3c0.7-0.5,0.8-1.5,0.3-2.1
			C21.5,156.9,19.2,153.7,17.2,150.4z M7.6,129.2c-0.6-1.8-3.5-1-2.9,0.9c1.2,3.7,2.6,7.4,4.2,10.9c0.3,0.6,0.8,1.1,1.5,1.2
			c1.1,0,1.9-1.2,1.4-2.2C10.2,136.6,8.8,132.9,7.6,129.2z M30.7,32.2c0.2-0.1,0.3-0.3,0.5-0.4c0.7-0.7,1.4-1.4,2.1-2
			c1.4-1.3,2.8-2.6,4.3-3.8c0.6-0.5,1.2-1,1.8-1.5c0.8-0.6,0.7-1.8-0.1-2.4c-0.6-0.4-1.3-0.4-1.9,0c-3,2.4-5.9,5-8.6,7.7
			c-0.5,0.5-0.9,1-0.7,1.7c0.1,0.5,0.5,1,1,1.1C29.8,32.8,30.3,32.6,30.7,32.2z M198.3,105.8C198.2,105.8,198.2,105.8,198.3,105.8
			c-0.9,0-1.6,0.6-1.6,1.4c-0.3,3.9-0.8,7.7-1.5,11.5c-0.4,1.9,2.6,2.5,3,0.6c0.8-3.8,1.2-7.7,1.6-11.6
			C199.7,106.8,199.3,105.8,198.3,105.8z M40.3,176.3c-3-2.4-6-5-8.7-7.7c-0.6-0.6-1.7-0.6-2.3,0.1c-1,1.2,0.4,2.3,1.2,3.1
			c2.5,2.4,5.1,4.7,7.9,6.9C39.9,179.9,41.8,177.5,40.3,176.3z M60.1,188.3c-3.5-1.6-6.8-3.4-10.1-5.3c-0.8-0.5-1.8-0.5-2.3,0.4
			c-0.4,0.7-0.2,1.7,0.5,2.1c1.6,1,3.3,1.9,5,2.8c1.6,0.9,3.3,1.6,4.9,2.5c0.5,0.3,1.1,0.5,1.7,0.4c0.5-0.1,0.9-0.4,1.1-0.8
			C61.2,189.6,60.9,188.7,60.1,188.3z M48.8,17.7c0.7-0.3,1.4-0.8,2.1-1.2c1.5-0.9,3-1.7,4.6-2.5c1.2-0.6,2.4-1.2,3.5-1.7
			c1-0.4,1.2-1.8,0.4-2.5c-0.9-0.8-1.9-0.2-2.8,0.3c-1.5,0.7-3,1.5-4.5,2.3c-0.7,0.4-1.5,0.8-2.2,1.2c-0.4,0.2-0.7,0.4-1.1,0.7
			c-0.1,0.1-1.1,0.6-1.1,0.7c-0.3,0.2-0.7,0.4-1,0.8c-0.3,0.5-0.3,1.1,0,1.6C47.2,18.1,48,18,48.8,17.7z M15.3,51.4
			c0.5,0,1-0.3,1.3-0.7c2-3.3,4.2-6.6,6.5-9.6c0.5-0.6,0.4-1.6-0.2-2.1c-0.7-0.6-1.7-0.4-2.2,0.2c-2.4,3.2-4.7,6.5-6.7,9.9
			C13.4,50.1,14.1,51.4,15.3,51.4C15.2,51.4,15.2,51.4,15.3,51.4z M194.1,129c-0.7-0.2-1.6,0-1.9,0.9c-1.2,3.7-2.6,7.3-4.2,10.8
			c-0.8,1.7,1.9,3.1,2.8,1.3c1.6-3.5,3.2-7.1,4.3-10.8c0.1-0.5,0.3-0.9,0.1-1.4C194.9,129.5,194.5,129.2,194.1,129z M185.9,48.8
			c-1.7-2.8-3.5-5.6-5.5-8.3c-0.6-0.8-1.6-1.9-2.7-1c-0.7,0.5-0.8,1.5-0.3,2.1c2.3,3.1,4.5,6.3,6.4,9.7c0.4,0.7,1.3,1,2.1,0.6
			c0.7-0.4,1-1.4,0.6-2.1C186.3,49.5,186.1,49.2,185.9,48.8z M82.3,195.3c-3.2-0.6-6.5-1.4-9.6-2.3c-1.2-0.3-3-1.2-3.6,0.5
			c-0.4,1.2,0.6,1.8,1.6,2.1c1.5,0.5,3,0.9,4.5,1.3c2,0.5,4.1,1,6.1,1.4c0,0,0,0,0.1,0c0.9,0.2,1.9-0.1,2.1-1.2
			C83.6,196.2,83.1,195.4,82.3,195.3z M1.5,96.2c0,0,0.1,0,0.1,0c0.5,0,1.1-0.3,1.3-0.7c0.3-0.4,0.3-1,0.3-1.5
			c0.2-3.4,0.6-6.8,1.2-10.2c0.1-0.5,0.2-1,0-1.5c-0.4-1.1-2-1.3-2.7-0.3c-0.2,0.3-0.3,0.6-0.3,1c-0.6,3.6-1,7.3-1.3,11
			c0,0.4,0,0.7,0.1,1.1C0.5,95.7,1,96.2,1.5,96.2z M4.8,118c-0.7-3.8-1.2-7.7-1.5-11.5c-0.1-1.9-3.2-1.8-3,0.2
			c0.2,3.9,0.8,7.8,1.4,11.6c0,0.3,0.1,0.5,0.3,0.8c0.3,0.6,1,0.9,1.6,0.7C4.4,119.6,4.9,118.8,4.8,118z M5.4,72.9
			c0.7,0.2,1.6,0,1.9-1c1.1-3.7,2.5-7.4,4-10.9c0.8-1.8-2-3-2.8-1.2C6.9,63.3,5.6,67,4.4,70.7c0,0.1-0.1,0.2-0.1,0.3
			C4,72,4.6,72.7,5.4,72.9z"/>
	</g>
</g>
</svg>
