<svg id="SvgjsSvg1042" xmlns="http://www.w3.org/2000/svg" version="1.1" xmlns:xlink="http://www.w3.org/1999/xlink" xmlns:svgjs="http://svgjs.com/svgjs" width="31" height="30" viewBox="0 0 31 30"><title>FB copy</title><desc>Created with Avocode.</desc><defs id="SvgjsDefs1043"></defs><path id="SvgjsPath1044" d="M836.328 1595.01L809.5989999999999 1595.01C808.6859999999999 1595.01 807.9399999999999 1595.75 807.9399999999999 1596.66L807.9399999999999 1623.3300000000002C807.9399999999999 1624.2400000000002 808.6859999999999 1624.9900000000002 809.5989999999999 1624.9900000000002L823.9879999999999 1624.9900000000002L823.9879999999999 1613.3800000000003L820.0709999999999 1613.3800000000003L820.0709999999999 1608.8500000000004L823.9879999999999 1608.8500000000004L823.9879999999999 1605.5100000000004C823.9879999999999 1601.6500000000005 826.358 1599.5400000000004 829.8219999999999 1599.5400000000004C831.4819999999999 1599.5400000000004 832.9029999999999 1599.6600000000003 833.3209999999999 1599.7200000000005L833.3209999999999 1603.7600000000004L830.9169999999999 1603.7600000000004C829.0329999999999 1603.7600000000004 828.6719999999999 1604.6500000000005 828.6719999999999 1605.9600000000005L828.6719999999999 1608.8500000000006L833.1629999999999 1608.8500000000006L832.5769999999999 1613.3700000000006L828.6719999999999 1613.3700000000006L828.6719999999999 1624.9900000000005L836.3279999999999 1624.9900000000005C837.2429999999998 1624.9900000000005 837.9879999999998 1624.2400000000005 837.9879999999998 1623.3300000000004L837.9879999999998 1596.6600000000003C837.9879999999998 1595.7500000000002 837.2429999999998 1595.0100000000002 836.3279999999999 1595.0100000000002Z " fill="#ffffff" fill-opacity="1" transform="matrix(1,0,0,1,-807,-1595)"></path></svg>