<svg id="SvgjsSvg1090" xmlns="http://www.w3.org/2000/svg" version="1.1" xmlns:xlink="http://www.w3.org/1999/xlink" xmlns:svgjs="http://svgjs.com/svgjs" width="36" height="51" viewBox="0 0 36 51"><title>Foursquare</title><desc>Created with Avocode.</desc><defs id="SvgjsDefs1091"></defs><path id="SvgjsPath1092" d="M1248.55 3731C1248.55 3731 1225.61 3731 1221.94 3731C1218.26 3731 1217 3733.61 1217 3735.58L1217 3777.88C1217 3779.9900000000002 1218.24 3780.59 1218.83 3780.83C1219.4199999999998 3781.0699999999997 1220.9399999999998 3781.22 1222.03 3780.13C1222.03 3780.13 1234.67 3766.02 1234.87 3765.8C1235.07 3765.57 1235.81 3765.25 1235.9299999999998 3765.25C1236.0499999999997 3765.25 1241.2899999999997 3765.25 1243.9199999999998 3765.25C1247.34 3765.25 1247.3799999999999 3762.46 1247.7299999999998 3761.01C1248.0299999999997 3759.8 1251.4499999999998 3742.61 1252.6599999999999 3737.1800000000003C1253.6599999999999 3732.7100000000005 1252.4599999999998 3731.0000000000005 1248.55 3731.0000000000005ZM1246.98 3738.04L1245.78 3743.85C1245.6399999999999 3744.48 1245.07 3745.12 1244.34 3745.18L1233.9499999999998 3745.18C1232.7899999999997 3745.12 1231.83 3745.99 1231.83 3747.1699999999996L1231.83 3748.45C1231.83 3749.62 1232.79 3750.83 1233.9499999999998 3750.83L1242.7499999999998 3750.83C1243.5699999999997 3750.83 1244.2699999999998 3751.36 1244.0899999999997 3752.25C1243.9099999999996 3753.13 1242.9999999999998 3757.68 1242.8999999999996 3758.16C1242.7999999999997 3758.6499999999996 1242.3599999999997 3759.6299999999997 1241.5299999999997 3759.6299999999997C1241.5299999999997 3759.6299999999997 1235.9199999999998 3759.6299999999997 1234.6099999999997 3759.6299999999997C1233.3099999999997 3759.6299999999997 1232.0099999999998 3759.6099999999997 1231.1399999999996 3760.7099999999996C1230.2699999999998 3761.8099999999995 1222.4799999999996 3770.8799999999997 1222.4799999999996 3770.8799999999997L1222.4799999999996 3737.5499999999997C1222.4799999999996 3736.7 1223.0699999999995 3736.1099999999997 1223.8399999999995 3736.12L1245.3899999999994 3736.12C1246.1699999999994 3736.1099999999997 1247.1399999999994 3736.91 1246.9799999999993 3738.04Z " fill="#808080" fill-opacity="1" transform="matrix(1,0,0,1,-1217,-3731)"></path></svg>