<svg id="SvgjsSvg1008" xmlns="http://www.w3.org/2000/svg" version="1.1" xmlns:xlink="http://www.w3.org/1999/xlink" xmlns:svgjs="http://svgjs.com/svgjs" width="23" height="31" viewBox="0 0 23 31"><title>Foursquare copy</title><desc>Created with Avocode.</desc><defs id="SvgjsDefs1009"></defs><path id="SvgjsPath1010" d="M975.65 1595C975.65 1595 961.851 1595 959.641 1595C957.43 1595 956.67 1596.57 956.67 1597.75L956.67 1623.13C956.67 1624.39 957.4159999999999 1624.75 957.771 1624.9C958.1289999999999 1625.0400000000002 959.0419999999999 1625.13 959.698 1624.48C959.698 1624.48 967.297 1616.01 967.42 1615.88C967.5419999999999 1615.74 967.985 1615.5500000000002 968.055 1615.5500000000002C968.1279999999999 1615.5500000000002 971.28 1615.5500000000002 972.8629999999999 1615.5500000000002C974.919 1615.5500000000002 974.944 1613.88 975.1569999999999 1613.0100000000002C975.338 1612.2800000000002 977.3929999999999 1601.9600000000003 978.1229999999999 1598.7100000000003C978.723 1596.0200000000002 978.002 1595.0000000000002 975.65 1595.0000000000002ZM974.706 1599.23L973.981 1602.71C973.9 1603.0900000000001 973.558 1603.47 973.117 1603.51L966.8679999999999 1603.51C966.1679999999999 1603.47 965.5939999999999 1604 965.5939999999999 1604.7L965.5939999999999 1605.47C965.5939999999999 1606.17 966.1679999999999 1606.9 966.8679999999999 1606.9L972.1619999999999 1606.9C972.656 1606.9 973.0749999999999 1607.22 972.968 1607.75C972.86 1608.28 972.308 1611.01 972.247 1611.3C972.188 1611.59 971.923 1612.18 971.424 1612.18C971.424 1612.18 968.05 1612.18 967.265 1612.18C966.48 1612.18 965.703 1612.17 965.1759999999999 1612.8300000000002C964.651 1613.4800000000002 959.967 1618.93 959.967 1618.93L959.967 1598.93C959.967 1598.42 960.324 1598.0700000000002 960.787 1598.0700000000002L973.7470000000001 1598.0700000000002C974.219 1598.0700000000002 974.7990000000001 1598.5500000000002 974.706 1599.2300000000002Z " fill="#ffffff" fill-opacity="1" transform="matrix(1,0,0,1,-956,-1595)"></path></svg>