<svg xmlns="http://www.w3.org/2000/svg" width="37.66" height="37.44" viewBox="0 0 37.66 37.44">
  <metadata><?xpacket begin="﻿" id="W5M0MpCehiHzreSzNTczkc9d"?>
<x:xmpmeta xmlns:x="adobe:ns:meta/" x:xmptk="Adobe XMP Core 5.6-c138 79.159824, 2016/09/14-01:09:01        ">
   <rdf:RDF xmlns:rdf="http://www.w3.org/1999/02/22-rdf-syntax-ns#">
      <rdf:Description rdf:about=""/>
   </rdf:RDF>
</x:xmpmeta>
                                                                                                    
                                                                                                    
                                                                                                    
                                                                                                    
                                                                                                    
                                                                                                    
                                                                                                    
                                                                                                    
                                                                                                    
                                                                                                    
                                                                                                    
                                                                                                    
                                                                                                    
                                                                                                    
                                                                                                    
                                                                                                    
                                                                                                    
                                                                                                    
                                                                                                    
                                                                                                    
                           
<?xpacket end="w"?></metadata>
<defs>
    <style>
      .cls-1 {
        fill: #fff;
        fill-rule: evenodd;
      }
    </style>
  </defs>
  <path id="good" class="cls-1" d="M1029.9,1589.07a16.97,16.97,0,1,1-17.07,16.97,17.046,17.046,0,0,1,17.07-16.97m0-1.74a18.715,18.715,0,1,0,18.82,18.71A18.763,18.763,0,0,0,1029.9,1587.33Zm10.3,14.42-4.95-1.79a0.873,0.873,0,1,0-.6,1.64l4.95,1.79A0.873,0.873,0,1,0,1040.2,1601.75Zm-15.66-1.79-4.95,1.79a0.873,0.873,0,1,0,.6,1.64l4.95-1.79A0.873,0.873,0,1,0,1024.54,1599.96Zm12.37,11.17a13.22,13.22,0,0,1-14.11-.06,0.893,0.893,0,0,0-1.22.26,0.875,0.875,0,0,0,.27,1.21,15.036,15.036,0,0,0,16,.07,0.877,0.877,0,1,0-.94-1.48h0Z" transform="translate(-1011.06 -1587.31)"/>
</svg>
