<svg id="SvgjsSvg1078" xmlns="http://www.w3.org/2000/svg" version="1.1" xmlns:xlink="http://www.w3.org/1999/xlink" xmlns:svgjs="http://svgjs.com/svgjs" width="50" height="50" viewBox="0 0 50 50"><title>Instagram</title><desc>Created with Avocode.</desc><defs id="SvgjsDefs1079"></defs><path id="SvgjsPath1080" d="M495.692 3731.15C493.032 3731.27 491.214 3731.69 489.624 3732.31C487.98 3732.95 486.586 3733.81 485.196 3735.2C483.80600000000004 3736.5899999999997 482.951 3737.98 482.31300000000005 3739.62C481.694 3741.21 481.27200000000005 3743.0299999999997 481.15000000000003 3745.69C481.02900000000005 3748.36 481.00000000000006 3749.21 481.00000000000006 3756C481.00000000000006 3762.79 481.02900000000005 3763.64 481.15000000000003 3766.31C481.27200000000005 3768.97 481.694 3770.79 482.31300000000005 3772.38C482.951 3774.02 483.80600000000004 3775.4100000000003 485.196 3776.8C486.586 3778.19 487.98 3779.05 489.624 3779.69C491.214 3780.31 493.03200000000004 3780.73 495.692 3780.85C498.359 3780.97 499.21 3781 506 3781C512.79 3781 513.641 3780.97 516.307 3780.85C518.968 3780.73 520.7860000000001 3780.31 522.376 3779.69C524.02 3779.05 525.414 3778.19 526.804 3776.8C528.194 3775.4100000000003 529.049 3774.02 529.688 3772.38C530.305 3770.79 530.728 3768.9700000000003 530.85 3766.31C530.971 3763.64 531 3762.79 531 3756C531 3749.21 530.971 3748.36 530.85 3745.69C530.7280000000001 3743.03 530.3050000000001 3741.21 529.688 3739.62C529.049 3737.98 528.194 3736.5899999999997 526.804 3735.2C525.414 3733.81 524.02 3732.95 522.376 3732.31C520.786 3731.69 518.968 3731.27 516.307 3731.15C513.641 3731.03 512.79 3731 506 3731C499.21 3731 498.359 3731.03 495.692 3731.15ZM506 3738C510.889 3738 511.501 3738.02 513.421 3738.11C515.3370000000001 3738.2000000000003 516.6460000000001 3738.5 517.791 3738.9500000000003C518.974 3739.4 519.9780000000001 3740.0200000000004 520.979 3741.0200000000004C521.98 3742.0200000000004 522.595 3743.0300000000007 523.0550000000001 3744.2100000000005C523.5000000000001 3745.3500000000004 523.8040000000001 3746.6600000000003 523.892 3748.5800000000004C523.979 3750.5000000000005 524 3751.1100000000006 524 3756.0000000000005C524 3760.8900000000003 523.979 3761.5000000000005 523.892 3763.4200000000005C523.8040000000001 3765.3400000000006 523.5 3766.6500000000005 523.0550000000001 3767.7900000000004C522.595 3768.9700000000003 521.98 3769.9800000000005 520.979 3770.9800000000005C519.9780000000001 3771.9800000000005 518.974 3772.5900000000006 517.791 3773.0500000000006C516.6460000000001 3773.5000000000005 515.3370000000001 3773.8000000000006 513.421 3773.890000000001C511.50100000000003 3773.980000000001 510.88900000000007 3774.000000000001 506.00000000000006 3774.000000000001C501.11100000000005 3774.000000000001 500.4990000000001 3773.980000000001 498.57900000000006 3773.890000000001C496.66300000000007 3773.8000000000006 495.35400000000004 3773.500000000001 494.20900000000006 3773.0500000000006C493.02600000000007 3772.5900000000006 492.02200000000005 3771.9800000000005 491.0210000000001 3770.9800000000005C490.0200000000001 3769.9800000000005 489.4050000000001 3768.9700000000003 488.94500000000005 3767.7900000000004C488.50000000000006 3766.6500000000005 488.196 3765.3400000000006 488.10800000000006 3763.4200000000005C488.0210000000001 3761.5000000000005 488.00000000000006 3760.8900000000003 488.00000000000006 3756.0000000000005C488.00000000000006 3751.1100000000006 488.0210000000001 3750.5000000000005 488.10800000000006 3748.5800000000004C488.1960000000001 3746.6600000000003 488.50000000000006 3745.3500000000004 488.94500000000005 3744.2100000000005C489.40500000000003 3743.0300000000007 490.02000000000004 3742.0200000000004 491.0210000000001 3741.0200000000004C492.02200000000005 3740.0200000000004 493.02600000000007 3739.4000000000005 494.20900000000006 3738.9500000000003C495.35400000000004 3738.5000000000005 496.66300000000007 3738.2000000000003 498.57900000000006 3738.11C500.4990000000001 3738.02 501.11100000000005 3738 506.00000000000006 3738ZM506 3741.24C501.194 3741.24 500.624 3741.2599999999998 498.726 3741.35C496.971 3741.43 496.018 3741.72 495.384 3741.97C494.54400000000004 3742.29 493.944 3742.68 493.314 3743.31C492.685 3743.94 492.295 3744.54 491.968 3745.38C491.721 3746.02 491.428 3746.9700000000003 491.348 3748.73C491.262 3750.62 491.243 3751.19 491.243 3756C491.243 3760.81 491.262 3761.38 491.348 3763.27C491.428 3765.03 491.721 3765.98 491.968 3766.62C492.295 3767.46 492.685 3768.06 493.314 3768.69C493.944 3769.32 494.54400000000004 3769.71 495.384 3770.03C496.01800000000003 3770.28 496.971 3770.57 498.726 3770.65C500.624 3770.7400000000002 501.193 3770.76 506 3770.76C510.806 3770.76 511.376 3770.7400000000002 513.273 3770.65C515.028 3770.57 515.982 3770.28 516.616 3770.03C517.456 3769.71 518.056 3769.32 518.685 3768.69C519.3149999999999 3768.06 519.7059999999999 3767.46 520.0319999999999 3766.62C520.2789999999999 3765.98 520.5719999999999 3765.0299999999997 520.6519999999999 3763.27C520.7379999999999 3761.38 520.757 3760.81 520.757 3756C520.757 3751.19 520.7379999999999 3750.62 520.6519999999999 3748.73C520.5719999999999 3746.97 520.2789999999999 3746.02 520.0319999999999 3745.38C519.7059999999999 3744.54 519.3149999999999 3743.94 518.685 3743.31C518.0559999999999 3742.68 517.4559999999999 3742.29 516.616 3741.97C515.982 3741.72 515.028 3741.43 513.273 3741.35C511.375 3741.2599999999998 510.80600000000004 3741.24 506 3741.24C506 3741.24 510.806 3741.24 506 3741.24ZM515.243 3756C515.243 3761.1 511.1050000000001 3765.24 506.00000000000006 3765.24C500.89500000000004 3765.24 496.75700000000006 3761.1 496.75700000000006 3756C496.75700000000006 3750.89 500.89500000000004 3746.76 506.00000000000006 3746.76C511.1050000000001 3746.76 515.243 3750.8900000000003 515.243 3756ZM512 3756C512 3752.69 509.314 3750 506 3750C502.686 3750 500 3752.69 500 3756C500 3759.31 502.686 3762 506 3762C509.314 3762 512 3759.31 512 3756ZM517.768 3746.39C517.768 3747.58 516.801 3748.5499999999997 515.6080000000001 3748.5499999999997C514.4150000000001 3748.5499999999997 513.4480000000001 3747.58 513.4480000000001 3746.39C513.4480000000001 3745.2 514.4150000000001 3744.23 515.6080000000001 3744.23C516.801 3744.23 517.768 3745.2 517.768 3746.39Z " fill="#808080" fill-opacity="1" transform="matrix(1,0,0,1,-481,-3731)"></path></svg>