<svg id="SvgjsSvg1029" xmlns="http://www.w3.org/2000/svg" version="1.1" xmlns:xlink="http://www.w3.org/1999/xlink" xmlns:svgjs="http://svgjs.com/svgjs" width="31" height="30" viewBox="0 0 31 30"><title>Instagram copy</title><desc>Created with Avocode.</desc><defs id="SvgjsDefs1030"></defs><path id="SvgjsPath1031" d="M671.837 1595.09C670.236 1595.1599999999999 669.143 1595.4199999999998 668.187 1595.79C667.198 1596.17 666.36 1596.68 665.524 1597.52C664.688 1598.35 664.174 1599.19 663.789 1600.17C663.418 1601.13 663.163 1602.22 663.09 1603.8200000000002C663.017 1605.42 663 1605.93 663 1610.0000000000002C663 1614.0700000000002 663.017 1614.5800000000002 663.09 1616.1800000000003C663.163 1617.7800000000002 663.418 1618.8700000000003 663.789 1619.8300000000004C664.174 1620.8100000000004 664.688 1621.6500000000003 665.524 1622.4800000000005C666.36 1623.3200000000004 667.198 1623.8300000000004 668.187 1624.2100000000005C669.143 1624.5800000000004 670.236 1624.8400000000006 671.837 1624.9100000000005C673.441 1624.9800000000005 673.953 1625.0000000000005 678.036 1625.0000000000005C682.1199999999999 1625.0000000000005 682.632 1624.9800000000005 684.236 1624.9100000000005C685.836 1624.8400000000006 686.929 1624.5800000000006 687.886 1624.2100000000005C688.875 1623.8300000000004 689.713 1623.3200000000004 690.549 1622.4800000000005C691.385 1621.6500000000005 691.899 1620.8100000000004 692.283 1619.8300000000004C692.655 1618.8700000000003 692.909 1617.7800000000004 692.982 1616.1800000000003C693.0559999999999 1614.5800000000004 693.073 1614.0700000000004 693.073 1610.0000000000002C693.073 1605.9300000000003 693.0559999999999 1605.4200000000003 692.982 1603.8200000000002C692.909 1602.2200000000003 692.655 1601.13 692.283 1600.17C691.899 1599.19 691.385 1598.3500000000001 690.549 1597.52C689.713 1596.68 688.875 1596.17 687.886 1595.79C686.929 1595.42 685.836 1595.1599999999999 684.236 1595.09C682.632 1595.02 682.12 1595 678.036 1595C673.953 1595 673.4409999999999 1595.02 671.837 1595.09ZM678.036 1599.2C680.977 1599.2 681.3449999999999 1599.21 682.5 1599.26C683.652 1599.32 684.439 1599.5 685.128 1599.77C685.84 1600.04 686.4440000000001 1600.41 687.046 1601.01C687.647 1601.61 688.018 1602.22 688.2940000000001 1602.93C688.5620000000001 1603.6100000000001 688.7450000000001 1604.4 688.7970000000001 1605.55C688.8500000000001 1606.7 688.8630000000002 1607.07 688.8630000000002 1610C688.8630000000002 1612.93 688.8500000000001 1613.3 688.7970000000001 1614.45C688.7450000000001 1615.6000000000001 688.5620000000001 1616.39 688.2940000000001 1617.07C688.0180000000001 1617.78 687.647 1618.3899999999999 687.046 1618.99C686.4440000000001 1619.59 685.84 1619.96 685.128 1620.23C684.4390000000001 1620.5 683.652 1620.68 682.5 1620.74C681.345 1620.79 680.977 1620.8 678.036 1620.8C675.0959999999999 1620.8 674.728 1620.79 673.573 1620.74C672.4209999999999 1620.68 671.6329999999999 1620.5 670.9449999999999 1620.23C670.233 1619.96 669.6289999999999 1619.59 669.0269999999999 1618.99C668.425 1618.39 668.055 1617.78 667.7789999999999 1617.07C667.5109999999999 1616.3899999999999 667.3279999999999 1615.6 667.2749999999999 1614.45C667.2229999999998 1613.3 667.2099999999998 1612.93 667.2099999999998 1610C667.2099999999998 1607.07 667.2229999999998 1606.7 667.2749999999999 1605.55C667.3279999999999 1604.3999999999999 667.5109999999999 1603.61 667.7789999999999 1602.93C668.0549999999998 1602.22 668.4249999999998 1601.6100000000001 669.0269999999999 1601.01C669.6289999999999 1600.41 670.233 1600.04 670.9449999999999 1599.77C671.6329999999999 1599.5 672.4209999999999 1599.32 673.573 1599.26C674.728 1599.21 675.096 1599.2 678.036 1599.2ZM678.036 1601.15C675.146 1601.15 674.803 1601.16 673.6619999999999 1601.21C672.6059999999999 1601.26 672.0329999999999 1601.43 671.651 1601.58C671.146 1601.78 670.785 1602.01 670.4069999999999 1602.3899999999999C670.0279999999999 1602.77 669.7929999999999 1603.1299999999999 669.597 1603.6299999999999C669.449 1604.01 669.2719999999999 1604.58 669.2239999999999 1605.6399999999999C669.1719999999999 1606.77 669.161 1607.12 669.161 1609.9999999999998C669.161 1612.8799999999999 669.1719999999999 1613.2299999999998 669.2239999999999 1614.3599999999997C669.2719999999999 1615.4199999999996 669.449 1615.9899999999998 669.597 1616.3699999999997C669.793 1616.8699999999997 670.028 1617.2299999999996 670.4069999999999 1617.6099999999997C670.785 1617.9899999999998 671.146 1618.2199999999996 671.651 1618.4199999999996C672.0329999999999 1618.5699999999997 672.606 1618.7399999999996 673.6619999999999 1618.7899999999995C674.8029999999999 1618.8399999999995 675.1449999999999 1618.8499999999995 678.036 1618.8499999999995C680.9269999999999 1618.8499999999995 681.27 1618.8399999999995 682.411 1618.7899999999995C683.467 1618.7399999999996 684.04 1618.5699999999995 684.4209999999999 1618.4199999999996C684.9269999999999 1618.2199999999996 685.2869999999999 1617.9899999999996 685.6659999999999 1617.6099999999997C686.045 1617.2299999999996 686.28 1616.8699999999997 686.4759999999999 1616.3699999999997C686.6239999999999 1615.9899999999996 686.8009999999999 1615.4199999999996 686.8489999999999 1614.3599999999997C686.901 1613.2299999999996 686.9119999999999 1612.8799999999997 686.9119999999999 1609.9999999999998C686.9119999999999 1607.1199999999997 686.901 1606.7699999999998 686.8489999999999 1605.6399999999999C686.8009999999999 1604.58 686.6239999999999 1604.0099999999998 686.4759999999999 1603.6299999999999C686.2799999999999 1603.1299999999999 686.0449999999998 1602.77 685.6659999999999 1602.3899999999999C685.2869999999999 1602.0099999999998 684.9269999999999 1601.78 684.4209999999999 1601.58C684.04 1601.4299999999998 683.467 1601.26 682.411 1601.21C681.27 1601.16 680.9269999999999 1601.15 678.036 1601.15C678.036 1601.15 680.9269999999999 1601.15 678.036 1601.15ZM683.596 1610C683.596 1613.06 681.107 1615.55 678.0360000000001 1615.55C674.966 1615.55 672.4770000000001 1613.06 672.4770000000001 1610C672.4770000000001 1606.94 674.9660000000001 1604.45 678.0360000000001 1604.45C681.1070000000001 1604.45 683.596 1606.94 683.596 1610ZM681.645 1610C681.645 1608.01 680.029 1606.4 678.036 1606.4C676.0429999999999 1606.4 674.428 1608.01 674.428 1610C674.428 1611.99 676.043 1613.6 678.036 1613.6C680.029 1613.6 681.645 1611.99 681.645 1610ZM685.115 1604.23C685.115 1604.95 684.533 1605.53 683.815 1605.53C683.0980000000001 1605.53 682.5160000000001 1604.95 682.5160000000001 1604.23C682.5160000000001 1603.52 683.0980000000001 1602.94 683.815 1602.94C684.533 1602.94 685.115 1603.52 685.115 1604.23Z " fill="#ffffff" fill-opacity="1" transform="matrix(1,0,0,1,-663,-1595)"></path></svg>