<svg xmlns="http://www.w3.org/2000/svg" width="37.625" height="37.44" viewBox="0 0 37.625 37.44">
  <metadata><?xpacket begin="﻿" id="W5M0MpCehiHzreSzNTczkc9d"?>
<x:xmpmeta xmlns:x="adobe:ns:meta/" x:xmptk="Adobe XMP Core 5.6-c138 79.159824, 2016/09/14-01:09:01        ">
   <rdf:RDF xmlns:rdf="http://www.w3.org/1999/02/22-rdf-syntax-ns#">
      <rdf:Description rdf:about=""/>
   </rdf:RDF>
</x:xmpmeta>
                                                                                                    
                                                                                                    
                                                                                                    
                                                                                                    
                                                                                                    
                                                                                                    
                                                                                                    
                                                                                                    
                                                                                                    
                                                                                                    
                                                                                                    
                                                                                                    
                                                                                                    
                                                                                                    
                                                                                                    
                                                                                                    
                                                                                                    
                                                                                                    
                                                                                                    
                                                                                                    
                           
<?xpacket end="w"?></metadata>
<defs>
    <style>
      .cls-1 {
        fill: #fff;
        fill-rule: evenodd;
      }
    </style>
  </defs>
  <path id="normal" class="cls-1" d="M972.934,1588.99a16.97,16.97,0,1,1-17.066,16.97,17.036,17.036,0,0,1,17.066-16.97m0-1.75a18.715,18.715,0,1,0,18.823,18.72A18.771,18.771,0,0,0,972.934,1587.24Zm10.158,13.48h-5.271a0.87,0.87,0,1,0,0,1.74h5.271A0.87,0.87,0,1,0,983.092,1600.72Zm-15.058,0h-5.271a0.87,0.87,0,1,0,0,1.74h5.271A0.87,0.87,0,1,0,968.034,1600.72Zm12.756,11.23H964.978a0.87,0.87,0,1,0,0,1.74H980.79A0.87,0.87,0,1,0,980.79,1611.95Z" transform="translate(-954.125 -1587.25)"/>
</svg>
