<svg xmlns="http://www.w3.org/2000/svg" width="37.625" height="27.97" viewBox="0 0 37.625 27.97">
  <metadata><?xpacket begin="﻿" id="W5M0MpCehiHzreSzNTczkc9d"?>
<x:xmpmeta xmlns:x="adobe:ns:meta/" x:xmptk="Adobe XMP Core 5.6-c138 79.159824, 2016/09/14-01:09:01        ">
   <rdf:RDF xmlns:rdf="http://www.w3.org/1999/02/22-rdf-syntax-ns#">
      <rdf:Description rdf:about=""/>
   </rdf:RDF>
</x:xmpmeta>
                                                                                                    
                                                                                                    
                                                                                                    
                                                                                                    
                                                                                                    
                                                                                                    
                                                                                                    
                                                                                                    
                                                                                                    
                                                                                                    
                                                                                                    
                                                                                                    
                                                                                                    
                                                                                                    
                                                                                                    
                                                                                                    
                                                                                                    
                                                                                                    
                                                                                                    
                                                                                                    
                           
<?xpacket end="w"?></metadata>
<defs>
    <style>
      .cls-1 {
        fill: #fff;
        fill-rule: evenodd;
      }
    </style>
  </defs>
  <path id="post" class="cls-1" d="M737.819,1593.82a1.75,1.75,0,0,1,1.757,1.74v7.74a1.759,1.759,0,0,1-1.757,1.75h-7.78a1.759,1.759,0,0,1-1.757-1.75v-7.74a1.75,1.75,0,0,1,1.757-1.74h7.78m0-1.75h-7.78a3.5,3.5,0,0,0-3.514,3.49v7.74a3.5,3.5,0,0,0,3.514,3.49h7.78a3.5,3.5,0,0,0,3.514-3.49v-7.74A3.5,3.5,0,0,0,737.819,1592.07Zm25.474,1.75H746.227a0.875,0.875,0,1,1,0-1.75h17.066A0.875,0.875,0,1,1,763.293,1593.82Zm0,6.55H746.227a0.875,0.875,0,1,1,0-1.75h17.066A0.875,0.875,0,1,1,763.293,1600.37Zm0,6.55H746.227a0.875,0.875,0,1,1,0-1.75h17.066A0.875,0.875,0,1,1,763.293,1606.92Zm0,6.55H727.4a0.875,0.875,0,1,1,0-1.75h35.889A0.875,0.875,0,1,1,763.293,1613.47Zm0,6.55H727.4a0.875,0.875,0,1,1,0-1.75h35.889A0.875,0.875,0,1,1,763.293,1620.02Z" transform="translate(-726.531 -1592.06)"/>
</svg>
