<svg id="SvgjsSvg1066" xmlns="http://www.w3.org/2000/svg" version="1.1" xmlns:xlink="http://www.w3.org/1999/xlink" xmlns:svgjs="http://svgjs.com/svgjs" width="40" height="40" viewBox="0 0 40 40"><title>Ellipse 3 copy 6</title><desc>Created with Avocode.</desc><defs id="SvgjsDefs1067"><clipPath id="SvgjsClipPath1070"><path id="SvgjsPath1069" d="M1164 1590C1175.05 1590 1184 1598.95 1184 1610C1184 1621.05 1175.05 1630 1164 1630C1152.95 1630 1144 1621.05 1144 1610C1144 1598.95 1152.95 1590 1164 1590Z " fill="#ffffff"></path></clipPath></defs><path id="SvgjsPath1068" d="M1164 1590C1175.05 1590 1184 1598.95 1184 1610C1184 1621.05 1175.05 1630 1164 1630C1152.95 1630 1144 1621.05 1144 1610C1144 1598.95 1152.95 1590 1164 1590Z " fill-opacity="0" fill="#ffffff" stroke-dasharray="0" stroke-linejoin="miter" stroke-linecap="butt" stroke-opacity="1" stroke="#ffffff" stroke-miterlimit="50" stroke-width="3" clip-path="url(&quot;#SvgjsClipPath1070&quot;)" transform="matrix(1,0,0,1,-1144,-1590)"></path><path id="SvgjsPath1071" d="M1171.42 1617.98C1167.0500000000002 1614.35 1160.94 1614.35 1156.5700000000002 1617.98L1154.1200000000001 1620L1153.15 1618.64L1155.5900000000001 1616.6200000000001C1158.0700000000002 1614.5700000000002 1161.0300000000002 1613.5400000000002 1163.9900000000002 1613.5400000000002C1166.9600000000003 1613.5400000000002 1169.9200000000003 1614.5700000000002 1172.3900000000003 1616.6200000000001L1174.8400000000004 1618.64L1173.8700000000003 1620ZM1153.41 1602.01L1160.3400000000001 1603.97L1159.92 1605.63L1152.99 1603.67ZM1167.65 1603.97L1174.5800000000002 1602.01L1175.0000000000002 1603.67L1168.0700000000002 1605.63Z " fill="#ffffff" fill-opacity="1" transform="matrix(1,0,0,1,-1144,-1590)"></path></svg>