<svg id="SvgjsSvg1057" xmlns="http://www.w3.org/2000/svg" version="1.1" xmlns:xlink="http://www.w3.org/1999/xlink" xmlns:svgjs="http://svgjs.com/svgjs" width="40" height="40" viewBox="0 0 40 40"><title>Star</title><desc>Created with Avocode.</desc><defs id="SvgjsDefs1058"></defs><path id="SvgjsPath1059" d="M934.251 1629.36C933.67 1629.36 933.169 1629.1799999999998 932.7529999999999 1628.83L923.93 1622.1299999999999L915.107 1628.83C914.192 1629.53 912.943 1629.53 912.028 1628.83C911.112 1628.1399999999999 910.696 1626.9199999999998 911.112 1625.79L914.4409999999999 1615L905.7019999999999 1608.29C904.7859999999998 1607.6 904.3699999999999 1606.3799999999999 904.7859999999998 1605.25C905.1199999999998 1604.11 906.1179999999998 1603.33 907.2829999999998 1603.33L918.1869999999998 1603.33L921.5159999999997 1592.54C921.8489999999997 1591.4099999999999 922.8479999999997 1590.62 924.0129999999997 1590.62C925.1789999999997 1590.62 926.1779999999997 1591.4099999999999 926.5099999999996 1592.54L929.8399999999997 1603.33L940.7429999999997 1603.33C941.9079999999997 1603.33 942.9069999999997 1604.11 943.2409999999998 1605.25C943.5729999999998 1606.38 943.2409999999998 1607.6 942.3239999999997 1608.29L933.5009999999997 1615L936.8309999999998 1625.79C937.1629999999998 1626.92 936.8309999999998 1628.1399999999999 935.9139999999998 1628.83C935.3329999999997 1629.1799999999998 934.8339999999997 1629.36 934.2509999999997 1629.36ZM923.93 1620.22C924.097 1620.22 924.262 1620.3 924.429 1620.39L933.752 1627.44C934.0849999999999 1627.7 934.584 1627.7 934.9169999999999 1627.44C935.2489999999999 1627.18 935.4159999999999 1626.75 935.2489999999999 1626.31L931.6709999999999 1614.9099999999999C931.588 1614.56 931.6709999999999 1614.1299999999999 932.0039999999999 1613.9499999999998L941.2429999999999 1606.8999999999999C941.5759999999999 1606.6399999999999 941.742 1606.1999999999998 941.5759999999999 1605.7699999999998C941.4089999999999 1605.3299999999997 941.0749999999999 1605.0699999999997 940.6589999999999 1605.0699999999997L929.1739999999999 1605.0699999999997C928.8409999999999 1605.0699999999997 928.5079999999998 1604.8099999999997 928.4249999999998 1604.4599999999998L924.8459999999999 1593.0599999999997C924.6789999999999 1592.6299999999997 924.3459999999999 1592.3599999999997 923.9299999999998 1592.3599999999997C923.5139999999998 1592.3599999999997 923.1809999999998 1592.6299999999997 923.0149999999999 1593.0599999999997L919.4349999999998 1604.4599999999998C919.3519999999999 1604.8099999999997 919.0199999999999 1605.0699999999997 918.6859999999998 1605.0699999999997L907.1999999999998 1605.0699999999997C906.7839999999998 1605.0699999999997 906.4509999999998 1605.3299999999997 906.2849999999999 1605.7699999999998C906.1179999999998 1606.1999999999998 906.2849999999999 1606.6399999999996 906.6169999999998 1606.8999999999999L915.9399999999998 1613.9499999999998C916.1889999999999 1614.2099999999998 916.3559999999999 1614.5599999999997 916.2729999999998 1614.9099999999999L912.6929999999998 1626.31C912.5269999999997 1626.75 912.6929999999998 1627.1799999999998 913.0269999999997 1627.44C913.3589999999997 1627.7 913.8589999999997 1627.7 914.1919999999997 1627.44L923.5139999999997 1620.39C923.5969999999996 1620.3000000000002 923.7639999999997 1620.22 923.9299999999997 1620.22Z " fill="#ffffff" fill-opacity="1" transform="matrix(1,0,0,1,-904,-1590)"></path></svg>