<svg id="SvgjsSvg1054" xmlns="http://www.w3.org/2000/svg" version="1.1" xmlns:xlink="http://www.w3.org/1999/xlink" xmlns:svgjs="http://svgjs.com/svgjs" width="43" height="43" viewBox="0 0 43 43"><title>Statistics</title><desc>Created with Avocode.</desc><defs id="SvgjsDefs1055"></defs><path id="SvgjsPath1056" d="M842.156 1589.69C830.8689999999999 1589.69 821.752 1598.98 822.02 1610.3300000000002C822.273 1621.0200000000002 830.992 1629.7400000000002 841.681 1629.9900000000002C841.841 1630.0000000000002 842.004 1630.0000000000002 842.164 1630.0000000000002C853.2959999999999 1630.0000000000002 862.319 1620.9700000000003 862.313 1609.8300000000002L844.037 1609.8300000000002C842.998 1609.8300000000002 842.1560000000001 1608.9900000000002 842.1560000000001 1607.95L842.1560000000001 1591.47499C842.1631000000001 1591.47425 842.16282 1591.47428 842.1560000000001 1591.47499ZM840.275 1607.95C840.275 1610.02 841.963 1611.71 844.0369999999999 1611.71L860.338 1611.71C859.9169999999999 1615.89 858.0889999999999 1619.75 855.0849999999999 1622.76C851.6339999999999 1626.21 847.045 1628.12 842.1639999999999 1628.12C842.0179999999999 1628.12 841.8709999999999 1628.11 841.7249999999999 1628.11C837.0409999999999 1628 832.6159999999999 1626.1 829.2669999999999 1622.75C825.9169999999999 1619.4 824.012 1614.97 823.901 1610.29C823.7829999999999 1605.32 825.627 1600.6299999999999 829.091 1597.08C832.114 1593.98 836.032 1592.1 840.275 1591.6699999999998ZM844.851 1587L844.851 1605.27C844.851 1606.31 845.693 1607.15 846.732 1607.15L865 1607.15C865 1596.02 855.979 1587 844.851 1587ZM863.023 1605.27L846.732 1605.27L846.732 1588.98C855.3059999999999 1589.8600000000001 862.1419999999999 1596.7 863.023 1605.27Z " fill="#ffffff" fill-opacity="1" transform="matrix(1,0,0,1,-822,-1587)"></path></svg>