<svg xmlns="http://www.w3.org/2000/svg" width="40.156" height="39.94" viewBox="0 0 40.156 39.94">
  <metadata><?xpacket begin="﻿" id="W5M0MpCehiHzreSzNTczkc9d"?>
<x:xmpmeta xmlns:x="adobe:ns:meta/" x:xmptk="Adobe XMP Core 5.6-c138 79.159824, 2016/09/14-01:09:01        ">
   <rdf:RDF xmlns:rdf="http://www.w3.org/1999/02/22-rdf-syntax-ns#">
      <rdf:Description rdf:about=""/>
   </rdf:RDF>
</x:xmpmeta>
                                                                                                    
                                                                                                    
                                                                                                    
                                                                                                    
                                                                                                    
                                                                                                    
                                                                                                    
                                                                                                    
                                                                                                    
                                                                                                    
                                                                                                    
                                                                                                    
                                                                                                    
                                                                                                    
                                                                                                    
                                                                                                    
                                                                                                    
                                                                                                    
                                                                                                    
                                                                                                    
                           
<?xpacket end="w"?></metadata>
<defs>
    <style>
      .cls-1 {
        fill: #fff;
        fill-rule: evenodd;
      }
    </style>
  </defs>
  <path id="stats" class="cls-1" d="M800.276,1589.09v15.12a3.5,3.5,0,0,0,3.514,3.49h15.223a16.782,16.782,0,0,1-4.906,10.26,16.978,16.978,0,0,1-12.067,4.97h-0.41A17,17,0,0,1,790,1617.95a16.946,16.946,0,0,1,10.281-28.86m1.757-1.83a18.707,18.707,0,0,0-.444,37.41c0.15,0.01.3,0.01,0.451,0.01a18.762,18.762,0,0,0,18.818-18.72H803.79a1.758,1.758,0,0,1-1.757-1.75v-16.95Zm4.274-.66a17.031,17.031,0,0,1,15.214,15.12H806.307V1586.6m-1.757-1.84v16.96a1.751,1.751,0,0,0,1.757,1.75h17.061A18.766,18.766,0,0,0,804.55,1584.76Z" transform="translate(-783.219 -1584.75)"/>
</svg>
