<svg id="SvgjsSvg1020" xmlns="http://www.w3.org/2000/svg" version="1.1" xmlns:xlink="http://www.w3.org/1999/xlink" xmlns:svgjs="http://svgjs.com/svgjs" width="31" height="24" viewBox="0 0 31 24"><title>Twitter copy</title><desc>Created with Avocode.</desc><defs id="SvgjsDefs1021"></defs><path id="SvgjsPath1022" d="M1055 1600.84C1053.89 1601.32 1052.7 1601.6499999999999 1051.46 1601.79C1052.73 1601.05 1053.71 1599.86 1054.17 1598.44C1052.98 1599.14 1051.66 1599.64 1050.25 1599.91C1049.13 1598.74 1047.52 1598 1045.75 1598C1042.34 1598 1039.58 1600.71 1039.58 1604.06C1039.58 1604.53 1039.6299999999999 1605 1039.74 1605.44C1034.61 1605.19 1030.06 1602.77 1027.02 1599.1100000000001C1026.49 1600.0000000000002 1026.19 1601.0400000000002 1026.19 1602.15C1026.19 1604.26 1027.27 1606.1100000000001 1028.93 1607.2C1027.92 1607.17 1026.97 1606.89 1026.14 1606.44C1026.13 1606.47 1026.13 1606.49 1026.13 1606.52C1026.13 1609.45 1028.2600000000002 1611.9 1031.0800000000002 1612.46C1030.5700000000002 1612.6000000000001 1030.0200000000002 1612.67 1029.4600000000003 1612.67C1029.0600000000002 1612.67 1028.6700000000003 1612.63 1028.3000000000002 1612.5600000000002C1029.0800000000002 1614.9700000000003 1031.3600000000001 1616.7200000000003 1034.0600000000002 1616.7700000000002C1031.9500000000003 1618.39 1029.2900000000002 1619.3600000000001 1026.4 1619.3600000000001C1025.9 1619.3600000000001 1025.41 1619.3300000000002 1024.93 1619.2800000000002C1027.66 1621.0000000000002 1030.9 1622.0000000000002 1034.38 1622.0000000000002C1045.73 1622.0000000000002 1051.94 1612.7700000000002 1051.94 1604.7600000000002C1051.94 1604.5000000000002 1051.93 1604.2400000000002 1051.92 1603.9800000000002C1053.13 1603.1200000000003 1054.17 1602.0600000000002 1055 1600.8400000000001Z " fill="#ffffff" fill-opacity="1" transform="matrix(1,0,0,1,-1024,-1598)"></path></svg>