<svg id="SvgjsSvg1093" xmlns="http://www.w3.org/2000/svg" version="1.1" xmlns:xlink="http://www.w3.org/1999/xlink" xmlns:svgjs="http://svgjs.com/svgjs" width="50" height="40" viewBox="0 0 50 40"><title>Twitter</title><desc>Created with Avocode.</desc><defs id="SvgjsDefs1094"></defs><path id="SvgjsPath1095" d="M1442 3740.73C1440.16 3741.54 1438.18 3742.08 1436.11 3742.32C1438.2299999999998 3741.0800000000004 1439.85 3739.1000000000004 1440.62 3736.7400000000002C1438.6399999999999 3737.9 1436.4399999999998 3738.7400000000002 1434.1 3739.19C1432.23 3737.23 1429.57 3736 1426.62 3736C1420.9499999999998 3736 1416.36 3740.52 1416.36 3746.1C1416.36 3746.89 1416.4499999999998 3747.66 1416.62 3748.4C1408.1 3747.98 1400.54 3743.96 1395.4799999999998 3737.85C1394.5999999999997 3739.3399999999997 1394.0899999999997 3741.0699999999997 1394.0899999999997 3742.92C1394.0899999999997 3746.4300000000003 1395.8999999999996 3749.52 1398.6499999999996 3751.33C1396.9699999999996 3751.2799999999997 1395.3899999999996 3750.8199999999997 1394.0099999999995 3750.0699999999997C1394.0099999999995 3750.1099999999997 1394.0099999999995 3750.1499999999996 1394.0099999999995 3750.1899999999996C1394.0099999999995 3755.0899999999997 1397.5399999999995 3759.1699999999996 1402.2399999999996 3760.0999999999995C1401.3799999999997 3760.3299999999995 1400.4699999999996 3760.4499999999994 1399.5299999999995 3760.4499999999994C1398.8699999999994 3760.4499999999994 1398.2299999999996 3760.3899999999994 1397.5999999999995 3760.2699999999995C1398.9099999999994 3764.2799999999997 1402.6999999999994 3767.1999999999994 1407.1899999999994 3767.2799999999997C1403.6799999999994 3769.99 1399.2499999999993 3771.6 1394.4499999999994 3771.6C1393.6199999999994 3771.6 1392.7999999999993 3771.56 1391.9999999999993 3771.46C1396.5399999999993 3774.33 1401.9299999999994 3776 1407.7199999999993 3776C1426.5899999999992 3776 1436.9099999999994 3760.61 1436.9099999999994 3747.27C1436.9099999999994 3746.83 1436.8999999999994 3746.4 1436.8799999999994 3745.96C1438.8899999999994 3744.54 1440.6199999999994 3742.76 1441.9999999999993 3740.73Z " fill="#808080" fill-opacity="1" transform="matrix(1,0,0,1,-1392,-3736)"></path></svg>