<svg id="SvgjsSvg1036" xmlns="http://www.w3.org/2000/svg" version="1.1" xmlns:xlink="http://www.w3.org/1999/xlink" xmlns:svgjs="http://svgjs.com/svgjs" width="31" height="30" viewBox="0 0 31 30"><title>VK copy</title><desc>Created with Avocode.</desc><defs id="SvgjsDefs1037"></defs><path id="SvgjsPath1038" d="M760.904 1595L740.099 1595C737.5400000000001 1595 735.465 1597.07 735.465 1599.62L735.465 1620.3799999999999C735.465 1622.9299999999998 737.5400000000001 1624.9999999999998 740.099 1624.9999999999998L760.904 1624.9999999999998C763.463 1624.9999999999998 765.538 1622.9299999999998 765.538 1620.3799999999999L765.538 1599.62C765.538 1597.07 763.463 1595 760.904 1595ZM759.821 1616L757.073 1616.04C757.073 1616.04 756.482 1616.1599999999999 755.7049999999999 1615.62C754.6769999999999 1614.9199999999998 753.7069999999999 1613.09 752.9519999999999 1613.33C752.1859999999999 1613.57 752.2099999999999 1615.22 752.2099999999999 1615.22C752.2099999999999 1615.22 752.2149999999999 1615.57 752.0409999999999 1615.76C751.8509999999999 1615.96 751.4789999999999 1616 751.4789999999999 1616L750.2489999999999 1616C750.2489999999999 1616 747.5349999999999 1616.16 745.1439999999999 1613.68C742.5379999999999 1610.97 740.2349999999999 1605.6000000000001 740.2349999999999 1605.6000000000001C740.2349999999999 1605.6000000000001 740.103 1605.2500000000002 740.2469999999998 1605.0800000000002C740.4089999999999 1604.89 740.8499999999998 1604.8700000000001 740.8499999999998 1604.8700000000001L743.7909999999998 1604.8500000000001C743.7909999999998 1604.8500000000001 744.0679999999999 1604.9 744.2669999999998 1605.0500000000002C744.4299999999998 1605.17 744.5219999999998 1605.39 744.5219999999998 1605.39C744.5219999999998 1605.39 744.9969999999998 1606.5900000000001 745.6259999999999 1607.67C746.8549999999999 1609.79 747.4269999999999 1610.25 747.8439999999998 1610.03C748.4519999999998 1609.7 748.2699999999999 1607.03 748.2699999999999 1607.03C748.2699999999999 1607.03 748.2809999999998 1606.07 747.9639999999998 1605.6399999999999C747.7179999999998 1605.3 747.2549999999999 1605.2099999999998 747.0499999999998 1605.1799999999998C746.8849999999999 1605.1599999999999 747.1559999999998 1604.7699999999998 747.5089999999998 1604.6C748.0379999999998 1604.34 748.9719999999998 1604.33 750.0759999999998 1604.34C750.9369999999998 1604.35 751.1839999999997 1604.3999999999999 751.5209999999998 1604.48C752.5349999999999 1604.73 752.1909999999998 1605.67 752.1909999999998 1607.93C752.1909999999998 1608.66 752.0599999999998 1609.68 752.5839999999998 1610.01C752.8089999999999 1610.16 753.3599999999998 1610.04 754.7379999999998 1607.7C755.3909999999998 1606.5900000000001 755.8809999999999 1605.29 755.8809999999999 1605.29C755.8809999999999 1605.29 755.9879999999998 1605.06 756.1539999999999 1604.96C756.3239999999998 1604.8600000000001 756.5539999999999 1604.89 756.5539999999999 1604.89L759.6479999999999 1604.8700000000001C759.6479999999999 1604.8700000000001 760.5779999999999 1604.7600000000002 760.728 1605.18C760.887 1605.6200000000001 760.381 1606.65 759.117 1608.3300000000002C757.0409999999999 1611.0900000000001 756.81 1610.8300000000002 758.533 1612.43C760.1800000000001 1613.95 760.5210000000001 1614.69 760.577 1614.78C761.259 1615.91 759.821 1616 759.821 1616Z " fill="#ffffff" fill-opacity="1" transform="matrix(1,0,0,1,-735,-1595)"></path></svg>