<?xml version="1.0" encoding="utf-8"?>
<!-- Generator: Adobe Illustrator 19.2.1, SVG Export Plug-In . SVG Version: 6.00 Build 0)  -->
<svg version="1.1" id="Слой_1" xmlns="http://www.w3.org/2000/svg" xmlns:xlink="http://www.w3.org/1999/xlink" x="165px" y="50px"
	 viewBox="0 0 152.6 61" style="enable-background:new 0 0 152.6 61;" xml:space="preserve">
<metadata><?xpacket begin="﻿" id="W5M0MpCehiHzreSzNTczkc9d"?>
<x:xmpmeta xmlns:x="adobe:ns:meta/" x:xmptk="Adobe XMP Core 5.6-c111 79.158366, 2015/09/25-01:12:00        ">
   <rdf:RDF xmlns:rdf="http://www.w3.org/1999/02/22-rdf-syntax-ns#">
      <rdf:Description rdf:about=""/>
   </rdf:RDF>
</x:xmpmeta>
<?xpacket end="w"?></metadata>
<style type="text/css">
	.st0{fill:#000000}
</style>
<g>
	<g>
		<g>
			<path class="st0" d="M39.9,35.8L39.9,35.8c-0.1-0.1-0.3-0.6-0.3-1.6v-3.8c0-2.1-0.2-3.9-0.5-5.2c-0.3-1.4-0.9-2.5-1.7-3.3
				c-0.8-0.8-1.9-1.3-3.2-1.6c-1.2-0.2-2.7-0.4-4.5-0.4c-1.5,0-3,0.1-4.3,0.3c-1.3,0.2-2.5,0.5-3.4,1l-0.6,0.3l1.5,4.3l0.7-0.2
				c0.3-0.1,0.7-0.2,1.1-0.3c0.4-0.1,0.9-0.2,1.5-0.4c0.5-0.1,1.1-0.2,1.7-0.3c0.6-0.1,1.2-0.1,1.8-0.1c0.9,0,1.6,0,2.1,0.1
				c0.5,0.1,0.8,0.2,1.1,0.4c0.2,0.2,0.4,0.5,0.6,0.9c0.1,0.3,0.2,0.8,0.3,1.3h-4.4c-1.3,0-2.5,0.1-3.5,0.3
				c-1.1,0.2-2.1,0.6-2.9,1.2c-0.8,0.6-1.5,1.3-2,2.3c-0.5,0.9-0.7,2.1-0.7,3.5c0,1.3,0.2,2.3,0.7,3.2c0.5,0.9,1.1,1.6,2,2.1
				c0.8,0.5,1.8,0.8,2.9,1c1.1,0.2,2.2,0.3,3.5,0.3c1.7,0,3.1-0.3,4.3-0.9c0.8-0.4,1.6-0.9,2.2-1.6c0.3,0.5,0.7,1,1.2,1.3
				c0.8,0.5,1.9,0.8,3.4,1l0.7,0.1l0.5-4.4L41,36.3C40.5,36.2,40.1,36,39.9,35.8z M31.9,36.1c-0.6,0.2-1.4,0.3-2.4,0.3
				c-0.6,0-1.2,0-1.6-0.1c-0.4,0-0.8-0.1-1.1-0.3c-0.2-0.1-0.4-0.3-0.6-0.5c-0.1-0.2-0.2-0.6-0.2-1.1c0-0.7,0.1-1.2,0.2-1.5
				c0.1-0.3,0.3-0.6,0.6-0.7c0.3-0.2,0.6-0.3,1.1-0.4c0.5-0.1,1-0.1,1.6-0.1h4.4c0,0.7-0.1,1.3-0.2,1.8c-0.1,0.6-0.3,1.2-0.6,1.6
				C32.8,35.6,32.4,35.9,31.9,36.1z"/>
			<polygon class="st0" points="57.6,31.2 50.2,20.3 44.6,20.3 44.6,40.7 50.2,40.7 50.2,29.8 57.5,40.7 63.1,40.7 63.1,20.3 
				57.6,20.3 			"/>
			<path class="st0" d="M77.1,32.5h4.8v3.6c-0.3,0.1-0.7,0.1-1.1,0.2c-0.7,0.1-1.3,0.2-2,0.2c-1.1,0-2.1-0.1-2.8-0.2
				c-0.7-0.1-1.2-0.4-1.6-0.8c-0.4-0.4-0.7-1-0.9-1.7c-0.2-0.8-0.3-1.9-0.3-3.3c0-1.4,0.1-2.6,0.4-3.4c0.3-0.7,0.6-1.3,1.1-1.6
				c0.5-0.4,1-0.6,1.6-0.7c0.7-0.1,1.5-0.2,2.4-0.2c0.6,0,1.2,0,1.8,0.1c0.6,0.1,1.2,0.2,1.7,0.3c0.5,0.1,1,0.2,1.5,0.4
				c0.4,0.1,0.8,0.2,1.1,0.3l0.7,0.2l1.5-4.3l-0.6-0.3c-1-0.4-2.1-0.7-3.4-1c-1.3-0.2-2.8-0.3-4.3-0.3c-1.6,0-3.1,0.1-4.5,0.4
				c-1.4,0.3-2.6,0.8-3.6,1.5c-1,0.8-1.8,1.9-2.3,3.3c-0.5,1.4-0.8,3.1-0.8,5.3c0,2.2,0.2,4,0.7,5.3c0.5,1.4,1.2,2.5,2.2,3.3
				c0.9,0.8,2.1,1.3,3.5,1.6c1.3,0.2,2.8,0.4,4.5,0.4c0.8,0,1.6,0,2.5-0.1c0.8-0.1,1.6-0.2,2.4-0.3c0.8-0.2,1.5-0.3,2.1-0.5
				c0.7-0.2,1.3-0.4,1.7-0.7l0.4-0.2V27.9h-9.9L77.1,32.5z"/>
			<path class="st0" d="M109.9,36.6L109.9,36.6c-0.2,0-0.5,0-0.7,0c-0.2,0-0.4,0-0.6-0.1c-0.1,0-0.2-0.1-0.2-0.1l-2.7-2.9
				c0.4-0.1,0.8-0.2,1.1-0.3c0.7-0.3,1.3-0.7,1.8-1.3c0.4-0.5,0.8-1.2,1-2c0.2-0.7,0.3-1.7,0.3-2.8c0-1.4-0.1-2.5-0.4-3.4
				c-0.3-0.9-0.9-1.7-1.6-2.2c-0.7-0.5-1.7-0.8-2.8-1c-1.1-0.2-2.4-0.2-4-0.2h-9.1v20.3h5.7v-6.8h1.6l3.5,3.8c0.7,0.8,1.4,1.4,2,1.8
				c0.6,0.4,1.3,0.8,1.9,1c0.6,0.2,1.3,0.3,1.9,0.3c0.6,0,1.3,0,2-0.1l0.6,0l0.5-4.1h-0.8C110.5,36.5,110.2,36.6,109.9,36.6z
				 M104,27v0.2c0,0.6-0.1,1-0.2,1.3c-0.1,0.2-0.2,0.4-0.3,0.5c-0.2,0.1-0.5,0.2-0.8,0.2c-0.4,0-1,0.1-1.7,0.1h-3.5v-4.4h3.5
				c0.6,0,1.2,0,1.7,0.1c0.4,0,0.6,0.1,0.8,0.2c0.2,0.1,0.3,0.3,0.3,0.5C104,26,104,26.5,104,27z"/>
			<path class="st0" d="M126,20.3l-0.2,0.3c-0.8,1-1.5,1.9-2.2,2.9c-0.7,1-1.3,1.9-2,2.9l-0.1,0.1l-0.1,0.1
				c-0.1,0.4-0.2,0.8-0.3,1.2c-0.1-0.4-0.2-0.9-0.4-1.2l0-0.1l-0.1-0.1c-0.6-0.9-1.3-1.9-1.9-2.9c-0.6-1-1.3-1.9-1.9-2.9l-0.2-0.3
				h-6.4l0.8,1.1c1.2,1.8,2.4,3.6,3.7,5.4c1.2,1.8,2.4,3.5,3.5,5.3v8.6h5.7v-8.6l8.3-11.8H126z"/>
		</g>
	</g>
</g>
</svg>
