<svg xmlns="http://www.w3.org/2000/svg" width="37.625" height="37.44" viewBox="0 0 37.625 37.44">
  <metadata><?xpacket begin="﻿" id="W5M0MpCehiHzreSzNTczkc9d"?>
<x:xmpmeta xmlns:x="adobe:ns:meta/" x:xmptk="Adobe XMP Core 5.6-c138 79.159824, 2016/09/14-01:09:01        ">
   <rdf:RDF xmlns:rdf="http://www.w3.org/1999/02/22-rdf-syntax-ns#">
      <rdf:Description rdf:about=""/>
   </rdf:RDF>
</x:xmpmeta>
                                                                                                    
                                                                                                    
                                                                                                    
                                                                                                    
                                                                                                    
                                                                                                    
                                                                                                    
                                                                                                    
                                                                                                    
                                                                                                    
                                                                                                    
                                                                                                    
                                                                                                    
                                                                                                    
                                                                                                    
                                                                                                    
                                                                                                    
                                                                                                    
                                                                                                    
                                                                                                    
                           
<?xpacket end="w"?></metadata>
<defs>
    <style>
      .cls-1 {
        fill: #fff;
        fill-rule: evenodd;
      }
    </style>
  </defs>
  <path id="bad" class="cls-1" d="M915.967,1589.07a16.97,16.97,0,1,1-17.066,16.97,17.042,17.042,0,0,1,17.066-16.97m0-1.74a18.715,18.715,0,1,0,18.823,18.71A18.769,18.769,0,0,0,915.967,1587.33Zm9.7,12.63-4.953,1.79a0.873,0.873,0,1,0,.6,1.64l4.953-1.79A0.873,0.873,0,1,0,925.666,1599.96Zm-14.458,1.79-4.952-1.79a0.873,0.873,0,1,0-.6,1.64l4.952,1.79A0.873,0.873,0,1,0,911.208,1601.75Zm12.706,11.46a14.983,14.983,0,0,0-16,.07,0.864,0.864,0,0,0-.264,1.2,0.879,0.879,0,0,0,1.213.27,13.23,13.23,0,0,1,14.116-.06,0.887,0.887,0,0,0,1.211-.28,0.867,0.867,0,0,0-.275-1.2h0Z" transform="translate(-897.156 -1587.31)"/>
</svg>
