<svg xmlns="http://www.w3.org/2000/svg" width="36.719" height="37.44" viewBox="0 0 36.719 37.44">
  <metadata><?xpacket begin="﻿" id="W5M0MpCehiHzreSzNTczkc9d"?>
<x:xmpmeta xmlns:x="adobe:ns:meta/" x:xmptk="Adobe XMP Core 5.6-c138 79.159824, 2016/09/14-01:09:01        ">
   <rdf:RDF xmlns:rdf="http://www.w3.org/1999/02/22-rdf-syntax-ns#">
      <rdf:Description rdf:about=""/>
   </rdf:RDF>
</x:xmpmeta>
                                                                                                    
                                                                                                    
                                                                                                    
                                                                                                    
                                                                                                    
                                                                                                    
                                                                                                    
                                                                                                    
                                                                                                    
                                                                                                    
                                                                                                    
                                                                                                    
                                                                                                    
                                                                                                    
                                                                                                    
                                                                                                    
                                                                                                    
                                                                                                    
                                                                                                    
                                                                                                    
                           
<?xpacket end="w"?></metadata>
<defs>
    <style>
      .cls-1 {
        fill: #fff;
        fill-rule: evenodd;
      }
    </style>
  </defs>
  <path id="bot" class="cls-1" d="M681.74,1609.14h0a0.922,0.922,0,0,0-1.206.48,0.91,0.91,0,0,0,.482,1.2h0l3.214,1.37a0.914,0.914,0,1,0,.723-1.68h0Zm12.835,0-3.214,1.37h0a0.914,0.914,0,1,0,.723,1.68l3.214-1.37a0.91,0.91,0,0,0,.482-1.2,0.921,0.921,0,0,0-1.2-.48h0Zm0.408-4.92H681.215a6.845,6.845,0,1,0,0,13.69h13.768A6.845,6.845,0,1,0,694.983,1604.22Zm0,11.87H681.215a5.025,5.025,0,1,1,0-10.05h13.768A5.025,5.025,0,1,1,694.983,1616.09Zm10.562-28.76a0.916,0.916,0,0,0-.918.91v12.15c-2.12-3.65-6.688-7.59-16.528-7.59s-14.407,3.94-16.527,7.59v-12.15a0.919,0.919,0,0,0-1.837,0v27.39s0,9.13,18.364,9.13,18.364-9.13,18.364-9.13v-27.39A0.916,0.916,0,0,0,705.545,1587.33Zm-0.918,28.3c0-.01,0,0.04-0.018.13a4.044,4.044,0,0,1-.175.72,6.173,6.173,0,0,1-1.565,2.42c-2.487,2.48-7.185,4.03-14.77,4.03s-12.283-1.55-14.77-4.03a6.185,6.185,0,0,1-1.565-2.42,4.226,4.226,0,0,1-.175-0.72c-0.014-.09-0.017-0.14-0.017-0.13v-9.13s0.007-.2.027-0.42a10.715,10.715,0,0,1,.216-1.32,11.943,11.943,0,0,1,1.744-4.09c2.518-3.76,7.1-6.04,14.54-6.04s12.023,2.28,14.541,6.04a11.962,11.962,0,0,1,1.744,4.09,10.891,10.891,0,0,1,.215,1.32c0.021,0.23.028,0.37,0.028,0.42v9.13Z" transform="translate(-669.75 -1587.31)"/>
</svg>
