<svg id="SvgjsSvg1099" xmlns="http://www.w3.org/2000/svg" version="1.1" xmlns:xlink="http://www.w3.org/1999/xlink" xmlns:svgjs="http://svgjs.com/svgjs" width="27" height="26" viewBox="0 0 27 26"><title>Shape 12</title><desc>Created with Avocode.</desc><defs id="SvgjsDefs1100"></defs><path id="SvgjsPath1101" d="M387 5950C387 5942.82 381.179 5937 374 5937C366.82 5937 360.999 5942.82 360.999 5950C360.999 5957.18 366.82000000000005 5963 374 5963C381.179 5963 387 5957.18 387 5950C387 5942.82 387 5950 387 5950ZM374 5939.99C379.53 5939.99 384.012 5944.469999999999 384.012 5950C384.012 5955.53 379.53 5960.01 374 5960.01C368.47 5960.01 363.987 5955.530000000001 363.987 5950C363.987 5944.47 368.47 5939.99 374 5939.99C374 5939.99 368.47 5939.99 374 5939.99Z " fill="#808080" fill-opacity="1" transform="matrix(1,0,0,1,-360,-5937)"></path><path id="SvgjsPath1102" d="M374 5953.92C371.836 5953.92 370.081 5952.16 370.081 5950C370.081 5947.84 371.836 5946.08 374 5946.08C376.164 5946.08 377.918 5947.84 377.918 5950C377.918 5952.16 376.164 5953.92 374 5953.92C371.835 5953.92 374 5953.92 374 5953.92ZM374 5943.01C370.14 5943.01 367.012 5946.14 367.012 5950C367.012 5953.86 370.14 5956.99 374 5956.99C377.859 5956.99 380.988 5953.86 380.988 5950C380.988 5946.14 377.859 5943.01 374 5943.01C370.14 5943.01 374 5943.01 374 5943.01Z " fill="#808080" fill-opacity="1" transform="matrix(1,0,0,1,-360,-5937)"></path></svg>