<svg xmlns="http://www.w3.org/2000/svg" width="37.625" height="37.44" viewBox="0 0 37.625 37.44">
  <metadata><?xpacket begin="﻿" id="W5M0MpCehiHzreSzNTczkc9d"?>
<x:xmpmeta xmlns:x="adobe:ns:meta/" x:xmptk="Adobe XMP Core 5.6-c138 79.159824, 2016/09/14-01:09:01        ">
   <rdf:RDF xmlns:rdf="http://www.w3.org/1999/02/22-rdf-syntax-ns#">
      <rdf:Description rdf:about=""/>
   </rdf:RDF>
</x:xmpmeta>
                                                                                                    
                                                                                                    
                                                                                                    
                                                                                                    
                                                                                                    
                                                                                                    
                                                                                                    
                                                                                                    
                                                                                                    
                                                                                                    
                                                                                                    
                                                                                                    
                                                                                                    
                                                                                                    
                                                                                                    
                                                                                                    
                                                                                                    
                                                                                                    
                                                                                                    
                                                                                                    
                           
<?xpacket end="w"?></metadata>
<defs>
    <style>
      .cls-1 {
        fill: #fff;
        fill-rule: evenodd;
      }
    </style>
  </defs>
  <path id="favourite" class="cls-1" d="M858.808,1589.07a0.787,0.787,0,0,1,.741.6l0.007,0.02,3.235,10.43a1.753,1.753,0,0,0,1.679,1.24h10.6a0.778,0.778,0,0,1,.741.59,0.971,0.971,0,0,1-.268,1.06l-8.573,6.48a1.739,1.739,0,0,0-.616,1.91l3.231,10.41a1.013,1.013,0,0,1-.214,1.01,1.123,1.123,0,0,1-.609.19,0.49,0.49,0,0,1-.328-0.09l-0.066-.06-8.573-6.47a1.749,1.749,0,0,0-2.126,0l-8.575,6.48a0.706,0.706,0,0,1-.431.14,0.672,0.672,0,0,1-.433-0.15,0.833,0.833,0,0,1-.3-0.95c0.01-.03.02-0.05,0.029-0.08l3.236-10.43a1.737,1.737,0,0,0-.61-1.9l-8.5-6.49a0.833,0.833,0,0,1-.3-0.95,0.889,0.889,0,0,0,.036-0.11,0.778,0.778,0,0,1,.741-0.59h10.6a1.752,1.752,0,0,0,1.678-1.24l3.236-10.43,0.006-.02a0.787,0.787,0,0,1,.741-0.6m0-1.74a2.529,2.529,0,0,0-2.426,1.85l-3.235,10.43h-10.6a2.541,2.541,0,0,0-2.426,1.85,2.567,2.567,0,0,0,.889,2.94l8.493,6.48-3.235,10.43a2.58,2.58,0,0,0,.89,2.95,2.488,2.488,0,0,0,2.992,0l8.573-6.48,8.573,6.47a2.193,2.193,0,0,0,1.457.51,3,3,0,0,0,1.615-.51,2.693,2.693,0,0,0,.891-2.94l-3.236-10.43,8.574-6.48a2.692,2.692,0,0,0,.89-2.94,2.541,2.541,0,0,0-2.426-1.85h-10.6l-3.235-10.43A2.529,2.529,0,0,0,858.808,1587.33Z" transform="translate(-839.969 -1587.31)"/>
</svg>
