<svg id="SvgjsSvg1081" xmlns="http://www.w3.org/2000/svg" version="1.1" xmlns:xlink="http://www.w3.org/1999/xlink" xmlns:svgjs="http://svgjs.com/svgjs" width="50" height="50" viewBox="0 0 50 50"><title>FB</title><desc>Created with Avocode.</desc><defs id="SvgjsDefs1082"></defs><path id="SvgjsPath1083" d="M892.215 3731.02L847.774 3731.02C846.256 3731.02 845.017 3732.25 845.017 3733.77L845.017 3778.22C845.017 3779.74 846.2560000000001 3780.98 847.774 3780.98L871.698 3780.98L871.698 3761.63L865.186 3761.63L865.186 3754.09L871.698 3754.09L871.698 3748.52C871.698 3742.08 875.639 3738.56 881.398 3738.56C884.158 3738.56 886.5210000000001 3738.77 887.215 3738.86L887.215 3745.6L883.219 3745.6C880.0870000000001 3745.6 879.4860000000001 3747.0899999999997 879.4860000000001 3749.27L879.4860000000001 3754.09L886.9530000000001 3754.09L885.9780000000001 3761.6200000000003L879.4860000000001 3761.6200000000003L879.4860000000001 3780.9800000000005L892.2150000000001 3780.9800000000005C893.7360000000001 3780.9800000000005 894.9750000000001 3779.7400000000007 894.9750000000001 3778.2200000000003L894.9750000000001 3733.7700000000004C894.9750000000001 3732.2500000000005 893.7360000000001 3731.0200000000004 892.2150000000001 3731.0200000000004Z " fill="#808080" fill-opacity="1" transform="matrix(1,0,0,1,-845,-3731)"></path></svg>