<svg id="SvgjsSvg1023" xmlns="http://www.w3.org/2000/svg" version="1.1" xmlns:xlink="http://www.w3.org/1999/xlink" xmlns:svgjs="http://svgjs.com/svgjs" width="32" height="31" viewBox="0 0 32 31"><title>Google+ copy</title><desc>Created with Avocode.</desc><defs id="SvgjsDefs1024"></defs><path id="SvgjsPath1025" d="M880.87 1595.14C881.23 1595 881.625 1595.0200000000002 882.003 1595C890.773 1595.01 899.542 1595 908.312 1595.01C909.285 1594.89 910.166 1595.77 910.051 1596.74C910.071 1605.57 910.0590000000001 1614.4 910.0590000000001 1623.23C910.171 1624.21 909.2930000000001 1625.09 908.3120000000001 1624.99C899.4600000000002 1625 890.6050000000001 1625 881.7530000000002 1624.99C880.7720000000002 1625.09 879.8940000000001 1624.21 880.0060000000002 1623.23C880.0060000000002 1614.4 879.9910000000002 1605.57 880.0140000000002 1596.74C879.9590000000003 1596.09 880.3070000000002 1595.46 880.8700000000002 1595.14ZM886.796 1609.99C886.7510000000001 1612.17 888.258 1614.25 890.33 1614.93C892.282 1615.5800000000002 894.682 1615.0900000000001 895.981 1613.43C896.929 1612.26 897.145 1610.7 897.042 1609.25C895.37 1609.23 893.698 1609.24 892.029 1609.24C892.027 1609.83 892.029 1610.42 892.032 1611.02C893.033 1611.05 894.034 1611.03 895.0350000000001 1611.05C894.782 1611.9199999999998 894.2070000000001 1612.72 893.3330000000001 1613.03C891.6460000000001 1613.77 889.494 1612.81 888.9630000000001 1611.04C888.3230000000001 1609.35 889.3710000000001 1607.31 891.1030000000001 1606.82C892.177 1606.4399999999998 893.283 1606.87 894.2020000000001 1607.4199999999998C894.6670000000001 1606.9899999999998 895.1030000000001 1606.5199999999998 895.5300000000001 1606.06C894.4870000000001 1605.1799999999998 893.1450000000001 1604.6499999999999 891.7660000000001 1604.77C889.061 1604.8 886.6930000000001 1607.29 886.796 1609.99ZM900.295 1607.74C900.2909999999999 1608.24 900.286 1608.74 900.283 1609.23C899.783 1609.24 899.285 1609.24 898.7860000000001 1609.24C898.7860000000001 1609.74 898.7860000000001 1610.23 898.7860000000001 1610.73C899.2850000000001 1610.73 899.7850000000001 1610.74 900.283 1610.74C900.288 1611.24 900.288 1611.73 900.293 1612.23C900.789 1612.23 901.287 1612.23 901.785 1612.23C901.7869999999999 1611.73 901.79 1611.24 901.795 1610.74C902.293 1610.74 902.793 1610.73 903.2909999999999 1610.73C903.2909999999999 1610.23 903.2909999999999 1609.74 903.2909999999999 1609.24C902.7929999999999 1609.24 902.2929999999999 1609.24 901.795 1609.23C901.7919999999999 1608.74 901.7869999999999 1608.24 901.785 1607.74C901.2869999999999 1607.74 900.7909999999999 1607.74 900.295 1607.74Z " fill="#ffffff" fill-opacity="1" transform="matrix(1,0,0,1,-879,-1594)"></path></svg>