<svg id="SvgjsSvg1087" xmlns="http://www.w3.org/2000/svg" version="1.1" xmlns:xlink="http://www.w3.org/1999/xlink" xmlns:svgjs="http://svgjs.com/svgjs" width="50" height="51" viewBox="0 0 50 51"><title>Google+</title><desc>Created with Avocode.</desc><defs id="SvgjsDefs1088"></defs><path id="SvgjsPath1089" d="M1029.45 3731.24C1030.05 3731 1030.71 3731.0299999999997 1031.3400000000001 3731.0099999999998C1045.92 3731.02 1060.5000000000002 3731.0099999999998 1075.0800000000002 3731.02C1076.7 3730.82 1078.16 3732.29 1077.9700000000003 3733.9C1078.0000000000002 3748.62 1077.9800000000002 3763.34 1077.9800000000002 3778.06C1078.1700000000003 3779.69 1076.7100000000003 3781.15 1075.0800000000002 3780.99C1060.3600000000001 3780.99 1045.64 3780.99 1030.92 3780.99C1029.29 3781.1499999999996 1027.8300000000002 3779.6899999999996 1028.02 3778.0499999999997C1028.02 3763.3399999999997 1027.99 3748.62 1028.03 3733.8999999999996C1027.94 3732.8199999999997 1028.51 3731.7699999999995 1029.45 3731.24ZM1039.3 3755.98C1039.23 3759.61 1041.73 3763.08 1045.18 3764.21C1048.43 3765.31 1052.42 3764.4900000000002 1054.5800000000002 3761.71C1056.15 3759.76 1056.5100000000002 3757.17 1056.3400000000001 3754.7400000000002C1053.5600000000002 3754.7200000000003 1050.7800000000002 3754.73 1048.0100000000002 3754.73C1048.0000000000002 3755.72 1048.0100000000002 3756.71 1048.0100000000002 3757.7C1049.6700000000003 3757.74 1051.3400000000001 3757.72 1053.0000000000002 3757.75C1052.5800000000002 3759.19 1051.6300000000003 3760.53 1050.1700000000003 3761.05C1047.3700000000003 3762.29 1043.7900000000002 3760.67 1042.9100000000003 3757.73C1041.8400000000004 3754.92 1043.5900000000004 3751.52 1046.4700000000003 3750.7C1048.2500000000002 3750.0699999999997 1050.0900000000001 3750.7799999999997 1051.6200000000003 3751.71C1052.3900000000003 3750.98 1053.1200000000003 3750.21 1053.8300000000004 3749.43C1052.0900000000004 3747.97 1049.8600000000004 3747.08 1047.5700000000004 3747.2799999999997C1043.0700000000004 3747.33 1039.1300000000003 3751.4799999999996 1039.3000000000004 3755.9799999999996ZM1061.75 3752.23C1061.74 3753.06 1061.73 3753.89 1061.73 3754.72C1060.9 3754.73 1060.07 3754.73 1059.24 3754.74C1059.24 3755.5699999999997 1059.24 3756.39 1059.24 3757.22C1060.07 3757.22 1060.9 3757.23 1061.73 3757.23C1061.74 3758.06 1061.74 3758.89 1061.75 3759.72C1062.57 3759.72 1063.4 3759.72 1064.23 3759.72C1064.23 3758.89 1064.23 3758.06 1064.24 3757.23C1065.07 3757.23 1065.9 3757.22 1066.73 3757.22C1066.73 3756.39 1066.73 3755.5699999999997 1066.73 3754.74C1065.9 3754.7299999999996 1065.07 3754.7299999999996 1064.24 3754.72C1064.24 3753.89 1064.23 3753.06 1064.23 3752.23C1063.4 3752.23 1062.57 3752.23 1061.75 3752.23Z " fill="#808080" fill-opacity="1" transform="matrix(1,0,0,1,-1028,-3731)"></path></svg>