<svg xmlns="http://www.w3.org/2000/svg" width="24" height="24" viewBox="0 0 24 24">
  <metadata><?xpacket begin="﻿" id="W5M0MpCehiHzreSzNTczkc9d"?>
<x:xmpmeta xmlns:x="adobe:ns:meta/" x:xmptk="Adobe XMP Core 5.6-c138 79.159824, 2016/09/14-01:09:01        ">
   <rdf:RDF xmlns:rdf="http://www.w3.org/1999/02/22-rdf-syntax-ns#">
      <rdf:Description rdf:about=""/>
   </rdf:RDF>
</x:xmpmeta>
                                                                                                    
                                                                                                    
                                                                                                    
                                                                                                    
                                                                                                    
                                                                                                    
                                                                                                    
                                                                                                    
                                                                                                    
                                                                                                    
                                                                                                    
                                                                                                    
                                                                                                    
                                                                                                    
                                                                                                    
                                                                                                    
                                                                                                    
                                                                                                    
                                                                                                    
                                                                                                    
                           
<?xpacket end="w"?></metadata>
<defs>
    <style>
      .cls-1 {
        fill: gray;
        fill-rule: evenodd;
      }
    </style>
  </defs>
  <path class="cls-1" d="M914,5939.16c3.2,0,3.584.01,4.849,0.07a6.616,6.616,0,0,1,2.228.42,3.609,3.609,0,0,1,1.38.89,3.724,3.724,0,0,1,.9,1.38,6.722,6.722,0,0,1,.413,2.23c0.058,1.27.07,1.65,0.07,4.85s-0.012,3.58-.07,4.85a6.722,6.722,0,0,1-.413,2.23,3.724,3.724,0,0,1-.9,1.38,3.609,3.609,0,0,1-1.38.89,6.616,6.616,0,0,1-2.228.42c-1.265.06-1.645,0.07-4.849,0.07s-3.584-.01-4.849-0.07a6.616,6.616,0,0,1-2.228-.42,3.609,3.609,0,0,1-1.38-.89,3.724,3.724,0,0,1-.9-1.38,6.7,6.7,0,0,1-.413-2.23c-0.058-1.27-.07-1.65-0.07-4.85s0.012-3.58.07-4.85a6.7,6.7,0,0,1,.413-2.23,3.724,3.724,0,0,1,.9-1.38,3.609,3.609,0,0,1,1.38-.89,6.616,6.616,0,0,1,2.228-.42c1.265-.06,1.645-0.07,4.849-0.07m0-2.16c-3.259,0-3.668.01-4.948,0.07a8.754,8.754,0,0,0-2.912.56,6,6,0,0,0-2.126,1.38,5.921,5.921,0,0,0-1.384,2.13,8.819,8.819,0,0,0-.558,2.91c-0.058,1.28-.072,1.69-0.072,4.95s0.014,3.67.072,4.95a8.819,8.819,0,0,0,.558,2.91,5.921,5.921,0,0,0,1.384,2.13,6,6,0,0,0,2.126,1.38,8.754,8.754,0,0,0,2.912.56c1.28,0.06,1.689.07,4.948,0.07s3.668-.01,4.948-0.07a8.766,8.766,0,0,0,2.913-.56,6.008,6.008,0,0,0,2.125-1.38,5.921,5.921,0,0,0,1.384-2.13,8.819,8.819,0,0,0,.558-2.91c0.058-1.28.072-1.69,0.072-4.95s-0.014-3.67-.072-4.95a8.819,8.819,0,0,0-.558-2.91,5.921,5.921,0,0,0-1.384-2.13,6.008,6.008,0,0,0-2.125-1.38,8.766,8.766,0,0,0-2.913-.56c-1.28-.06-1.689-0.07-4.948-0.07h0Zm0,5.84a6.16,6.16,0,1,0,6.162,6.16A6.162,6.162,0,0,0,914,5942.84Zm0,10.16a4,4,0,1,1,4-4A4,4,0,0,1,914,5953Zm7.846-10.41a1.44,1.44,0,1,1-1.44-1.44A1.437,1.437,0,0,1,921.846,5942.59Z" transform="translate(-902 -5937)"/>
</svg>
