<svg id="SvgjsSvg1045" xmlns="http://www.w3.org/2000/svg" version="1.1" xmlns:xlink="http://www.w3.org/1999/xlink" xmlns:svgjs="http://svgjs.com/svgjs" width="90" height="75" viewBox="0 0 90 75"><title>Shape 15</title><desc>Created with Avocode.</desc><defs id="SvgjsDefs1046"></defs><path id="SvgjsPath1047" d="M543.007 1327.16C541.9599999999999 1328.24 541.1339999999999 1329.0900000000001 539.3829999999999 1329.0900000000001C537.632 1329.0900000000001 536.805 1328.2400000000002 535.7589999999999 1327.16C534.622 1325.99 533.3319999999999 1324.66 530.7829999999999 1324.66C528.7929999999999 1324.66 527.574 1325.47 526.5929999999998 1326.38C526.6049999999998 1326.0900000000001 526.6199999999999 1325.7900000000002 526.6199999999999 1325.5C526.6199999999999 1313.09 516.4999999999999 1302.99 504.0599999999999 1302.99C491.7489999999999 1302.99 481.7149999999999 1312.88 481.5089999999999 1325.11C480.8639999999999 1324.83 480.1099999999999 1324.6599999999999 479.1859999999999 1324.6599999999999C476.6379999999999 1324.6599999999999 475.3479999999999 1325.9899999999998 474.2109999999999 1327.1599999999999C473.1639999999999 1328.2399999999998 472.3389999999999 1329.09 470.5869999999999 1329.09C468.83499999999987 1329.09 468.0089999999999 1328.24 466.96299999999985 1327.1599999999999C465.82599999999985 1325.9899999999998 464.53699999999986 1324.6599999999999 461.98799999999983 1324.6599999999999C461.21599999999984 1324.6599999999999 460.57099999999986 1324.79 459.99999999999983 1324.9899999999998C460.1709999999998 1325.5899999999997 460.3519999999998 1326.1899999999998 460.54699999999985 1326.7899999999997C460.95799999999986 1326.6299999999997 461.4209999999999 1326.5299999999997 461.98699999999985 1326.5299999999997C463.73899999999986 1326.5299999999997 464.5649999999998 1327.3899999999996 465.6109999999999 1328.4599999999998C466.7479999999999 1329.6399999999999 468.0379999999999 1330.9699999999998 470.5869999999999 1330.9699999999998C473.13599999999985 1330.9699999999998 474.4249999999999 1329.6399999999999 475.5629999999999 1328.4599999999998C476.6099999999999 1327.3899999999999 477.43599999999986 1326.5299999999997 479.1869999999999 1326.5299999999997C480.2359999999999 1326.5299999999997 480.9499999999999 1326.8399999999997 481.5809999999999 1327.3199999999997C482.5159999999999 1338.8799999999997 492.2379999999999 1347.9999999999998 504.0609999999999 1347.9999999999998C505.2899999999999 1347.9999999999998 506.4959999999999 1347.8999999999999 507.6719999999999 1347.7099999999998L517.8809999999999 1373.4899999999998C518.8199999999998 1375.6799999999998 520.9609999999999 1376.9899999999998 523.2079999999999 1376.9899999999998C523.9659999999999 1376.9899999999998 524.7369999999999 1376.8399999999997 525.4769999999999 1376.5299999999997C528.4089999999999 1375.2799999999997 529.7719999999998 1371.8799999999997 528.5049999999999 1368.9299999999998L516.9309999999999 1343.9699999999998C521.7829999999999 1340.5899999999997 525.2429999999999 1335.36 526.2869999999999 1329.3199999999997C526.5959999999999 1329.0399999999997 526.886 1328.7499999999998 527.1619999999999 1328.4699999999998C528.208 1327.3899999999999 529.035 1326.5299999999997 530.7839999999999 1326.5299999999997C532.5359999999998 1326.5299999999997 533.3619999999999 1327.3899999999996 534.4079999999999 1328.4699999999998C535.5449999999998 1329.6399999999999 536.8349999999999 1330.9699999999998 539.3839999999999 1330.9699999999998C541.9329999999999 1330.9699999999998 543.2219999999999 1329.6399999999999 544.3599999999999 1328.4699999999998C545.4069999999999 1327.3899999999999 546.2339999999999 1326.5299999999997 547.9849999999999 1326.5299999999997C548.5629999999999 1326.5299999999997 549.0339999999999 1326.6299999999997 549.4519999999999 1326.7999999999997C549.6469999999999 1326.1999999999998 549.8279999999999 1325.5999999999997 549.9999999999999 1324.9999999999998C549.4219999999999 1324.7899999999997 548.7689999999999 1324.6599999999999 547.9849999999999 1324.6599999999999C545.4339999999999 1324.6599999999999 544.1439999999999 1325.9899999999998 543.007 1327.1599999999999ZM504.06 1304.87C513.701 1304.87 521.821 1311.4799999999998 524.101 1320.3999999999999C523.033 1320.08 521.892 1319.9099999999999 520.634 1319.9099999999999C516.384 1319.9099999999999 514.167 1321.7299999999998 512.211 1323.34C510.333 1324.8899999999999 508.558 1326.34 504.98400000000004 1326.34C501.408 1326.34 499.63500000000005 1324.8899999999999 497.75600000000003 1323.34C495.8 1321.73 493.583 1319.9099999999999 489.33200000000005 1319.9099999999999C486.94200000000006 1319.9099999999999 485.22300000000007 1320.4799999999998 483.82200000000006 1321.2499999999998C485.78900000000004 1311.9099999999999 494.11500000000007 1304.8699999999997 504.06000000000006 1304.8699999999997ZM516.938 1348.45L526.788 1369.69C527.635 1371.66 526.715 1373.96 524.736 1374.81C522.755 1375.6499999999999 520.455 1374.73 519.617 1372.78L510.90899999999993 1350.79ZM509.54 1347.33C511.596 1346.81 513.54 1346.02 515.33 1344.98L516.147 1346.74L510.21900000000005 1349.04ZM504.06 1346.13C492.657 1346.13 483.379 1336.8700000000001 483.379 1325.5C483.379 1324.9 483.41 1324.3 483.461 1323.72C485.047 1322.55 486.704 1321.78 489.331 1321.78C492.90700000000004 1321.78 494.68100000000004 1323.24 496.56 1324.79C498.516 1326.3899999999999 500.733 1328.22 504.984 1328.22C509.23499999999996 1328.22 511.45099999999996 1326.39 513.4069999999999 1324.79C515.285 1323.24 517.06 1321.78 520.6339999999999 1321.78C522.1209999999999 1321.78 523.3649999999999 1322.04 524.526 1322.55C524.665 1323.51 524.74 1324.49 524.74 1325.5C524.741 1336.87 515.464 1346.13 504.06 1346.13Z " fill="#ffffff" fill-opacity="1" transform="matrix(1,0,0,1,-460,-1302)"></path></svg>