<svg id="SvgjsSvg1032" xmlns="http://www.w3.org/2000/svg" version="1.1" xmlns:xlink="http://www.w3.org/1999/xlink" xmlns:svgjs="http://svgjs.com/svgjs" width="93.10863853680075" height="82.13507901734556" viewBox="0 0 93.10863853680075 82.13507901734556"><title>Shape 5</title><desc>Created with Avocode.</desc><defs id="SvgjsDefs1033"></defs><path id="SvgjsPath1034" d="M539.711 1327.7L549.8000000000001 1321.21L541.7090000000001 1316.82L549.9000000000001 1311.54L502.7510000000001 1289.99L459.9980000000001 1314.13L469.1880000000001 1318.5200000000002L459.9980000000001 1323.7100000000003L470.6860000000001 1328.8000000000002L459.9980000000001 1335.0800000000002L470.7860000000001 1340.2700000000002L459.9980000000001 1346.4500000000003L509.1440000000001 1369.8900000000003L509.3440000000001 1369.9900000000002L549.9000000000001 1343.9600000000003L540.1100000000001 1338.9700000000003L550.0000000000001 1332.6900000000003ZM502.751 1291.09L547.9019999999999 1311.74L531.6199999999999 1322.21C530.3209999999999 1323.1100000000001 528.8229999999999 1323.6100000000001 527.2249999999999 1323.91C526.925 1324.01 526.6249999999999 1324.01 526.3249999999999 1324.01C525.4259999999999 1324.01 524.4279999999999 1323.71 523.6279999999999 1323.21L504.5489999999999 1311.04L486.1689999999999 1323.31C485.6699999999999 1323.61 485.1699999999999 1323.81 484.67099999999994 1323.9099999999999L483.77199999999993 1323.9099999999999C482.5729999999999 1323.7099999999998 481.47399999999993 1323.4099999999999 480.37499999999994 1322.9099999999999L462.0949999999999 1314.0299999999997ZM471.785 1329.29L509.144 1347.1499999999999L509.344 1347.2499999999998L538.812 1328.2999999999997L547.902 1332.6899999999998L509.244 1357.5299999999997L461.995 1334.9799999999998ZM470.286 1319.02L479.976 1323.71C481.075 1324.21 482.373 1324.6100000000001 483.572 1324.8C483.572 1324.8 483.572 1324.8 483.672 1324.8C483.971 1324.8 484.271 1324.8 484.67100000000005 1324.8L526.325 1325L526.4250000000001 1325C526.725 1325 527.0250000000001 1325 527.4240000000001 1324.9C529.1220000000001 1324.6100000000001 530.7210000000001 1323.91 532.1190000000001 1323.01L540.8100000000002 1317.42L548.0020000000002 1321.21L509.2440000000002 1346.15L462.0950000000002 1323.6100000000001ZM487.068 1323.81L504.649 1312.1399999999999L523.129 1324.0099999999998ZM548.002 1344.06L509.24399999999997 1368.8999999999999L461.99499999999995 1346.35L471.78499999999997 1340.77L509.044 1358.52L509.24399999999997 1358.62L539.012 1339.4699999999998Z " fill="#ffffff" fill-opacity="1" transform="matrix(1,0,0,1,-457.9456807315996,-1288.4324604913272)"></path><path id="SvgjsPath1035" d="M539.711 1327.7L549.8000000000001 1321.21L541.7090000000001 1316.82L549.9000000000001 1311.54L502.7510000000001 1289.99L459.9980000000001 1314.13L469.1880000000001 1318.5200000000002L459.9980000000001 1323.7100000000003L470.6860000000001 1328.8000000000002L459.9980000000001 1335.0800000000002L470.7860000000001 1340.2700000000002L459.9980000000001 1346.4500000000003L509.1440000000001 1369.8900000000003L509.3440000000001 1369.9900000000002L549.9000000000001 1343.9600000000003L540.1100000000001 1338.9700000000003L550.0000000000001 1332.6900000000003ZM502.751 1291.09L547.9019999999999 1311.74L531.6199999999999 1322.21C530.3209999999999 1323.1100000000001 528.8229999999999 1323.6100000000001 527.2249999999999 1323.91C526.925 1324.01 526.6249999999999 1324.01 526.3249999999999 1324.01C525.4259999999999 1324.01 524.4279999999999 1323.71 523.6279999999999 1323.21L504.5489999999999 1311.04L486.1689999999999 1323.31C485.6699999999999 1323.61 485.1699999999999 1323.81 484.67099999999994 1323.9099999999999L483.77199999999993 1323.9099999999999C482.5729999999999 1323.7099999999998 481.47399999999993 1323.4099999999999 480.37499999999994 1322.9099999999999L462.0949999999999 1314.0299999999997ZM471.785 1329.29L509.144 1347.1499999999999L509.344 1347.2499999999998L538.812 1328.2999999999997L547.902 1332.6899999999998L509.244 1357.5299999999997L461.995 1334.9799999999998ZM470.286 1319.02L479.976 1323.71C481.075 1324.21 482.373 1324.6100000000001 483.572 1324.8C483.572 1324.8 483.572 1324.8 483.672 1324.8C483.971 1324.8 484.271 1324.8 484.67100000000005 1324.8L526.325 1325L526.4250000000001 1325C526.725 1325 527.0250000000001 1325 527.4240000000001 1324.9C529.1220000000001 1324.6100000000001 530.7210000000001 1323.91 532.1190000000001 1323.01L540.8100000000002 1317.42L548.0020000000002 1321.21L509.2440000000002 1346.15L462.0950000000002 1323.6100000000001ZM487.068 1323.81L504.649 1312.1399999999999L523.129 1324.0099999999998ZM548.002 1344.06L509.24399999999997 1368.8999999999999L461.99499999999995 1346.35L471.78499999999997 1340.77L509.044 1358.52L509.24399999999997 1358.62L539.012 1339.4699999999998Z " fill-opacity="0" fill="#ffffff" stroke-dasharray="0" stroke-linejoin="miter" stroke-linecap="butt" stroke-opacity="1" stroke="#ffffff" stroke-miterlimit="50" stroke-width="1" transform="matrix(1,0,0,1,-457.9456807315996,-1288.4324604913272)"></path></svg>