<svg id="SvgjsSvg1051" xmlns="http://www.w3.org/2000/svg" version="1.1" xmlns:xlink="http://www.w3.org/1999/xlink" xmlns:svgjs="http://svgjs.com/svgjs" width="40" height="30" viewBox="0 0 40 30"><title>Posts</title><desc>Created with Avocode.</desc><defs id="SvgjsDefs1052"></defs><path id="SvgjsPath1053" d="M754.001 1595.07L745.735 1595.07C743.673 1595.07 742.0020000000001 1596.74 742.0020000000001 1598.8L742.0020000000001 1607.07C742.0020000000001 1609.1299999999999 743.6730000000001 1610.8 745.735 1610.8L754.001 1610.8C756.062 1610.8 757.7339999999999 1609.1299999999999 757.7339999999999 1607.07L757.7339999999999 1598.8C757.7339999999999 1596.74 756.0619999999999 1595.07 754.001 1595.07ZM755.867 1598.8L755.867 1607.07C755.867 1608.1 755.03 1608.9299999999998 754.001 1608.9299999999998L745.735 1608.9299999999998C744.705 1608.9299999999998 743.868 1608.1 743.868 1607.07L743.868 1598.8C743.868 1597.77 744.705 1596.93 745.735 1596.93L754.001 1596.93C755.03 1596.93 755.867 1597.77 755.867 1598.8ZM781.998 1617C781.998 1616.48 781.581 1616.07 781.065 1616.07L742.9350000000001 1616.07C742.4190000000001 1616.07 742.0020000000001 1616.48 742.0020000000001 1617C742.0020000000001 1617.52 742.4190000000001 1617.93 742.9350000000001 1617.93L781.065 1617.93C781.581 1617.93 781.998 1617.52 781.998 1617ZM781.998 1596C781.998 1595.48 781.581 1595.07 781.065 1595.07L762.9330000000001 1595.07C762.4180000000001 1595.07 762.0000000000001 1595.48 762.0000000000001 1596C762.0000000000001 1596.52 762.4180000000001 1596.93 762.9330000000001 1596.93L781.065 1596.93C781.581 1596.93 781.998 1596.52 781.998 1596ZM781.998 1603C781.998 1602.48 781.581 1602.07 781.065 1602.07L762.9330000000001 1602.07C762.4180000000001 1602.07 762.0000000000001 1602.48 762.0000000000001 1603C762.0000000000001 1603.52 762.4180000000001 1603.93 762.9330000000001 1603.93L781.065 1603.93C781.581 1603.93 781.998 1603.52 781.998 1603ZM781.998 1610C781.998 1609.48 781.581 1609.07 781.065 1609.07L762.9330000000001 1609.07C762.4180000000001 1609.07 762.0000000000001 1609.48 762.0000000000001 1610C762.0000000000001 1610.52 762.4180000000001 1610.93 762.9330000000001 1610.93L781.065 1610.93C781.581 1610.93 781.998 1610.52 781.998 1610ZM781.998 1624C781.998 1623.48 781.581 1623.07 781.065 1623.07L742.9350000000001 1623.07C742.4190000000001 1623.07 742.0020000000001 1623.48 742.0020000000001 1624C742.0020000000001 1624.52 742.4190000000001 1624.93 742.9350000000001 1624.93L781.065 1624.93C781.581 1624.93 781.998 1624.52 781.998 1624Z " fill="#ffffff" fill-opacity="1" transform="matrix(1,0,0,1,-742,-1595)"></path></svg>