<svg id="SvgjsSvg1048" xmlns="http://www.w3.org/2000/svg" version="1.1" xmlns:xlink="http://www.w3.org/1999/xlink" xmlns:svgjs="http://svgjs.com/svgjs" width="40" height="40" viewBox="0 0 40 40"><title>Robot</title><desc>Created with Avocode.</desc><defs id="SvgjsDefs1049"></defs><path id="SvgjsPath1050" d="M689.314 1608.05L674.6859999999999 1608.05C670.6389999999999 1608.05 667.367 1611.32 667.367 1615.37C667.367 1619.4099999999999 670.644 1622.6799999999998 674.6859999999999 1622.6799999999998L689.314 1622.6799999999998C693.361 1622.6799999999998 696.6329999999999 1619.4099999999999 696.6329999999999 1615.37C696.6329999999999 1611.32 693.3559999999999 1608.05 689.314 1608.05ZM689.314 1620.73L674.6859999999999 1620.73C671.7209999999999 1620.73 669.3179999999999 1618.33 669.3179999999999 1615.3700000000001C669.3179999999999 1612.4 671.7179999999998 1610.0000000000002 674.6859999999999 1610.0000000000002L689.314 1610.0000000000002C692.279 1610.0000000000002 694.682 1612.4000000000003 694.682 1615.3700000000001C694.682 1618.3300000000002 692.282 1620.73 689.314 1620.73ZM685.465 1614.77C684.97 1614.99 684.741 1615.56 684.9530000000001 1616.06C685.1650000000001 1616.55 685.739 1616.78 686.234 1616.57L689.648 1615.1C690.144 1614.8899999999999 690.373 1614.32 690.1610000000001 1613.82C689.9490000000001 1613.33 689.3750000000001 1613.1 688.8800000000001 1613.31ZM675.243 1613.31C674.748 1613.1 674.1750000000001 1613.33 673.9620000000001 1613.82C673.7500000000001 1614.32 673.9800000000001 1614.8899999999999 674.4750000000001 1615.1L677.8890000000001 1616.57C678.3840000000001 1616.78 678.9580000000001 1616.55 679.1700000000001 1616.06C679.3820000000001 1615.56 679.153 1614.99 678.6580000000001 1614.77ZM700.535 1590C699.996 1590 699.56 1590.44 699.56 1590.98L699.56 1603.96C697.3069999999999 1600.06 692.4549999999999 1595.8500000000001 682 1595.8500000000001C671.545 1595.8500000000001 666.693 1600.0600000000002 664.44 1603.96L664.44 1590.98C664.44 1590.44 664.004 1590 663.465 1590C662.926 1590 662.489 1590.44 662.489 1590.98L662.489 1620.24C662.489 1620.24 662.489 1630 682 1630C701.511 1630 701.511 1620.24 701.511 1620.24L701.511 1590.98C701.511 1590.44 701.074 1590 700.535 1590ZM699.56 1620.24C699.56 1620.23 699.5559999999999 1620.28 699.5409999999999 1620.39C699.51 1620.6100000000001 699.4499999999999 1620.8700000000001 699.3549999999999 1621.15C699.0669999999999 1622.02 698.5389999999999 1622.9 697.6919999999999 1623.74C695.0499999999998 1626.38 690.0579999999999 1628.05 681.9999999999999 1628.05C673.9419999999999 1628.05 668.9499999999999 1626.3799999999999 666.3079999999999 1623.74C665.4609999999999 1622.9 664.9329999999999 1622.02 664.6449999999999 1621.15C664.5499999999998 1620.8700000000001 664.4899999999999 1620.6100000000001 664.4589999999998 1620.39C664.4439999999998 1620.2800000000002 664.4399999999998 1620.23 664.4399999999998 1620.24L664.4399999999998 1610.49C664.4399999999998 1610.49 664.4479999999999 1610.27 664.4699999999998 1610.04C664.5099999999998 1609.62 664.5829999999999 1609.1399999999999 664.6989999999998 1608.62C665.0299999999999 1607.1299999999999 665.6269999999998 1605.6399999999999 666.5519999999998 1604.25C669.2259999999998 1600.24 674.0969999999998 1597.8 681.9999999999998 1597.8C689.9029999999998 1597.8 694.7739999999998 1600.24 697.4489999999997 1604.25C698.3729999999997 1605.64 698.9699999999997 1607.13 699.3009999999997 1608.62C699.4169999999997 1609.1399999999999 699.4899999999997 1609.62 699.5299999999997 1610.04C699.5529999999998 1610.28 699.5599999999997 1610.43 699.5599999999997 1610.49Z " fill="#ffffff" fill-opacity="1" transform="matrix(1,0,0,1,-662,-1590)"></path></svg>