<svg id="SvgjsSvg1060" xmlns="http://www.w3.org/2000/svg" version="1.1" xmlns:xlink="http://www.w3.org/1999/xlink" xmlns:svgjs="http://svgjs.com/svgjs" width="40" height="40" viewBox="0 0 40 40"><title>Ellipse 3</title><desc>Created with Avocode.</desc><defs id="SvgjsDefs1061"><clipPath id="SvgjsClipPath1064"><path id="SvgjsPath1063" d="M1004 1590C1015.05 1590 1024 1598.95 1024 1610C1024 1621.05 1015.05 1630 1004 1630C992.954 1630 984 1621.05 984 1610C984 1598.95 992.954 1590 1004 1590Z " fill="#ffffff"></path></clipPath></defs><path id="SvgjsPath1062" d="M1004 1590C1015.05 1590 1024 1598.95 1024 1610C1024 1621.05 1015.05 1630 1004 1630C992.954 1630 984 1621.05 984 1610C984 1598.95 992.954 1590 1004 1590Z " fill-opacity="0" fill="#ffffff" stroke-dasharray="0" stroke-linejoin="miter" stroke-linecap="butt" stroke-opacity="1" stroke="#ffffff" stroke-miterlimit="50" stroke-width="3" clip-path="url(&quot;#SvgjsClipPath1064&quot;)" transform="matrix(1,0,0,1,-984,-1590)"></path><path id="SvgjsPath1065" d="M1011.43 1615.59C1007.06 1619.1999999999998 1000.9499999999999 1619.1999999999998 996.578 1615.59L994.131 1613.58L993.16 1614.9299999999998L995.606 1616.9499999999998C998.079 1618.9899999999998 1001.04 1620.0099999999998 1004 1620.0099999999998C1006.97 1620.0099999999998 1009.93 1618.9899999999998 1012.4 1616.9499999999998L1014.85 1614.9299999999998L1013.88 1613.58ZM993.424 1605.59L1000.35 1603.6399999999999L999.931 1601.9899999999998L993.003 1603.9399999999998ZM1007.66 1603.64L1014.5899999999999 1605.5900000000001L1015.0099999999999 1603.94L1008.0799999999999 1601.99Z " fill="#ffffff" fill-opacity="1" transform="matrix(1,0,0,1,-984,-1590)"></path></svg>