<svg id="SvgjsSvg1072" xmlns="http://www.w3.org/2000/svg" version="1.1" xmlns:xlink="http://www.w3.org/1999/xlink" xmlns:svgjs="http://svgjs.com/svgjs" width="40" height="40" viewBox="0 0 40 40"><title>Ellipse 3 copy 6</title><desc>Created with Avocode.</desc><defs id="SvgjsDefs1073"><clipPath id="SvgjsClipPath1076"><path id="SvgjsPath1075" d="M1084 1590C1095.05 1590 1104 1598.95 1104 1610C1104 1621.05 1095.05 1630 1084 1630C1072.95 1630 1064 1621.05 1064 1610C1064 1598.95 1072.95 1590 1084 1590Z " fill="#ffffff"></path></clipPath></defs><path id="SvgjsPath1074" d="M1084 1590C1095.05 1590 1104 1598.95 1104 1610C1104 1621.05 1095.05 1630 1084 1630C1072.95 1630 1064 1621.05 1064 1610C1064 1598.95 1072.95 1590 1084 1590Z " fill-opacity="0" fill="#ffffff" stroke-dasharray="0" stroke-linejoin="miter" stroke-linecap="butt" stroke-opacity="1" stroke="#ffffff" stroke-miterlimit="50" stroke-width="3" clip-path="url(&quot;#SvgjsClipPath1076&quot;)" transform="matrix(1,0,0,1,-1064,-1590)"></path><path id="SvgjsPath1077" d="M1073 1606L1073 1604L1080 1604L1080 1606ZM1088 1606L1088 1604L1095 1604L1095 1606ZM1074.98 1617.09L1092.89 1617L1092.94 1618.67L1075.0900000000001 1618.76Z " fill="#ffffff" fill-opacity="1" transform="matrix(1,0,0,1,-1064,-1590)"></path></svg>