<svg id="SvgjsSvg1096" xmlns="http://www.w3.org/2000/svg" version="1.1" xmlns:xlink="http://www.w3.org/1999/xlink" xmlns:svgjs="http://svgjs.com/svgjs" width="47" height="26" viewBox="0 0 47 26"><title>Logo</title><desc>Created with Avocode.</desc><defs id="SvgjsDefs1097"></defs><path id="SvgjsPath1098" d="M1557.75 5960.27C1556.37 5961.660000000001 1554.47 5962.450000000001 1552.39 5962.46L1552.38 5962.45L1534 5962.45L1532.37 5962.46L1526.34 5962.46C1522.9499999999998 5962.46 1519.86 5961.12 1517.62 5958.85L1517.61 5958.85C1515.37 5956.59 1513.99 5953.46 1513.9799999999998 5950.01L1513.9899999999998 5950.01L1513.9799999999998 5950.01C1513.9899999999998 5946.570000000001 1515.37 5943.4400000000005 1517.61 5941.17L1517.61 5941.16C1519.85 5938.889999999999 1522.9399999999998 5937.49 1526.33 5937.49L1526.33 5937.49L1531.08 5937.49C1532.6599999999999 5937.49 1533.9299999999998 5938.78 1533.9299999999998 5940.37C1533.9299999999998 5941.97 1532.6599999999999 5943.11 1531.08 5943.11L1526.33 5943.11L1526.33 5943.099999999999C1524.51 5943.11 1522.84 5944.03 1521.6399999999999 5945.249999999999L1521.6299999999999 5945.249999999999C1520.4299999999998 5946.459999999999 1519.6799999999998 5948.149999999999 1519.6799999999998 5950.009999999999L1519.6799999999998 5950.009999999999C1519.6799999999998 5951.849999999999 1520.4399999999998 5953.549999999999 1521.6499999999999 5954.7699999999995L1521.6399999999999 5954.7699999999995C1522.84 5955.999999999999 1524.4999999999998 5956.8099999999995 1526.34 5956.8099999999995L1532.36 5956.799999999999L1534.01 5956.8099999999995L1552.3799999999999 5956.799999999999L1552.3899999999999 5956.799999999999C1552.9099999999999 5956.799999999999 1553.3899999999999 5956.529999999999 1553.7299999999998 5956.179999999999C1554.0699999999997 5955.829999999999 1554.3099999999997 5955.15 1554.3099999999997 5954.61L1554.3099999999997 5954.61C1554.3099999999997 5954.07 1554.0699999999997 5953.19 1553.7199999999998 5952.839999999999C1553.3899999999999 5952.499999999999 1552.9099999999999 5952.289999999999 1552.3799999999999 5952.289999999999L1552.3799999999999 5952.289999999999L1547.4899999999998 5952.289999999999L1540.1399999999999 5952.279999999999C1538.7199999999998 5952.289999999999 1537.29 5950.8499999999985 1537.29 5949.399999999999L1537.28 5940.379999999998C1537.28 5938.9299999999985 1538.7 5937.489999999998 1540.1299999999999 5937.489999999998L1547.84 5937.489999999998C1549.4199999999998 5937.479999999998 1550.6899999999998 5938.629999999998 1550.6899999999998 5940.229999999998C1550.6899999999998 5941.819999999998 1549.4099999999999 5943.119999999998 1547.84 5943.119999999998L1542.87 5943.109999999998L1542.87 5947.159999999998L1547.4899999999998 5947.159999999998L1552.3799999999999 5947.159999999998L1552.3799999999999 5947.159999999998C1554.4699999999998 5947.159999999998 1556.37 5948.029999999998 1557.7499999999998 5949.4299999999985C1559.1299999999999 5950.829999999998 1559.9799999999998 5952.699999999999 1559.9799999999998 5954.819999999999C1559.9899999999998 5956.9299999999985 1559.1299999999999 5958.859999999999 1557.7499999999998 5960.269999999999 " fill="#808080" fill-opacity="1" transform="matrix(1,0,0,1,-1513,-5937)"></path></svg>