<svg id="SvgjsSvg1084" xmlns="http://www.w3.org/2000/svg" version="1.1" xmlns:xlink="http://www.w3.org/1999/xlink" xmlns:svgjs="http://svgjs.com/svgjs" width="50" height="50" viewBox="0 0 50 50"><title>VK</title><desc>Created with Avocode.</desc><defs id="SvgjsDefs1085"></defs><path id="SvgjsPath1086" d="M705.295 3731L670.7049999999999 3731C666.4499999999999 3731 662.9999999999999 3734.45 662.9999999999999 3738.7L662.9999999999999 3773.2999999999997C662.9999999999999 3777.5499999999997 666.4499999999999 3780.9999999999995 670.7049999999999 3780.9999999999995L705.295 3780.9999999999995C709.55 3780.9999999999995 713 3777.5499999999997 713 3773.2999999999997L713 3738.7C713 3734.45 709.55 3731 705.295 3731ZM703.495 3766L698.925 3766.07C698.925 3766.07 697.943 3766.26 696.651 3765.3700000000003C694.942 3764.2000000000003 693.3299999999999 3761.1500000000005 692.074 3761.55C690.8 3761.9500000000003 690.8399999999999 3764.69 690.8399999999999 3764.69C690.8399999999999 3764.69 690.8489999999999 3765.28 690.559 3765.59C690.2429999999999 3765.9300000000003 689.626 3766 689.626 3766L687.5799999999999 3766C687.5799999999999 3766 683.068 3766.27 679.093 3762.13C674.759 3757.62 670.9309999999999 3748.67 670.9309999999999 3748.67C670.9309999999999 3748.67 670.7099999999999 3748.08 670.9499999999999 3747.8C671.2199999999999 3747.48 671.954 3747.46 671.954 3747.46L676.843 3747.42C676.843 3747.42 677.304 3747.5 677.634 3747.7400000000002C677.905 3747.94 678.058 3748.32 678.058 3748.32C678.058 3748.32 678.848 3750.31 679.894 3752.1200000000003C681.937 3755.6500000000005 682.888 3756.4200000000005 683.582 3756.05C684.592 3755.4900000000002 684.289 3751.0600000000004 684.289 3751.0600000000004C684.289 3751.0600000000004 684.308 3749.4500000000003 683.78 3748.7300000000005C683.372 3748.1700000000005 682.602 3748.0100000000007 682.262 3747.9700000000003C681.987 3747.9300000000003 682.438 3747.2900000000004 683.0239999999999 3747.0000000000005C683.9039999999999 3746.5700000000006 685.4569999999999 3746.5500000000006 687.2929999999999 3746.5700000000006C688.7229999999998 3746.580000000001 689.1349999999999 3746.6700000000005 689.6949999999999 3746.8000000000006C691.3799999999999 3747.2100000000005 690.808 3748.7800000000007 690.808 3752.5500000000006C690.808 3753.7600000000007 690.59 3755.4600000000005 691.462 3756.0200000000004C691.836 3756.26 692.752 3756.0600000000004 695.044 3752.1700000000005C696.129 3750.3200000000006 696.944 3748.1600000000003 696.944 3748.1600000000003C696.944 3748.1600000000003 697.121 3747.7700000000004 697.3979999999999 3747.6000000000004C697.6809999999999 3747.4400000000005 698.0619999999999 3747.4900000000002 698.0619999999999 3747.4900000000002L703.2069999999999 3747.46C703.2069999999999 3747.46 704.7529999999999 3747.27 705.0039999999999 3747.9700000000003C705.2659999999998 3748.7000000000003 704.4259999999999 3750.4100000000003 702.324 3753.21C698.872 3757.81 698.4879999999999 3757.38 701.3539999999999 3760.04C704.0909999999999 3762.58 704.6589999999999 3763.82 704.752 3763.97C705.885 3765.85 703.495 3766 703.495 3766Z " fill="#808080" fill-opacity="1" transform="matrix(1,0,0,1,-663,-3731)"></path></svg>