<?xml version="1.0" encoding="utf-8"?><svg width="220" height="3056" viewBox="0 0 220 3056" xmlns="http://www.w3.org/2000/svg" xmlns:xlink="http://www.w3.org/1999/xlink"><svg id="angry_rubin" viewBox="-10 -10 160 160" style="width:135px;height:117px" width="160" height="160"><style>.aast0{fill:#e7434c}.aast1{fill:#b71b1a}.aast2{fill:#d01a1a}.aast3{fill:#e1171b}</style><path class="aast0" d="M135.5 73.1L4.5 12.8l49.6 114.4z"/><path class="aast1" d="M135.5 73.1l-50.6 7.7-30.8 46.4z"/><path class="aast2" d="M4.5 12.8l42.8 67.5 37.6.5 50.6-7.7z"/><path class="aast3" d="M54.1 127.2l-6.8-46.9L4.5 12.8z"/></svg><svg id="angry_spaceship" data-name="Слой 1" viewBox="-10 -10 190.81 116.55" width="190.81" height="116.55" y="160"><defs><style>.abcls-1{fill:#b71b1a}.abcls-2{fill:#e1171b}.abcls-3{fill:#e7434c}.abcls-4{fill:#d01a1a}</style></defs><title>Artboard 1</title><path class="abcls-1" d="M170.81 0L0 .03l122.4 96.52L170.81 0z"/><path class="abcls-2" d="M170.81 0l-55.59 10.23 7.18 86.32L170.81 0z"/><path class="abcls-3" d="M0 .03l83.1 34.86 32.12-24.66L170.81 0 0 .03z"/><path class="abcls-4" d="M122.4 96.55L83.1 34.89 0 .03l122.4 96.52z"/></svg><svg width="44.12" height="95" viewBox="-10 -10 44.12 95" id="arrow-next" y="277"><defs><style>.accls-1{fill:#e0e0e0;fill-rule:evenodd}</style></defs><path id="acarrow-next.svg" class="accls-1" d="M1799.19 2522.63l20.64-35.76.03-.05a1.22 1.22 0 0 0 .07-.17l.06-.15a1.244 1.244 0 0 0 .04-.16 1.114 1.114 0 0 0 .02-.17 1.45 1.45 0 0 0 0-.34 1.114 1.114 0 0 0-.02-.17 1.244 1.244 0 0 0-.04-.16l-.06-.15a1.22 1.22 0 0 0-.07-.17l-.03-.05-20.64-35.76a1.743 1.743 0 1 0-3.02 1.74l20.15 34.89-20.15 34.89a1.743 1.743 0 1 0 3.02 1.74z" transform="translate(-1795.94 -2448.5)"/></svg><svg width="44.13" height="95" viewBox="-10 -10 44.13 95" id="arrow-prev" y="372"><defs><style>.adcls-1{fill:#e0e0e0;fill-rule:evenodd}</style></defs><path id="adarrow-prev.svg" class="adcls-1" d="M120.81 2449.37l-20.643 35.76-.025.05c-.028.06-.052.11-.075.17s-.041.1-.057.15-.026.11-.036.16-.023.12-.029.17 0 .11 0 .17v.17c0 .06.017.11.029.17s.021.1.036.16.037.1.057.15.047.11.075.17l.025.05 20.643 35.76a1.741 1.741 0 1 0 3.016-1.74L103.685 2486l20.141-34.89a1.741 1.741 0 1 0-3.016-1.74z" transform="translate(-99.938 -2448.5)"/></svg><svg width="28.03" height="30" viewBox="-10 -10 28.03 30" id="arrow_down" y="467"><defs><style>.aecls-1{fill:#ccc;fill-rule:evenodd}</style></defs><path id="aeRounded_Rectangle_4" data-name="Rounded Rectangle 4" class="aecls-1" d="M963.7 691.765l-2.939 2.939a1.131 1.131 0 0 1-1.53 0l-2.939-2.939a1.039 1.039 0 0 1 1.469-1.469l1.239 1.235V686a1 1 0 0 1 2 0v5.531l1.235-1.235a1.039 1.039 0 0 1 1.465 1.469z" transform="translate(-956 -685)"/></svg><svg width="57.63" height="57.44" viewBox="-10 -10 57.63 57.44" id="bad_icon" y="497"><defs><style>.afcls-1{fill:#fff;fill-rule:evenodd}</style></defs><path id="afbad" class="afcls-1" d="M915.967 1589.07a16.97 16.97 0 1 1-17.066 16.97 17.042 17.042 0 0 1 17.066-16.97m0-1.74a18.715 18.715 0 1 0 18.823 18.71 18.769 18.769 0 0 0-18.823-18.71zm9.7 12.63l-4.953 1.79a.873.873 0 1 0 .6 1.64l4.953-1.79a.873.873 0 1 0-.601-1.64zm-14.458 1.79l-4.952-1.79a.873.873 0 1 0-.6 1.64l4.952 1.79a.873.873 0 1 0 .599-1.64zm12.706 11.46a14.983 14.983 0 0 0-16 .07.864.864 0 0 0-.264 1.2.879.879 0 0 0 1.213.27 13.23 13.23 0 0 1 14.116-.06.887.887 0 0 0 1.211-.28.867.867 0 0 0-.275-1.2z" transform="translate(-897.156 -1587.31)"/></svg><svg width="56.72" height="57.44" viewBox="-10 -10 56.72 57.44" id="bot_icon" y="555"><defs><style>.agcls-1{fill:#fff;fill-rule:evenodd}</style></defs><path id="agbot" class="agcls-1" d="M681.74 1609.14a.922.922 0 0 0-1.206.48.91.91 0 0 0 .482 1.2l3.214 1.37a.914.914 0 1 0 .723-1.68zm12.835 0l-3.214 1.37a.914.914 0 1 0 .723 1.68l3.214-1.37a.91.91 0 0 0 .482-1.2.921.921 0 0 0-1.2-.48zm.408-4.92h-13.768a6.845 6.845 0 1 0 0 13.69h13.768a6.845 6.845 0 1 0 0-13.69zm0 11.87h-13.768a5.025 5.025 0 1 1 0-10.05h13.768a5.025 5.025 0 1 1 0 10.05zm10.562-28.76a.916.916 0 0 0-.918.91v12.15c-2.12-3.65-6.688-7.59-16.528-7.59s-14.407 3.94-16.527 7.59v-12.15a.919.919 0 0 0-1.837 0v27.39s0 9.13 18.364 9.13 18.364-9.13 18.364-9.13v-27.39a.916.916 0 0 0-.918-.91zm-.918 28.3c0-.01 0 .04-.018.13a4.044 4.044 0 0 1-.175.72 6.173 6.173 0 0 1-1.565 2.42c-2.487 2.48-7.185 4.03-14.77 4.03s-12.283-1.55-14.77-4.03a6.185 6.185 0 0 1-1.565-2.42 4.226 4.226 0 0 1-.175-.72c-.014-.09-.017-.14-.017-.13v-9.13s.007-.2.027-.42a10.715 10.715 0 0 1 .216-1.32 11.943 11.943 0 0 1 1.744-4.09c2.518-3.76 7.1-6.04 14.54-6.04s12.023 2.28 14.541 6.04a11.962 11.962 0 0 1 1.744 4.09 10.891 10.891 0 0 1 .215 1.32c.021.23.028.37.028.42v9.13z" transform="translate(-669.75 -1587.31)"/></svg><svg id="circle-01" viewBox="-10 -10 220 220" width="220" height="220" y="613"><style>.st0{opacity:.5}.st1,.st2{fill:#2e3191}.st2{opacity:.1}.ahst3,.st4{fill:gray}.st4{fill-rule:evenodd;clip-rule:evenodd}</style><path class="ahst3" d="M124.5 98.7c-.2-.1-.4-.1-.6-.1h-8.6c-.7-4-4.1-7-8.3-7-4.7 0-8.4 3.8-8.4 8.4 0 4.6 3.8 8.4 8.4 8.4 4.2 0 7.6-3 8.3-7h7.2c7 0 12.7 5.7 12.7 12.6s-5.7 12.6-12.7 12.6h-45c-.8 0-1.4.6-1.4 1.4 0 .8.6 1.4 1.4 1.4h45c8.5 0 15.5-6.9 15.5-15.5 0-7.7-5.9-14.2-13.5-15.2zm-17.5 6.9c-3.1 0-5.6-2.5-5.6-5.6 0-3.1 2.5-5.6 5.6-5.6s5.6 2.5 5.6 5.6c.1 3.1-2.5 5.6-5.6 5.6zm-17.4-4.2l-10.3 10.2c-.5.5-.5 1.4 0 2 .3.3.6.4 1 .4s.7-.1 1-.4L94 101c.1-.1.2-.3.3-.5.1-.3.1-.7 0-1.1-.1-.2-.2-.3-.3-.5L81.3 86.4c-.5-.5-1.4-.5-2 0-.5.5-.5 1.4 0 2l10.3 10.3H77.5c-7 0-12.7-5.7-12.7-12.6 0-7 5.7-12.6 12.7-12.6h45c.8 0 1.4-.6 1.4-1.4 0-.8-.6-1.4-1.4-1.4h-45C68.9 70.5 62 77.4 62 86s6.9 15.5 15.5 15.5h12.1zM69.3 8c.2 0 .4 0 .5-.1C73.5 6.7 77.3 5.7 81 5c1.3-.3 1.7-2 .6-2.7-.7-.5-1.6-.2-2.4 0C75.8 3 72.4 3.9 69 5c.1-.1 0 0-.1 0-.8.3-1.2 1.1-1 1.9.2.6.8 1 1.4 1.1zm23.1-4.6h.4c1.9-.1 3.7-.2 5.6-.2 3 0 6.1 0 9.1.3.4 0 .8.1 1.2 0 .6-.2 1.1-.7 1.1-1.3.1-.6-.3-1.2-.8-1.5-.4-.2-.9-.2-1.3-.2C103.8.1 99.9 0 96 .1c-1.2 0-2.4.1-3.6.2-.9.1-1.5.8-1.4 1.7 0 .4.2.8.5 1 .3.3.6.3.9.4zM48.8 17.7c.7-.3 1.4-.8 2.1-1.2 1.5-.9 3-1.7 4.6-2.5 1.2-.6 2.4-1.2 3.5-1.7 1-.4 1.2-1.8.4-2.5-.9-.8-1.9-.2-2.8.3-1.5.7-3 1.5-4.5 2.3-.7.4-1.5.8-2.2 1.2-.4.2-.7.4-1.1.7-.1.1-1.1.6-1.1.7-.3.2-.7.4-1 .8-.3.5-.3 1.1 0 1.6.5.7 1.3.6 2.1.3zM30.7 32.2c.2-.1.3-.3.5-.4.7-.7 1.4-1.4 2.1-2 1.4-1.3 2.8-2.6 4.3-3.8l1.8-1.5c.8-.6.7-1.8-.1-2.4-.6-.4-1.3-.4-1.9 0-3 2.4-5.9 5-8.6 7.7-.5.5-.9 1-.7 1.7.1.5.5 1 1 1.1.7.2 1.2 0 1.6-.4zM15.2 51.4c.6 0 1.1-.3 1.4-.7 2-3.3 4.2-6.6 6.5-9.6.5-.6.4-1.6-.2-2.1-.7-.6-1.7-.4-2.2.2-2.4 3.2-4.7 6.5-6.7 9.9-.6 1 .1 2.3 1.2 2.3zM193 72.7c.2.6.8 1.1 1.4 1.1.2 0 .3 0 .5-.1.8-.2 1.3-1.1 1-1.9-1.1-3.7-2.5-7.3-3.9-11-.2-.5-.4-.9-.9-1.1-1.2-.5-2.5.8-2 2 1.5 3.6 2.8 7.2 3.9 11zm-7.1-23.9c-1.7-2.8-3.5-5.6-5.5-8.3-.6-.8-1.6-1.9-2.7-1-.7.5-.8 1.5-.3 2.1 2.3 3.1 4.5 6.3 6.4 9.7.4.7 1.3 1 2.1.6.7-.4 1-1.4.6-2.1-.2-.3-.4-.6-.6-1zM119.7 5.1c1.9.4 3.8.8 5.6 1.4 1.2.3 2.4.6 3.6 1l1.8.6c.9.3 1.8 0 2.1-.9.3-.8-.2-1.7-1-1.9-3.7-1.3-7.5-2.3-11.3-3-.5-.1-1-.2-1.4.1-1.1.7-.7 2.4.6 2.7zM195.6 84c.6 3.8 1 7.7 1.2 11.6.1 1.9 3.1 1.9 3.1-.1-.2-4-.6-8-1.3-11.9-.3-2-3.3-1.6-3 .4zM5.4 72.9c.7.2 1.6 0 1.9-1 1.1-3.7 2.5-7.4 4-10.9.8-1.8-2-3-2.8-1.2-1.6 3.5-2.9 7.2-4.1 10.9 0 .1-.1.2-.1.3-.3 1 .3 1.7 1.1 1.9zm159.8-48.6c-.6-.5-1.2-1-1.7-1.5-.4-.3-.7-.5-1.2-.6-.5 0-.9.2-1.3.6-.5.7-.4 1.6.2 2.1 3 2.4 5.9 5.1 8.5 7.9.3.3.7.5 1 .5.4 0 .8-.1 1.1-.4.6-.6.6-1.6 0-2.2-2-2.3-4.2-4.4-6.6-6.4zm-11.7-8.8c-3.2-2-6.6-3.9-10-5.6-.2-.1-.3-.2-.5-.2-.2-.1-.4-.1-.6-.1-.6 0-1.2.3-1.4.9-.4.8 0 1.7.7 2 3.4 1.6 6.9 3.4 10 5.6.3.2.6.3.9.3.5 0 1-.3 1.3-.7.5-.8.3-1.7-.4-2.2zM169 168.7c-.4 0-.8.1-1.1.4-2.8 2.7-5.7 5.3-8.8 7.6-.7.5-.8 1.5-.3 2.1.5.7 1.5.8 2.1.3 3-2.3 5.8-4.8 8.6-7.4.4-.3.8-.7.9-1.2.1-.5 0-1-.4-1.4-.2-.2-.6-.4-1-.4zm-18.6 14.4c-.3 0-.6.1-.8.2-3.3 2-6.8 3.8-10.3 5.3-.8.3-1.1 1.2-.8 2 .2.5.8.9 1.3.9.6 0 1.1-.2 1.6-.5.6-.3 1.2-.6 1.7-.9 2.2-1.1 4.5-2.2 6.6-3.5 1-.6 2.8-1.4 1.9-2.9-.3-.3-.7-.6-1.2-.6zm34.1-32.6c-.7-.4-1.6-.2-2.1.5-2 3.3-4.3 6.5-6.7 9.5-.5.7-.4 1.6.2 2.1.3.2.6.3.9.3 1.2.1 1.8-1.3 2.4-2.1 2.1-2.7 4-5.4 5.7-8.3.5-.6.3-1.6-.4-2zm-55.7 42.1c-.2 0-.3 0-.5.1-3.7 1.1-7.5 2-11.3 2.7-.8.1-1.4.9-1.2 1.8.1.7.7 1.2 1.4 1.3h.3c3.9-.7 7.7-1.6 11.4-2.7.1 0 .2 0 .2-.1.8-.2 1.3-1.1 1-1.9-.1-.7-.7-1.1-1.3-1.2zm69.5-86.8c-.1 0-.1 0 0 0-.9 0-1.6.6-1.6 1.4-.3 3.9-.8 7.7-1.5 11.5-.4 1.9 2.6 2.5 3 .6.8-3.8 1.2-7.7 1.6-11.6-.1-.9-.5-1.9-1.5-1.9zm-4.2 23.2c-.7-.2-1.6 0-1.9.9-1.2 3.7-2.6 7.3-4.2 10.8-.8 1.7 1.9 3.1 2.8 1.3 1.6-3.5 3.2-7.1 4.3-10.8.1-.5.3-.9.1-1.4-.3-.3-.7-.6-1.1-.8zm-88.5 67.7h-.2c-3.9.2-7.8.2-11.6-.1-.8 0-1.5.6-1.6 1.4-.1.8.6 1.6 1.4 1.6 4 .3 8 .3 12 .1h.1c.8 0 1.5-.8 1.4-1.6-.1-.7-.7-1.3-1.5-1.4zm-45.5-8.4c-3.5-1.6-6.8-3.4-10.1-5.3-.8-.5-1.8-.5-2.3.4-.4.7-.2 1.7.5 2.1 1.6 1 3.3 1.9 5 2.8 1.6.9 3.3 1.6 4.9 2.5.5.3 1.1.5 1.7.4.5-.1.9-.4 1.1-.8.3-.8 0-1.7-.8-2.1zm22.2 7c-3.2-.6-6.5-1.4-9.6-2.3-1.2-.3-3-1.2-3.6.5-.4 1.2.6 1.8 1.6 2.1 1.5.5 3 .9 4.5 1.3 2 .5 4.1 1 6.1 1.4h.1c.9.2 1.9-.1 2.1-1.2.1-.9-.4-1.7-1.2-1.8zM7.6 129.2c-.6-1.8-3.5-1-2.9.9 1.2 3.7 2.6 7.4 4.2 10.9.3.6.8 1.1 1.5 1.2 1.1 0 1.9-1.2 1.4-2.2-1.6-3.4-3-7.1-4.2-10.8zM4.8 118c-.7-3.8-1.2-7.7-1.5-11.5-.1-1.9-3.2-1.8-3 .2.2 3.9.8 7.8 1.4 11.6 0 .3.1.5.3.8.3.6 1 .9 1.6.7.8-.2 1.3-1 1.2-1.8zm12.4 32.4c-1-1.7-3.6-.1-2.6 1.6 2 3.3 4.2 6.4 6.5 9.4.4.5.8 1 1.5 1 .4 0 .7-.1 1-.3.7-.5.8-1.5.3-2.1-2.4-3.1-4.7-6.3-6.7-9.6zm23.1 25.9c-3-2.4-6-5-8.7-7.7-.6-.6-1.7-.6-2.3.1-1 1.2.4 2.3 1.2 3.1 2.5 2.4 5.1 4.7 7.9 6.9 1.5 1.2 3.4-1.2 1.9-2.4zM1.7 96.2c.5 0 1.1-.3 1.3-.7.3-.4.3-1 .3-1.5.2-3.4.6-6.8 1.2-10.2.1-.5.2-1 0-1.5-.4-1.1-2-1.3-2.7-.3-.2.3-.3.6-.3 1-.6 3.6-1 7.3-1.3 11 0 .4 0 .7.1 1.1.2.5.7 1 1.2 1 .1.1.1.1.2.1z"/></svg><svg id="circle-02" viewBox="-10 -10 220 220" width="220" height="220" y="833"><style>.st0{opacity:.1}.st1,.st2{fill:#2e3191}.st2{opacity:.1}.aist3,.st4{fill:gray}.st4{fill-rule:evenodd;clip-rule:evenodd}</style><path class="aist3" d="M69.9 76.8c0 8.8 7.1 16 15.8 16s15.8-7.2 15.8-16c0-.1-.1-.1-.1-.1H85.8V60.9c0-.1-.1-.1-.1-.1-8.7 0-15.8 7.2-15.8 16zm13.9-13.9v15.6c0 .1.1.1.1.1h15.4c-.9 6.9-6.8 12.2-13.7 12.2-7.6 0-13.8-6.3-13.8-14 0-7 5.2-13 12-13.9zm45.2 52c0-.1-.1-.1-.1-.1H93.1c-.1 0-.1.1-.1.1v1.7c0 .1.1.1.1.1h35.8c.1 0 .1-.1.1-.1v-1.7zm-50.2-9.7c-4.1 0-7.5 3.4-7.5 7.6 0 4.2 3.3 7.6 7.5 7.6s7.5-3.4 7.5-7.6c0-.1-.1-.1-.1-.1H79v-7.3l-.2-.2zm5.1 9.4c-.8 2.2-2.8 3.7-5.2 3.7-3 0-5.5-2.5-5.5-5.6 0-2.4 1.5-4.5 3.6-5.2v7c0 .1.1.1.1.1h7zm3.9-39.9h17.4c.1 0 .1-.1.1-.1v-.9c0-9.3-7.5-16.9-16.7-16.9h-.9c-.1 0-.1.1-.1.1v17.6c.1.2.2.2.2.2zm1.9-15.8c7.3.5 13.2 6.4 13.7 13.9H89.7V58.9zm39.2 78H93.1c-.1 0-.1.1-.1.1v1.7c0 .1.1.1.1.1h35.8c.1 0 .1-.1.1-.1V137c0-.1 0-.1-.1-.1zm-20.1-52.4v5.6c0 .1.1.1.1.1h1.7c.1 0 .1-.1.1-.1v-5.6c0-.1-.1-.1-.1-.1h-1.7l-.1.1zm5 5.7h1.7c.1 0 .1-.1.1-.1V71.5c0-.1-.1-.1-.1-.1h-1.7c-.1 0-.1.1-.1.1v18.6c-.1.1 0 .1.1.1zm15.2 40.7c0-.1-.1-.1-.1-.1H93.1c-.1 0-.1.1-.1.1v1.7c0 .1.1.1.1.1h35.8c.1 0 .1-.1.1-.1v-1.7zm-36-22.1v1.7c0 .1.1.1.1.1h35.8c.1 0 .1-.1.1-.1v-1.7c0-.1-.1-.1-.1-.1H93.1c-.1 0-.1.1-.1.1zm37-18.6c.1 0 .1-.1.1-.1V80c0-.1-.1-.1-.1-.1h-1.7c-.1 0-.1.1-.1.1v10.1c0 .1.1.1.1.1h1.7zm-9.7 0c.1 0 .1-.1.1-.1v-28c0-.1-.1-.1-.1-.1h-1.7c-.1 0-.1.1-.1.1v28c0 .1.1.1.1.1h1.7zm4.9 0c.1 0 .1-.1.1-.1V70.9c0-.1-.1-.1-.1-.1h-1.7c-.1 0-.1.1-.1.1v19.2c0 .1.1.1.1.1h1.7zm-39.1 45.3h-7.2v-7.3c0-.1-.1-.1-.1-.1-4.1 0-7.5 3.4-7.5 7.6s3.3 7.6 7.5 7.6 7.5-3.4 7.5-7.6c-.1-.2-.1-.2-.2-.2zm-7.3 5.6c-3 0-5.5-2.5-5.5-5.6 0-2.4 1.5-4.5 3.6-5.2v7c0 .1.1.1.1.1h6.9c-.7 2.3-2.8 3.7-5.1 3.7zm1.5-14.6c-.1 0-.1.1-.1.1v7.4c0 .1.1.1.1.1h7.3c.1 0 .1-.1.1-.1 0-4.1-3.3-7.5-7.4-7.5zm1.8 5.7v-3.4c1.6.6 2.8 1.8 3.3 3.4h-3.3zm-1.8-28.5c-.1 0-.1.1-.1.1v7.4c0 .1.1.1.1.1h7.3c.1 0 .1-.1.1-.1 0-4.1-3.3-7.5-7.4-7.5zm1.8 5.7V106c1.6.6 2.8 1.8 3.3 3.4h-3.3zm23.5 87.3h-.2c-3.9.2-7.8.2-11.6-.1-.8 0-1.5.6-1.6 1.4-.1.8.6 1.6 1.4 1.6 4 .3 8 .3 12 .1h.1c.8 0 1.5-.8 1.4-1.6-.1-.7-.7-1.3-1.5-1.4zM69.8 7.9C73.5 6.7 77.3 5.7 81 5c1.3-.3 1.7-2 .6-2.7-.7-.5-1.6-.2-2.4 0C75.8 3 72.4 3.9 69 5c.1-.1 0 0-.1 0-.8.3-1.2 1.1-1 1.9.2.6.8 1 1.4 1.1.2 0 .4 0 .5-.1zm114.7 142.6c-.7-.4-1.6-.2-2.1.5-2 3.3-4.3 6.5-6.7 9.5-.5.7-.4 1.6.2 2.1.3.2.6.3.9.3 1.2.1 1.8-1.3 2.4-2.1 2.1-2.7 4-5.4 5.7-8.3.5-.6.3-1.6-.4-2zM92.4 3.4h.4c1.9-.1 3.7-.2 5.6-.2 3 0 6.1 0 9.1.3.4 0 .8.1 1.2 0 .6-.2 1.1-.7 1.1-1.3.1-.6-.3-1.2-.8-1.5-.4-.2-.9-.2-1.3-.2C103.8.1 99.9 0 96 .1c-1.2 0-2.4.1-3.6.2-.9.1-1.5.8-1.4 1.7 0 .4.2.8.5 1 .3.3.6.3.9.4zM193 72.7c.2.6.8 1.1 1.4 1.1.2 0 .3 0 .5-.1.8-.2 1.3-1.1 1-1.9-1.1-3.7-2.5-7.3-3.9-11-.2-.5-.4-.9-.9-1.1-1.2-.5-2.5.8-2 2 1.5 3.6 2.8 7.2 3.9 11zm-39.5-57.2c-3.2-2-6.6-3.9-10-5.6-.2-.1-.3-.2-.5-.2-.2-.1-.4-.1-.6-.1-.6 0-1.2.3-1.4.9-.4.8 0 1.7.7 2 3.4 1.6 6.9 3.4 10 5.6.3.2.6.3.9.3.5 0 1-.3 1.3-.7.5-.8.3-1.7-.4-2.2zM195.6 84c.6 3.8 1 7.7 1.2 11.6.1 1.9 3.1 1.9 3.1-.1-.2-4-.6-8-1.3-11.9-.3-2-3.3-1.6-3 .4zm-45.2 99.1c-.3 0-.6.1-.8.2-3.3 2-6.8 3.8-10.3 5.3-.8.3-1.1 1.2-.8 2 .2.5.8.9 1.3.9.6 0 1.1-.2 1.6-.5.6-.3 1.2-.6 1.7-.9 2.2-1.1 4.5-2.2 6.6-3.5 1-.6 2.8-1.4 1.9-2.9-.3-.3-.7-.6-1.2-.6zm18.6-14.4c-.4 0-.8.1-1.1.4-2.8 2.7-5.7 5.3-8.8 7.6-.7.5-.8 1.5-.3 2.1.5.7 1.5.8 2.1.3 3-2.3 5.8-4.8 8.6-7.4.4-.3.8-.7.9-1.2.1-.5 0-1-.4-1.4-.2-.2-.6-.4-1-.4zm-40.2 23.9c-.2 0-.3 0-.5.1-3.7 1.1-7.5 2-11.3 2.7-.8.1-1.4.9-1.2 1.8.1.7.7 1.2 1.4 1.3h.3c3.9-.7 7.7-1.6 11.4-2.7.1 0 .2 0 .2-.1.8-.2 1.3-1.1 1-1.9-.1-.7-.7-1.1-1.3-1.2zm3.1-187.4c-3.7-1.3-7.5-2.3-11.3-3-.5-.1-1-.2-1.4.1-1.1.7-.8 2.5.5 2.8 1.9.4 3.8.8 5.6 1.4 1.2.3 2.4.6 3.6 1l1.8.6c.9.3 1.8 0 2.1-.9.3-.8-.1-1.7-.9-2zm33.3 19.1c-.6-.5-1.2-1-1.7-1.5-.4-.3-.7-.5-1.2-.6-.5 0-.9.2-1.3.6-.5.7-.4 1.6.2 2.1 3 2.4 5.9 5.1 8.5 7.9.3.3.7.5 1 .5.4 0 .8-.1 1.1-.4.6-.6.6-1.6 0-2.2-2-2.3-4.2-4.4-6.6-6.4zm-148 126.1c-1-1.7-3.6-.1-2.6 1.6 2 3.3 4.2 6.4 6.5 9.4.4.5.8 1 1.5 1 .4 0 .7-.1 1-.3.7-.5.8-1.5.3-2.1-2.4-3.1-4.7-6.3-6.7-9.6zm-9.6-21.2c-.6-1.8-3.5-1-2.9.9 1.2 3.7 2.6 7.4 4.2 10.9.3.6.8 1.1 1.5 1.2 1.1 0 1.9-1.2 1.4-2.2-1.6-3.4-3-7.1-4.2-10.8zm23.1-97c.2-.1.3-.3.5-.4.7-.7 1.4-1.4 2.1-2 1.4-1.3 2.8-2.6 4.3-3.8l1.8-1.5c.8-.6.7-1.8-.1-2.4-.6-.4-1.3-.4-1.9 0-3 2.4-5.9 5-8.6 7.7-.5.5-.9 1-.7 1.7.1.5.5 1 1 1.1.7.2 1.2 0 1.6-.4zm167.6 73.6c-.1 0-.1 0 0 0-.9 0-1.6.6-1.6 1.4-.3 3.9-.8 7.7-1.5 11.5-.4 1.9 2.6 2.5 3 .6.8-3.8 1.2-7.7 1.6-11.6-.1-.9-.5-1.9-1.5-1.9zm-158 70.5c-3-2.4-6-5-8.7-7.7-.6-.6-1.7-.6-2.3.1-1 1.2.4 2.3 1.2 3.1 2.5 2.4 5.1 4.7 7.9 6.9 1.5 1.2 3.4-1.2 1.9-2.4zm19.8 12c-3.5-1.6-6.8-3.4-10.1-5.3-.8-.5-1.8-.5-2.3.4-.4.7-.2 1.7.5 2.1 1.6 1 3.3 1.9 5 2.8 1.6.9 3.3 1.6 4.9 2.5.5.3 1.1.5 1.7.4.5-.1.9-.4 1.1-.8.3-.8 0-1.7-.8-2.1zM48.8 17.7c.7-.3 1.4-.8 2.1-1.2 1.5-.9 3-1.7 4.6-2.5 1.2-.6 2.4-1.2 3.5-1.7 1-.4 1.2-1.8.4-2.5-.9-.8-1.9-.2-2.8.3-1.5.7-3 1.5-4.5 2.3-.7.4-1.5.8-2.2 1.2-.4.2-.7.4-1.1.7-.1.1-1.1.6-1.1.7-.3.2-.7.4-1 .8-.3.5-.3 1.1 0 1.6.5.7 1.3.6 2.1.3zM15.3 51.4c.5 0 1-.3 1.3-.7 2-3.3 4.2-6.6 6.5-9.6.5-.6.4-1.6-.2-2.1-.7-.6-1.7-.4-2.2.2-2.4 3.2-4.7 6.5-6.7 9.9-.6 1 .1 2.3 1.3 2.3-.1 0-.1 0 0 0zM194.1 129c-.7-.2-1.6 0-1.9.9-1.2 3.7-2.6 7.3-4.2 10.8-.8 1.7 1.9 3.1 2.8 1.3 1.6-3.5 3.2-7.1 4.3-10.8.1-.5.3-.9.1-1.4-.3-.3-.7-.6-1.1-.8zm-8.2-80.2c-1.7-2.8-3.5-5.6-5.5-8.3-.6-.8-1.6-1.9-2.7-1-.7.5-.8 1.5-.3 2.1 2.3 3.1 4.5 6.3 6.4 9.7.4.7 1.3 1 2.1.6.7-.4 1-1.4.6-2.1-.2-.3-.4-.6-.6-1zM82.3 195.3c-3.2-.6-6.5-1.4-9.6-2.3-1.2-.3-3-1.2-3.6.5-.4 1.2.6 1.8 1.6 2.1 1.5.5 3 .9 4.5 1.3 2 .5 4.1 1 6.1 1.4h.1c.9.2 1.9-.1 2.1-1.2.1-.9-.4-1.7-1.2-1.8zM1.5 96.2h.1c.5 0 1.1-.3 1.3-.7.3-.4.3-1 .3-1.5.2-3.4.6-6.8 1.2-10.2.1-.5.2-1 0-1.5-.4-1.1-2-1.3-2.7-.3-.2.3-.3.6-.3 1-.6 3.6-1 7.3-1.3 11 0 .4 0 .7.1 1.1.3.6.8 1.1 1.3 1.1zM4.8 118c-.7-3.8-1.2-7.7-1.5-11.5-.1-1.9-3.2-1.8-3 .2.2 3.9.8 7.8 1.4 11.6 0 .3.1.5.3.8.3.6 1 .9 1.6.7.8-.2 1.3-1 1.2-1.8zm.6-45.1c.7.2 1.6 0 1.9-1 1.1-3.7 2.5-7.4 4-10.9.8-1.8-2-3-2.8-1.2-1.6 3.5-2.9 7.2-4.1 10.9 0 .1-.1.2-.1.3-.3 1 .3 1.7 1.1 1.9z"/></svg><svg id="circle-03" viewBox="-10 -10 220 220" width="220" height="220" y="1053"><style>.st0{opacity:.1}.st1,.st2{fill:#2e3191}.st2{opacity:.1}.ajst3,.st4{fill:gray}.st4{fill-rule:evenodd;clip-rule:evenodd}</style><path class="ajst3" d="M132.5 72.6c-1.9 0-3.4 1.5-3.5 3.3l-13.1 2.3c-.7-1.3-1.9-2.3-3.4-2.6l-.2-5.9c1.2-.5 2-1.6 2-3 0-1.8-1.4-3.2-3.2-3.2-1.8 0-3.2 1.4-3.2 3.2 0 1.5 1 2.7 2.4 3.1l.2 5.8c-1.1.3-2.1.9-2.8 1.9l-10.4-6.7v-.1c0-2-1.6-3.6-3.5-3.6-2 0-3.5 1.6-3.5 3.6s1.6 3.6 3.5 3.6c1.2 0 2.2-.6 2.9-1.5l10.2 6.6c-.1.3-.1.7-.1 1 0 .8.2 1.6.6 2.3l-17.9 18.1c-.9-.8-2-1.4-3.3-1.4-1 0-1.9.3-2.7.8l-8.3-8.3c.6-.7 1-1.6 1-2.6 0-2.2-1.8-4-3.9-4s-3.9 1.8-3.9 4 1.8 4 3.9 4c.4 0 .8-.1 1.2-.2l8.6 8.6c-.5.8-.8 1.7-.8 2.7 0 .2 0 .5.1.7L70 109.4c-.6-.9-1.6-1.5-2.7-1.5-1.8 0-3.2 1.4-3.2 3.2 0 1.8 1.4 3.2 3.2 3.2 1.7 0 3-1.3 3.1-2.9l11.7-4.3c.7 1.1 2.2 1.9 3.1 2.2v7.2c-1 .4-2.2 1.6-2.2 3 0 1.8 1.4 3.2 3.2 3.2 1.8 0 3.2-1.4 3.2-3.2 0-1.4-1.1-2.6-2.1-3v-7.2c1-.3 2.8-1.5 3.4-2.9l16.2 3.4v.4c0 2 1.6 3.6 3.5 3.6.3 0 .6 0 .8-.1l3.3 6.7c-.9.6-1.5 1.7-1.5 2.9 0 .5.1 1 .3 1.5l-5.1 5.1c-.4-.2-.9-.4-1.4-.4-1.8 0-3.2 1.4-3.2 3.2 0 1.8 1.4 3.2 3.2 3.2 1.8 0 3.2-1.4 3.2-3.2 0-.5-.1-1-.3-1.4l5-5c.6.4 1.2.6 1.9.6 1 0 1.9-.4 2.5-1l9.3 6.3c-.3.5-.5 1-.5 1.6 0 1.8 1.4 3.2 3.2 3.2 1.8 0 3.2-1.4 3.2-3.2 0-1.8-1.4-3.2-3.2-3.2-.4 0-.8.1-1.1.2l-9.9-6.7c.1-.2.1-.5.1-.7 0-2-1.6-3.6-3.5-3.6h-.1l-3.5-7c.6-.6 1-1.5 1-2.5 0-2-1.6-3.6-3.5-3.6-1.1 0-2.1.5-2.7 1.3l-16.6-3.4c0-.6-.1-1.2-.3-1.7l18-18.2c.8.7 1.9 1.1 3 1.1 1 0 2-.3 2.7-.9l9.2 9.2c-.2.4-.3.9-.3 1.4 0 1.8 1.4 3.2 3.2 3.2s3.2-1.4 3.2-3.2c0-1.8-1.4-3.2-3.2-3.2-.5 0-1 .1-1.4.4l-9.2-9.2c.5-.7.7-1.6.7-2.6v-.2l13-2.3c.6 1.1 1.7 1.8 3.1 1.8 2 0 3.5-1.6 3.5-3.6-.5-2.4-2.1-4-4-4zM15.3 51.4c.5 0 1-.3 1.3-.7 2-3.3 4.2-6.6 6.5-9.6.5-.6.4-1.6-.2-2.1-.7-.6-1.7-.4-2.2.2-2.4 3.2-4.7 6.5-6.7 9.9-.6 1 .1 2.3 1.3 2.3-.1 0-.1 0 0 0zm-7.7 77.8c-.6-1.8-3.5-1-2.9.9 1.2 3.7 2.6 7.4 4.2 10.9.3.6.8 1.1 1.5 1.2 1.1 0 1.9-1.2 1.4-2.2-1.6-3.4-3-7.1-4.2-10.8zM4.8 118c-.7-3.8-1.2-7.7-1.5-11.5-.1-1.9-3.2-1.8-3 .2.2 3.9.8 7.8 1.4 11.6 0 .3.1.5.3.8.3.6 1 .9 1.6.7.8-.2 1.3-1 1.2-1.8zm190.8-34c.6 3.8 1 7.7 1.2 11.6.1 1.9 3.1 1.9 3.1-.1-.2-4-.6-8-1.3-11.9-.3-2-3.3-1.6-3 .4zM40.3 176.3c-3-2.4-6-5-8.7-7.7-.6-.6-1.7-.6-2.3.1-1 1.2.4 2.3 1.2 3.1 2.5 2.4 5.1 4.7 7.9 6.9 1.5 1.2 3.4-1.2 1.9-2.4zm-23.1-25.9c-1-1.7-3.6-.1-2.6 1.6 2 3.3 4.2 6.4 6.5 9.4.4.5.8 1 1.5 1 .4 0 .7-.1 1-.3.7-.5.8-1.5.3-2.1-2.4-3.1-4.7-6.3-6.7-9.6zm75.2-147h.4c1.9-.1 3.7-.2 5.6-.2 3 0 6.1 0 9.1.3.4 0 .8.1 1.2 0 .6-.2 1.1-.7 1.1-1.3.1-.6-.3-1.2-.8-1.5-.4-.2-.9-.2-1.3-.2C103.8.1 99.9 0 96 .1c-1.2 0-2.4.1-3.6.2-.9.1-1.5.8-1.4 1.7 0 .4.2.8.5 1 .3.3.6.3.9.4zm27.3 1.7c1.9.4 3.8.8 5.6 1.4 1.2.3 2.4.6 3.6 1l1.8.6c.9.3 1.8 0 2.1-.9.3-.8-.2-1.7-1-1.9-3.7-1.3-7.5-2.3-11.3-3-.5-.1-1-.2-1.4.1-1.1.7-.7 2.4.6 2.7zM193 72.7c.2.6.8 1.1 1.4 1.1.2 0 .3 0 .5-.1.8-.2 1.3-1.1 1-1.9-1.1-3.7-2.5-7.3-3.9-11-.2-.5-.4-.9-.9-1.1-1.2-.5-2.5.8-2 2 1.5 3.6 2.8 7.2 3.9 11zM69.3 8c.2 0 .4 0 .5-.1C73.5 6.7 77.3 5.7 81 5c1.3-.3 1.7-2 .6-2.7-.7-.5-1.6-.2-2.4 0C75.8 3 72.4 3.9 69 5c.1-.1 0 0-.1 0-.8.3-1.2 1.1-1 1.9.2.6.8 1 1.4 1.1zM1.5 96.2h.1c.5 0 1.1-.3 1.3-.7.3-.4.3-1 .3-1.5.2-3.4.6-6.8 1.2-10.2.1-.5.2-1 0-1.5-.4-1.1-2-1.3-2.7-.3-.2.3-.3.6-.3 1-.6 3.6-1 7.3-1.3 11 0 .4 0 .7.1 1.1.3.6.8 1.1 1.3 1.1zm3.9-23.3c.7.2 1.6 0 1.9-1 1.1-3.7 2.5-7.4 4-10.9.8-1.8-2-3-2.8-1.2-1.6 3.5-2.9 7.2-4.1 10.9 0 .1-.1.2-.1.3-.3 1 .3 1.7 1.1 1.9zm25.3-40.7c.2-.1.3-.3.5-.4.7-.7 1.4-1.4 2.1-2 1.4-1.3 2.8-2.6 4.3-3.8l1.8-1.5c.8-.6.7-1.8-.1-2.4-.6-.4-1.3-.4-1.9 0-3 2.4-5.9 5-8.6 7.7-.5.5-.9 1-.7 1.7.1.5.5 1 1 1.1.7.2 1.2 0 1.6-.4zm153.8 118.3c-.7-.4-1.6-.2-2.1.5-2 3.3-4.3 6.5-6.7 9.5-.5.7-.4 1.6.2 2.1.3.2.6.3.9.3 1.2.1 1.8-1.3 2.4-2.1 2.1-2.7 4-5.4 5.7-8.3.5-.6.3-1.6-.4-2zM169 168.7c-.4 0-.8.1-1.1.4-2.8 2.7-5.7 5.3-8.8 7.6-.7.5-.8 1.5-.3 2.1.5.7 1.5.8 2.1.3 3-2.3 5.8-4.8 8.6-7.4.4-.3.8-.7.9-1.2.1-.5 0-1-.4-1.4-.2-.2-.6-.4-1-.4zm-3.8-144.4c-.6-.5-1.2-1-1.7-1.5-.4-.3-.7-.5-1.2-.6-.5 0-.9.2-1.3.6-.5.7-.4 1.6.2 2.1 3 2.4 5.9 5.1 8.5 7.9.3.3.7.5 1 .5.4 0 .8-.1 1.1-.4.6-.6.6-1.6 0-2.2-2-2.3-4.2-4.4-6.6-6.4zm20.7 24.5c-1.7-2.8-3.5-5.6-5.5-8.3-.6-.8-1.6-1.9-2.7-1-.7.5-.8 1.5-.3 2.1 2.3 3.1 4.5 6.3 6.4 9.7.4.7 1.3 1 2.1.6.7-.4 1-1.4.6-2.1-.2-.3-.4-.6-.6-1zM48.8 17.7c.7-.3 1.4-.8 2.1-1.2 1.5-.9 3-1.7 4.6-2.5 1.2-.6 2.4-1.2 3.5-1.7 1-.4 1.2-1.8.4-2.5-.9-.8-1.9-.2-2.8.3-1.5.7-3 1.5-4.5 2.3-.7.4-1.5.8-2.2 1.2-.4.2-.7.4-1.1.7-.1.1-1.1.6-1.1.7-.3.2-.7.4-1 .8-.3.5-.3 1.1 0 1.6.5.7 1.3.6 2.1.3zm149.5 88.1c-.1 0-.1 0 0 0-.9 0-1.6.6-1.6 1.4-.3 3.9-.8 7.7-1.5 11.5-.4 1.9 2.6 2.5 3 .6.8-3.8 1.2-7.7 1.6-11.6-.1-.9-.5-1.9-1.5-1.9zm-4.2 23.2c-.7-.2-1.6 0-1.9.9-1.2 3.7-2.6 7.3-4.2 10.8-.8 1.7 1.9 3.1 2.8 1.3 1.6-3.5 3.2-7.1 4.3-10.8.1-.5.3-.9.1-1.4-.3-.3-.7-.6-1.1-.8zM82.3 195.3c-3.2-.6-6.5-1.4-9.6-2.3-1.2-.3-3-1.2-3.6.5-.4 1.2.6 1.8 1.6 2.1 1.5.5 3 .9 4.5 1.3 2 .5 4.1 1 6.1 1.4h.1c.9.2 1.9-.1 2.1-1.2.1-.9-.4-1.7-1.2-1.8zm-22.2-7c-3.5-1.6-6.8-3.4-10.1-5.3-.8-.5-1.8-.5-2.3.4-.4.7-.2 1.7.5 2.1 1.6 1 3.3 1.9 5 2.8 1.6.9 3.3 1.6 4.9 2.5.5.3 1.1.5 1.7.4.5-.1.9-.4 1.1-.8.3-.8 0-1.7-.8-2.1zm45.5 8.4h-.2c-3.9.2-7.8.2-11.6-.1-.8 0-1.5.6-1.6 1.4-.1.8.6 1.6 1.4 1.6 4 .3 8 .3 12 .1h.1c.8 0 1.5-.8 1.4-1.6-.1-.7-.7-1.3-1.5-1.4zm23.2-4.1c-.2 0-.3 0-.5.1-3.7 1.1-7.5 2-11.3 2.7-.8.1-1.4.9-1.2 1.8.1.7.7 1.2 1.4 1.3h.3c3.9-.7 7.7-1.6 11.4-2.7.1 0 .2 0 .2-.1.8-.2 1.3-1.1 1-1.9-.1-.7-.7-1.1-1.3-1.2zm24.7-177.1c-3.2-2-6.6-3.9-10-5.6-.2-.1-.3-.2-.5-.2-.2-.1-.4-.1-.6-.1-.6 0-1.2.3-1.4.9-.4.8 0 1.7.7 2 3.4 1.6 6.9 3.4 10 5.6.3.2.6.3.9.3.5 0 1-.3 1.3-.7.5-.8.3-1.7-.4-2.2zm-3.1 167.6c-.3 0-.6.1-.8.2-3.3 2-6.8 3.8-10.3 5.3-.8.3-1.1 1.2-.8 2 .2.5.8.9 1.3.9.6 0 1.1-.2 1.6-.5.6-.3 1.2-.6 1.7-.9 2.2-1.1 4.5-2.2 6.6-3.5 1-.6 2.8-1.4 1.9-2.9-.3-.3-.7-.6-1.2-.6z"/></svg><svg width="47" height="46" viewBox="-10 -10 47 46" id="copyright" y="1273"><title>Shape 12</title><path d="M27 13c0-7.18-5.821-13-13-13C6.82 0 .999 5.82.999 13S6.82 26 14 26c7.179 0 13-5.82 13-13zM14 2.99c5.53 0 10.012 4.48 10.012 10.01 0 5.53-4.482 10.01-10.012 10.01S3.987 18.53 3.987 13C3.987 7.47 8.47 2.99 14 2.99c0 0-5.53 0 0 0z" fill="gray"/><path d="M14 16.92A3.923 3.923 0 0 1 10.081 13c0-2.16 1.755-3.92 3.919-3.92A3.922 3.922 0 0 1 17.918 13c0 2.16-1.754 3.92-3.918 3.92-2.165 0 0 0 0 0zm0-10.91A6.989 6.989 0 0 0 7.012 13a6.989 6.989 0 1 0 13.976 0A6.99 6.99 0 0 0 14 6.01c-3.86 0 0 0 0 0z" fill="gray"/></svg><svg width="57.63" height="57.44" viewBox="-10 -10 57.63 57.44" id="favourite_icon" y="1319"><defs><style>.alcls-1{fill:#fff;fill-rule:evenodd}</style></defs><path id="alfavourite" class="alcls-1" d="M858.808 1589.07a.787.787 0 0 1 .741.6l.007.02 3.235 10.43a1.753 1.753 0 0 0 1.679 1.24h10.6a.778.778 0 0 1 .741.59.971.971 0 0 1-.268 1.06l-8.573 6.48a1.739 1.739 0 0 0-.616 1.91l3.231 10.41a1.013 1.013 0 0 1-.214 1.01 1.123 1.123 0 0 1-.609.19.49.49 0 0 1-.328-.09l-.066-.06-8.573-6.47a1.749 1.749 0 0 0-2.126 0l-8.575 6.48a.706.706 0 0 1-.431.14.672.672 0 0 1-.433-.15.833.833 0 0 1-.3-.95c.01-.03.02-.05.029-.08l3.236-10.43a1.737 1.737 0 0 0-.61-1.9l-8.5-6.49a.833.833 0 0 1-.3-.95.889.889 0 0 0 .036-.11.778.778 0 0 1 .741-.59h10.6a1.752 1.752 0 0 0 1.678-1.24l3.236-10.43.006-.02a.787.787 0 0 1 .741-.6m0-1.74a2.529 2.529 0 0 0-2.426 1.85l-3.235 10.43h-10.6a2.541 2.541 0 0 0-2.426 1.85 2.567 2.567 0 0 0 .889 2.94l8.493 6.48-3.235 10.43a2.58 2.58 0 0 0 .89 2.95 2.488 2.488 0 0 0 2.992 0l8.573-6.48 8.573 6.47a2.193 2.193 0 0 0 1.457.51 3 3 0 0 0 1.615-.51 2.693 2.693 0 0 0 .891-2.94l-3.236-10.43 8.574-6.48a2.692 2.692 0 0 0 .89-2.94 2.541 2.541 0 0 0-2.426-1.85h-10.6l-3.235-10.43a2.529 2.529 0 0 0-2.433-1.85z" transform="translate(-839.969 -1587.31)"/></svg><svg width="70" height="70" viewBox="-10 -10 70 70" id="fb--gray" y="1377"><title>FB</title><path d="M47.215.02H2.774A2.756 2.756 0 0 0 .017 2.77v44.45c0 1.52 1.239 2.76 2.757 2.76h23.924V30.63h-6.512v-7.54h6.512v-5.57c0-6.44 3.941-9.96 9.7-9.96 2.76 0 5.123.21 5.817.3v6.74h-3.996c-3.132 0-3.733 1.49-3.733 3.67v4.82h7.467l-.975 7.53h-6.492v19.36h12.729c1.521 0 2.76-1.24 2.76-2.76V2.77c0-1.52-1.239-2.75-2.76-2.75z" fill="gray"/></svg><svg width="51" height="50" viewBox="-10 -10 51 50" id="fb--white" y="1447"><title>FB copy</title><path d="M29.328.01H2.599C1.686.01.94.75.94 1.66v26.67c0 .91.746 1.66 1.659 1.66h14.389V18.38h-3.917v-4.53h3.917v-3.34c0-3.86 2.37-5.97 5.834-5.97 1.66 0 3.081.12 3.499.18v4.04h-2.404c-1.884 0-2.245.89-2.245 2.2v2.89h4.491l-.586 4.52h-3.905v11.62h7.656c.915 0 1.66-.75 1.66-1.66V1.66c0-.91-.745-1.65-1.66-1.65z" fill="#fff"/></svg><svg width="56" height="71" viewBox="-10 -10 56 71" id="foursquare--gray" y="1497"><title>Foursquare</title><path d="M31.55 0H4.94C1.26 0 0 2.61 0 4.58v42.3c0 2.11 1.24 2.71 1.83 2.95.59.24 2.11.39 3.2-.7 0 0 12.64-14.11 12.84-14.33.2-.23.94-.55 1.06-.55h7.99c3.42 0 3.46-2.79 3.81-4.24.3-1.21 3.72-18.4 4.93-23.83 1-4.47-.2-6.18-4.11-6.18zm-1.57 7.04l-1.2 5.81c-.14.63-.71 1.27-1.44 1.33H16.95c-1.16-.06-2.12.81-2.12 1.99v1.28c0 1.17.96 2.38 2.12 2.38h8.8c.82 0 1.52.53 1.34 1.42-.18.88-1.09 5.43-1.19 5.91-.1.49-.54 1.47-1.37 1.47h-6.92c-1.3 0-2.6-.02-3.47 1.08-.87 1.1-8.66 10.17-8.66 10.17V6.55c0-.85.59-1.44 1.36-1.43h21.55c.78-.01 1.75.79 1.59 1.92z" fill="gray"/></svg><svg width="43" height="51" viewBox="-10 -10 43 51" id="foursquare--white" y="1568"><title>Foursquare copy</title><path d="M19.65 0H3.641C1.43 0 .67 1.57.67 2.75v25.38c0 1.26.746 1.62 1.101 1.77.358.14 1.271.23 1.927-.42 0 0 7.599-8.47 7.722-8.6.122-.14.565-.33.635-.33h4.808c2.056 0 2.081-1.67 2.294-2.54.181-.73 2.236-11.05 2.966-14.3.6-2.69-.121-3.71-2.473-3.71zm-.944 4.23l-.725 3.48c-.081.38-.423.76-.864.8h-6.249c-.7-.04-1.274.49-1.274 1.19v.77c0 .7.574 1.43 1.274 1.43h5.294c.494 0 .913.32.806.85-.108.53-.66 3.26-.721 3.55-.059.29-.324.88-.823.88h-4.159c-.785 0-1.562-.01-2.089.65-.525.65-5.209 6.1-5.209 6.1v-20c0-.51.357-.86.82-.86h12.96c.472 0 1.052.48.959 1.16z" fill="#fff"/></svg><svg width="57.66" height="57.44" viewBox="-10 -10 57.66 57.44" id="good_icon" y="1619"><defs><style>.aqcls-1{fill:#fff;fill-rule:evenodd}</style></defs><path id="aqgood" class="aqcls-1" d="M1029.9 1589.07a16.97 16.97 0 1 1-17.07 16.97 17.046 17.046 0 0 1 17.07-16.97m0-1.74a18.715 18.715 0 1 0 18.82 18.71 18.763 18.763 0 0 0-18.82-18.71zm10.3 14.42l-4.95-1.79a.873.873 0 1 0-.6 1.64l4.95 1.79a.873.873 0 1 0 .6-1.64zm-15.66-1.79l-4.95 1.79a.873.873 0 1 0 .6 1.64l4.95-1.79a.873.873 0 1 0-.6-1.64zm12.37 11.17a13.22 13.22 0 0 1-14.11-.06.893.893 0 0 0-1.22.26.875.875 0 0 0 .27 1.21 15.036 15.036 0 0 0 16 .07.877.877 0 1 0-.94-1.48z" transform="translate(-1011.06 -1587.31)"/></svg><svg width="70" height="71" viewBox="-10 -10 70 71" id="google--gray" y="1677"><title>Google+</title><path d="M1.45.24C2.05 0 2.71.03 3.34.01c14.58.01 29.16 0 43.74.01 1.62-.2 3.08 1.27 2.89 2.88.03 14.72.01 29.44.01 44.16.19 1.63-1.27 3.09-2.9 2.93H2.92c-1.63.16-3.09-1.3-2.9-2.94 0-14.71-.03-29.43.01-44.15C-.06 1.82.51.77 1.45.24zm9.85 24.74c-.07 3.63 2.43 7.1 5.88 8.23 3.25 1.1 7.24.28 9.4-2.5 1.57-1.95 1.93-4.54 1.76-6.97-2.78-.02-5.56-.01-8.33-.01-.01.99 0 1.98 0 2.97 1.66.04 3.33.02 4.99.05-.42 1.44-1.37 2.78-2.83 3.3-2.8 1.24-6.38-.38-7.26-3.32-1.07-2.81.68-6.21 3.56-7.03 1.78-.63 3.62.08 5.15 1.01.77-.73 1.5-1.5 2.21-2.28-1.74-1.46-3.97-2.35-6.26-2.15-4.5.05-8.44 4.2-8.27 8.7zm22.45-3.75c-.01.83-.02 1.66-.02 2.49-.83.01-1.66.01-2.49.02v2.48c.83 0 1.66.01 2.49.01.01.83.01 1.66.02 2.49h2.48c0-.83 0-1.66.01-2.49.83 0 1.66-.01 2.49-.01v-2.48c-.83-.01-1.66-.01-2.49-.02 0-.83-.01-1.66-.01-2.49h-2.48z" fill="gray"/></svg><svg width="52" height="51" viewBox="-10 -10 52 51" id="google--white" y="1748"><title>Google+ copy</title><path d="M1.87 1.14c.36-.14.755-.12 1.133-.14 8.77.01 17.539 0 26.309.01.973-.12 1.854.76 1.739 1.73.02 8.83.008 17.66.008 26.49.112.98-.766 1.86-1.747 1.76-8.852.01-17.707.01-26.559 0-.981.1-1.859-.78-1.747-1.76 0-8.83-.015-17.66.008-26.49-.055-.65.293-1.28.856-1.6zm5.926 14.85c-.045 2.18 1.462 4.26 3.534 4.94 1.952.65 4.352.16 5.651-1.5.948-1.17 1.164-2.73 1.061-4.18-1.672-.02-3.344-.01-5.013-.01-.002.59 0 1.18.003 1.78 1.001.03 2.002.01 3.003.03-.253.87-.828 1.67-1.702 1.98-1.687.74-3.839-.22-4.37-1.99-.64-1.69.408-3.73 2.14-4.22 1.074-.38 2.18.05 3.099.6.465-.43.901-.9 1.328-1.36-1.043-.88-2.385-1.41-3.764-1.29-2.705.03-5.073 2.52-4.97 5.22zm13.499-2.25l-.012 1.49c-.5.01-.998.01-1.497.01v1.49c.499 0 .999.01 1.497.01.005.5.005.99.01 1.49h1.492c.002-.5.005-.99.01-1.49.498 0 .998-.01 1.496-.01v-1.49c-.498 0-.998 0-1.496-.01-.003-.49-.008-.99-.01-1.49h-1.49z" fill="#fff"/></svg><svg width="46" height="46" viewBox="-10 -10 46 46" id="icon_copyright" y="1799"><defs><style>.atcls-1{fill:gray;fill-rule:evenodd}</style></defs><path class="atcls-1" d="M13 26a13 13 0 1 1 13-13 13 13 0 0 1-13 13zm0-23.01A10.01 10.01 0 1 0 23.012 13 10.01 10.01 0 0 0 13 2.99zM16.353 11a3.92 3.92 0 1 0 0 4h3.309a6.99 6.99 0 1 1 0-4h-3.309z"/></svg><svg width="70" height="70" viewBox="-10 -10 70 70" id="instagram--gray" y="1845"><title>Instagram</title><path d="M14.692.15c-2.66.12-4.478.54-6.068 1.16-1.644.64-3.038 1.5-4.428 2.89-1.39 1.39-2.245 2.78-2.883 4.42C.694 10.21.272 12.03.15 14.69.029 17.36 0 18.21 0 25c0 6.79.029 7.64.15 10.31.122 2.66.544 4.48 1.163 6.07.638 1.64 1.493 3.03 2.883 4.42 1.39 1.39 2.784 2.25 4.428 2.89 1.59.62 3.408 1.04 6.068 1.16 2.667.12 3.518.15 10.308.15s7.641-.03 10.307-.15c2.661-.12 4.479-.54 6.069-1.16 1.644-.64 3.038-1.5 4.428-2.89 1.39-1.39 2.245-2.78 2.884-4.42.617-1.59 1.04-3.41 1.162-6.07.121-2.67.15-3.52.15-10.31 0-6.79-.029-7.64-.15-10.31-.122-2.66-.545-4.48-1.162-6.07-.639-1.64-1.494-3.03-2.884-4.42-1.39-1.39-2.784-2.25-4.428-2.89C39.786.69 37.968.27 35.307.15 32.641.03 31.79 0 25 0c-6.79 0-7.641.03-10.308.15zM25 7c4.889 0 5.501.02 7.421.11 1.916.09 3.225.39 4.37.84 1.183.45 2.187 1.07 3.188 2.07a8.85 8.85 0 0 1 2.076 3.19c.445 1.14.749 2.45.837 4.37.087 1.92.108 2.53.108 7.42 0 4.89-.021 5.5-.108 7.42-.088 1.92-.392 3.23-.837 4.37a8.85 8.85 0 0 1-2.076 3.19c-1.001 1-2.005 1.61-3.188 2.07-1.145.45-2.454.75-4.37.84-1.92.09-2.532.11-7.421.11s-5.501-.02-7.421-.11c-1.916-.09-3.225-.39-4.37-.84-1.183-.46-2.187-1.07-3.188-2.07a8.85 8.85 0 0 1-2.076-3.19c-.445-1.14-.749-2.45-.837-4.37C7.021 30.5 7 29.89 7 25c0-4.89.021-5.5.108-7.42.088-1.92.392-3.23.837-4.37a8.85 8.85 0 0 1 2.076-3.19c1.001-1 2.005-1.62 3.188-2.07 1.145-.45 2.454-.75 4.37-.84C19.499 7.02 20.111 7 25 7zm0 3.24c-4.806 0-5.376.02-7.274.11-1.755.08-2.708.37-3.342.62-.84.32-1.44.71-2.07 1.34a5.596 5.596 0 0 0-1.346 2.07c-.247.64-.54 1.59-.62 3.35-.086 1.89-.105 2.46-.105 7.27s.019 5.38.105 7.27c.08 1.76.373 2.71.62 3.35.327.84.717 1.44 1.346 2.07.63.63 1.23 1.02 2.07 1.34.634.25 1.587.54 3.342.62 1.898.09 2.467.11 7.274.11 4.806 0 5.376-.02 7.273-.11 1.755-.08 2.709-.37 3.343-.62.84-.32 1.44-.71 2.069-1.34a5.574 5.574 0 0 0 1.347-2.07c.247-.64.54-1.59.62-3.35.086-1.89.105-2.46.105-7.27s-.019-5.38-.105-7.27c-.08-1.76-.373-2.71-.62-3.35a5.574 5.574 0 0 0-1.347-2.07 5.473 5.473 0 0 0-2.069-1.34c-.634-.25-1.588-.54-3.343-.62-1.898-.09-2.467-.11-7.273-.11 0 0 4.806 0 0 0zM34.243 25c0 5.1-4.138 9.24-9.243 9.24S15.757 30.1 15.757 25c0-5.11 4.138-9.24 9.243-9.24A9.237 9.237 0 0 1 34.243 25zM31 25c0-3.31-2.686-6-6-6s-6 2.69-6 6 2.686 6 6 6 6-2.69 6-6zm5.768-9.61c0 1.19-.967 2.16-2.16 2.16s-2.16-.97-2.16-2.16c0-1.19.967-2.16 2.16-2.16s2.16.97 2.16 2.16z" fill="gray"/></svg><svg width="51" height="50" viewBox="-10 -10 51 50" id="instagram--white" y="1915"><title>Instagram copy</title><path d="M8.837.09c-1.601.07-2.694.33-3.65.7-.989.38-1.827.89-2.663 1.73A7.358 7.358 0 0 0 .789 5.17C.418 6.13.163 7.22.09 8.82.017 10.42 0 10.93 0 15s.017 4.58.09 6.18c.073 1.6.328 2.69.699 3.65.385.98.899 1.82 1.735 2.65a7.248 7.248 0 0 0 2.663 1.73c.956.37 2.049.63 3.65.7 1.604.07 2.116.09 6.199.09 4.084 0 4.596-.02 6.2-.09 1.6-.07 2.693-.33 3.65-.7a7.248 7.248 0 0 0 2.663-1.73 7.342 7.342 0 0 0 1.734-2.65c.372-.96.626-2.05.699-3.65.074-1.6.091-2.11.091-6.18s-.017-4.58-.091-6.18c-.073-1.6-.327-2.69-.699-3.65a7.342 7.342 0 0 0-1.734-2.65A7.248 7.248 0 0 0 24.886.79c-.957-.37-2.05-.63-3.65-.7C19.632.02 19.12 0 15.036 0c-4.083 0-4.595.02-6.199.09zm6.199 4.11c2.941 0 3.309.01 4.464.06 1.152.06 1.939.24 2.628.51a5.22 5.22 0 0 1 1.918 1.24c.601.6.972 1.21 1.248 1.92.268.68.451 1.47.503 2.62.053 1.15.066 1.52.066 4.45s-.013 3.3-.066 4.45c-.052 1.15-.235 1.94-.503 2.62a5.316 5.316 0 0 1-1.248 1.92 5.22 5.22 0 0 1-1.918 1.24c-.689.27-1.476.45-2.628.51-1.155.05-1.523.06-4.464.06-2.94 0-3.308-.01-4.463-.06-1.152-.06-1.94-.24-2.628-.51a5.22 5.22 0 0 1-1.918-1.24 5.303 5.303 0 0 1-1.248-1.92c-.268-.68-.451-1.47-.504-2.62-.052-1.15-.065-1.52-.065-4.45s.013-3.3.065-4.45c.053-1.15.236-1.94.504-2.62.276-.71.646-1.32 1.248-1.92a5.22 5.22 0 0 1 1.918-1.24c.688-.27 1.476-.45 2.628-.51 1.155-.05 1.523-.06 4.463-.06zm0 1.95c-2.89 0-3.233.01-4.374.06-1.056.05-1.629.22-2.011.37-.505.2-.866.43-1.244.81-.379.38-.614.74-.81 1.24-.148.38-.325.95-.373 2.01-.052 1.13-.063 1.48-.063 4.36 0 2.88.011 3.23.063 4.36.048 1.06.225 1.63.373 2.01.196.5.431.86.81 1.24.378.38.739.61 1.244.81.382.15.955.32 2.011.37 1.141.05 1.483.06 4.374.06 2.891 0 3.234-.01 4.375-.06 1.056-.05 1.629-.22 2.01-.37.506-.2.866-.43 1.245-.81.379-.38.614-.74.81-1.24.148-.38.325-.95.373-2.01.052-1.13.063-1.48.063-4.36 0-2.88-.011-3.23-.063-4.36-.048-1.06-.225-1.63-.373-2.01-.196-.5-.431-.86-.81-1.24a3.382 3.382 0 0 0-1.245-.81c-.381-.15-.954-.32-2.01-.37-1.141-.05-1.484-.06-4.375-.06 0 0 2.891 0 0 0zm5.56 8.85c0 3.06-2.489 5.55-5.56 5.55A5.558 5.558 0 0 1 9.477 15c0-3.06 2.489-5.55 5.559-5.55 3.071 0 5.56 2.49 5.56 5.55zm-1.951 0c0-1.99-1.616-3.6-3.609-3.6a3.603 3.603 0 0 0-3.608 3.6c0 1.99 1.615 3.6 3.608 3.6a3.603 3.603 0 0 0 3.609-3.6zm3.47-5.77a1.299 1.299 0 1 1-2.599 0c0-.71.582-1.29 1.299-1.29.718 0 1.3.58 1.3 1.29z" fill="#fff"/></svg><svg width="44" height="44" viewBox="-10 -10 44 44" id="instagram_icon" y="1965"><defs><style>.awcls-1{fill:gray;fill-rule:evenodd}</style></defs><path class="awcls-1" d="M12 2.16c3.2 0 3.584.01 4.849.07a6.616 6.616 0 0 1 2.228.42 3.609 3.609 0 0 1 1.38.89 3.724 3.724 0 0 1 .9 1.38 6.722 6.722 0 0 1 .413 2.23c.058 1.27.07 1.65.07 4.85s-.012 3.58-.07 4.85a6.722 6.722 0 0 1-.413 2.23 3.724 3.724 0 0 1-.9 1.38 3.609 3.609 0 0 1-1.38.89 6.616 6.616 0 0 1-2.228.42c-1.265.06-1.645.07-4.849.07s-3.584-.01-4.849-.07a6.616 6.616 0 0 1-2.228-.42 3.609 3.609 0 0 1-1.38-.89 3.724 3.724 0 0 1-.9-1.38 6.7 6.7 0 0 1-.413-2.23c-.058-1.27-.07-1.65-.07-4.85s.012-3.58.07-4.85a6.7 6.7 0 0 1 .413-2.23 3.724 3.724 0 0 1 .9-1.38 3.609 3.609 0 0 1 1.38-.89 6.616 6.616 0 0 1 2.228-.42c1.265-.06 1.645-.07 4.849-.07M12 0C8.741 0 8.332.01 7.052.07A8.754 8.754 0 0 0 4.14.63a6 6 0 0 0-2.126 1.38A5.921 5.921 0 0 0 .63 4.14a8.819 8.819 0 0 0-.558 2.91C.014 8.33 0 8.74 0 12s.014 3.67.072 4.95a8.819 8.819 0 0 0 .558 2.91 5.921 5.921 0 0 0 1.384 2.13 6 6 0 0 0 2.126 1.38 8.754 8.754 0 0 0 2.912.56c1.28.06 1.689.07 4.948.07s3.668-.01 4.948-.07a8.766 8.766 0 0 0 2.913-.56 6.008 6.008 0 0 0 2.125-1.38 5.921 5.921 0 0 0 1.384-2.13 8.819 8.819 0 0 0 .558-2.91c.058-1.28.072-1.69.072-4.95s-.014-3.67-.072-4.95a8.819 8.819 0 0 0-.558-2.91 5.921 5.921 0 0 0-1.384-2.13A6.008 6.008 0 0 0 19.861.63a8.766 8.766 0 0 0-2.913-.56C15.668.01 15.259 0 12 0zm0 5.84A6.16 6.16 0 1 0 18.162 12 6.162 6.162 0 0 0 12 5.84zM12 16a4 4 0 1 1 4-4 4 4 0 0 1-4 4zm7.846-10.41a1.44 1.44 0 1 1-1.44-1.44 1.437 1.437 0 0 1 1.44 1.44z"/></svg><svg width="110" height="95" viewBox="-10 -10 110 95" id="magnifer" y="2009"><title>Shape 15</title><path d="M83.007 25.16c-1.047 1.08-1.873 1.93-3.624 1.93-1.751 0-2.578-.85-3.624-1.93-1.137-1.17-2.427-2.5-4.976-2.5-1.99 0-3.209.81-4.19 1.72.012-.29.027-.59.027-.88C66.62 11.09 56.5.99 44.06.99c-12.311 0-22.345 9.89-22.551 22.12-.645-.28-1.399-.45-2.323-.45-2.548 0-3.838 1.33-4.975 2.5-1.047 1.08-1.872 1.93-3.624 1.93s-2.578-.85-3.624-1.93c-1.137-1.17-2.426-2.5-4.975-2.5-.772 0-1.417.13-1.988.33.171.6.352 1.2.547 1.8.411-.16.874-.26 1.44-.26 1.752 0 2.578.86 3.624 1.93 1.137 1.18 2.427 2.51 4.976 2.51s3.838-1.33 4.976-2.51c1.047-1.07 1.873-1.93 3.624-1.93 1.049 0 1.763.31 2.394.79C22.516 36.88 32.238 46 44.061 46c1.229 0 2.435-.1 3.611-.29l10.209 25.78a5.79 5.79 0 0 0 5.327 3.5c.758 0 1.529-.15 2.269-.46 2.932-1.25 4.295-4.65 3.028-7.6L56.931 41.97c4.852-3.38 8.312-8.61 9.356-14.65.309-.28.599-.57.875-.85 1.046-1.08 1.873-1.94 3.622-1.94 1.752 0 2.578.86 3.624 1.94 1.137 1.17 2.427 2.5 4.976 2.5s3.838-1.33 4.976-2.5c1.047-1.08 1.874-1.94 3.625-1.94.578 0 1.049.1 1.467.27.195-.6.376-1.2.548-1.8a5.791 5.791 0 0 0-2.015-.34c-2.551 0-3.841 1.33-4.978 2.5zM44.06 2.87c9.641 0 17.761 6.61 20.041 15.53a11.953 11.953 0 0 0-3.467-.49c-4.25 0-6.467 1.82-8.423 3.43-1.878 1.55-3.653 3-7.227 3-3.576 0-5.349-1.45-7.228-3-1.956-1.61-4.173-3.43-8.424-3.43-2.39 0-4.109.57-5.51 1.34C25.789 9.91 34.115 2.87 44.06 2.87zm12.878 43.58l9.85 21.24c.847 1.97-.073 4.27-2.052 5.12-1.981.84-4.281-.08-5.119-2.03l-8.708-21.99zm-7.398-1.12c2.056-.52 4-1.31 5.79-2.35l.817 1.76-5.928 2.3zm-5.48-1.2c-11.403 0-20.681-9.26-20.681-20.63 0-.6.031-1.2.082-1.78 1.586-1.17 3.243-1.94 5.87-1.94 3.576 0 5.35 1.46 7.229 3.01 1.956 1.6 4.173 3.43 8.424 3.43 4.251 0 6.467-1.83 8.423-3.43 1.878-1.55 3.653-3.01 7.227-3.01 1.487 0 2.731.26 3.892.77.139.96.214 1.94.214 2.95.001 11.37-9.276 20.63-20.68 20.63z" fill="#fff"/></svg><svg width="57.63" height="57.44" viewBox="-10 -10 57.63 57.44" id="normal_icon" y="2104"><defs><style>.aycls-1{fill:#fff;fill-rule:evenodd}</style></defs><path id="aynormal" class="aycls-1" d="M972.934 1588.99a16.97 16.97 0 1 1-17.066 16.97 17.036 17.036 0 0 1 17.066-16.97m0-1.75a18.715 18.715 0 1 0 18.823 18.72 18.771 18.771 0 0 0-18.823-18.72zm10.158 13.48h-5.271a.87.87 0 1 0 0 1.74h5.271a.87.87 0 1 0 0-1.74zm-15.058 0h-5.271a.87.87 0 1 0 0 1.74h5.271a.87.87 0 1 0 0-1.74zm12.756 11.23h-15.812a.87.87 0 1 0 0 1.74h15.812a.87.87 0 1 0 0-1.74z" transform="translate(-954.125 -1587.25)"/></svg><svg width="113.11" height="102.14" viewBox="-10 -10 113.11 102.14" id="paper" y="2162"><title>Shape 5</title><path d="M81.765 39.268l10.09-6.49-8.092-4.39 8.191-5.28-47.149-21.55-42.753 24.14 9.19 4.39-9.19 5.19 10.688 5.09-10.688 6.28 10.788 5.19-10.788 6.18 49.146 23.44.2.1 40.556-26.03-9.79-4.99 9.89-6.28zm-36.96-36.61l45.151 20.65-16.282 10.47c-1.299.9-2.797 1.4-4.395 1.7-.3.1-.6.1-.9.1-.899 0-1.897-.3-2.697-.8l-19.079-12.17-18.38 12.27c-.499.3-.999.5-1.498.6h-.899c-1.199-.2-2.298-.5-3.397-1l-18.28-8.88zm-30.966 38.2l37.36 17.86.2.1 29.467-18.95 9.09 4.39-38.658 24.84L4.05 46.548zm-1.499-10.27l9.69 4.69c1.1.5 2.397.9 3.596 1.09h1.1l41.653.2h.1c.3 0 .6 0 1-.1 1.697-.29 3.296-.99 4.694-1.89l8.691-5.59 7.192 3.79-38.758 24.94L4.15 35.178zm16.782 4.79l17.581-11.67 18.48 11.87zm60.934 20.25l-38.758 24.84L4.05 57.918l9.79-5.58 37.26 17.75.2.1 29.767-19.15z" fill="#fff"/><path d="M81.765 39.268l10.09-6.49-8.092-4.39 8.191-5.28-47.149-21.55-42.753 24.14 9.19 4.39-9.19 5.19 10.688 5.09-10.688 6.28 10.788 5.19-10.788 6.18 49.146 23.44.2.1 40.556-26.03-9.79-4.99 9.89-6.28zm-36.96-36.61l45.151 20.65-16.282 10.47c-1.299.9-2.797 1.4-4.395 1.7-.3.1-.6.1-.9.1-.899 0-1.897-.3-2.697-.8l-19.079-12.17-18.38 12.27c-.499.3-.999.5-1.498.6h-.899c-1.199-.2-2.298-.5-3.397-1l-18.28-8.88zm-30.966 38.2l37.36 17.86.2.1 29.467-18.95 9.09 4.39-38.658 24.84L4.05 46.548zm-1.499-10.27l9.69 4.69c1.1.5 2.397.9 3.596 1.09h1.1l41.653.2h.1c.3 0 .6 0 1-.1 1.697-.29 3.296-.99 4.694-1.89l8.691-5.59 7.192 3.79-38.758 24.94L4.15 35.178zm16.782 4.79l17.581-11.67 18.48 11.87zm60.934 20.25l-38.758 24.84L4.05 57.918l9.79-5.58 37.26 17.75.2.1 29.767-19.15z" fill-opacity="0" fill="#fff" stroke-dasharray="0" stroke="#fff" stroke-miterlimit="50"/></svg><svg width="57.63" height="47.97" viewBox="-10 -10 57.63 47.97" id="post_icon" y="2265"><defs><style>.bacls-1{fill:#fff;fill-rule:evenodd}</style></defs><path id="bapost" class="bacls-1" d="M737.819 1593.82a1.75 1.75 0 0 1 1.757 1.74v7.74a1.759 1.759 0 0 1-1.757 1.75h-7.78a1.759 1.759 0 0 1-1.757-1.75v-7.74a1.75 1.75 0 0 1 1.757-1.74h7.78m0-1.75h-7.78a3.5 3.5 0 0 0-3.514 3.49v7.74a3.5 3.5 0 0 0 3.514 3.49h7.78a3.5 3.5 0 0 0 3.514-3.49v-7.74a3.5 3.5 0 0 0-3.514-3.49zm25.474 1.75h-17.066a.875.875 0 1 1 0-1.75h17.066a.875.875 0 1 1 0 1.75zm0 6.55h-17.066a.875.875 0 1 1 0-1.75h17.066a.875.875 0 1 1 0 1.75zm0 6.55h-17.066a.875.875 0 1 1 0-1.75h17.066a.875.875 0 1 1 0 1.75zm0 6.55H727.4a.875.875 0 1 1 0-1.75h35.889a.875.875 0 1 1 .004 1.75zm0 6.55H727.4a.875.875 0 1 1 0-1.75h35.889a.875.875 0 1 1 .004 1.75z" transform="translate(-726.531 -1592.06)"/></svg><svg width="60" height="50" viewBox="-10 -10 60 50" id="posts" y="2313"><title>Posts</title><path d="M12.001.07H3.735A3.731 3.731 0 0 0 .002 3.8v8.27c0 2.06 1.671 3.73 3.733 3.73h8.266a3.732 3.732 0 0 0 3.733-3.73V3.8c0-2.06-1.672-3.73-3.733-3.73zm1.866 3.73v8.27c0 1.03-.837 1.86-1.866 1.86H3.735c-1.03 0-1.867-.83-1.867-1.86V3.8c0-1.03.837-1.87 1.867-1.87h8.266a1.87 1.87 0 0 1 1.866 1.87zM39.998 22c0-.52-.417-.93-.933-.93H.935a.927.927 0 0 0-.933.93c0 .52.417.93.933.93h38.13c.516 0 .933-.41.933-.93zm0-21c0-.52-.417-.93-.933-.93H20.933A.928.928 0 0 0 20 1c0 .52.418.93.933.93h18.132c.516 0 .933-.41.933-.93zm0 7c0-.52-.417-.93-.933-.93H20.933A.928.928 0 0 0 20 8c0 .52.418.93.933.93h18.132c.516 0 .933-.41.933-.93zm0 7c0-.52-.417-.93-.933-.93H20.933A.928.928 0 0 0 20 15c0 .52.418.93.933.93h18.132c.516 0 .933-.41.933-.93zm0 14c0-.52-.417-.93-.933-.93H.935a.927.927 0 0 0-.933.93c0 .52.417.93.933.93h38.13c.516 0 .933-.41.933-.93z" fill="#fff"/></svg><svg width="60" height="60" viewBox="-10 -10 60 60" id="robot" y="2363"><title>Robot</title><path d="M27.314 18.05H12.686a7.312 7.312 0 0 0-7.319 7.32c0 4.04 3.277 7.31 7.319 7.31h14.628a7.31 7.31 0 0 0 7.319-7.31c0-4.05-3.277-7.32-7.319-7.32zm0 12.68H12.686a5.364 5.364 0 0 1-5.368-5.36c0-2.97 2.4-5.37 5.368-5.37h14.628a5.366 5.366 0 1 1 0 10.73zm-3.849-5.96a.987.987 0 0 0-.512 1.29.98.98 0 0 0 1.281.51l3.414-1.47a.972.972 0 0 0 .513-1.28.98.98 0 0 0-1.281-.51zm-10.222-1.46a.973.973 0 1 0-.768 1.79l3.414 1.47a.98.98 0 0 0 1.281-.51.987.987 0 0 0-.512-1.29zM38.535 0a.978.978 0 0 0-.975.98v12.98c-2.253-3.9-7.105-8.11-17.56-8.11-10.455 0-15.307 4.21-17.56 8.11V.98c0-.54-.436-.98-.975-.98a.979.979 0 0 0-.976.98v29.26S.489 40 20 40s19.511-9.76 19.511-9.76V.98c0-.54-.437-.98-.976-.98zm-.975 30.24c0-.01-.004.04-.019.15-.031.22-.091.48-.186.76-.288.87-.816 1.75-1.663 2.59-2.642 2.64-7.634 4.31-15.692 4.31S6.95 36.38 4.308 33.74c-.847-.84-1.375-1.72-1.663-2.59a4.248 4.248 0 0 1-.186-.76c-.015-.11-.019-.16-.019-.15v-9.75s.008-.22.03-.45a12.922 12.922 0 0 1 2.082-5.79C7.226 10.24 12.097 7.8 20 7.8c7.903 0 12.774 2.44 15.449 6.45a12.94 12.94 0 0 1 2.081 5.79c.023.24.03.39.03.45z" fill="#fff"/></svg><svg width="60" height="60" viewBox="-10 -10 60 60" id="smile" y="2423"><title>Ellipse 3</title><defs><clipPath id="bda"><path d="M1004 1590c11.05 0 20 8.95 20 20s-8.95 20-20 20c-11.046 0-20-8.95-20-20s8.954-20 20-20z" fill="#fff"/></clipPath></defs><path d="M1004 1590c11.05 0 20 8.95 20 20s-8.95 20-20 20c-11.046 0-20-8.95-20-20s8.954-20 20-20z" fill-opacity="0" fill="#fff" stroke-dasharray="0" stroke="#fff" stroke-miterlimit="50" stroke-width="3" clip-path="url(#a&quot;)" transform="translate(-984 -1590)"/><path d="M27.43 25.59c-4.37 3.61-10.48 3.61-14.852 0l-2.447-2.01-.971 1.35 2.446 2.02c2.473 2.04 5.434 3.06 8.394 3.06 2.97 0 5.93-1.02 8.4-3.06l2.45-2.02-.97-1.35zm-18.006-10l6.926-1.95-.419-1.65-6.928 1.95zm14.236-1.95l6.93 1.95.42-1.65-6.93-1.95z" fill="#fff"/></svg><svg width="60" height="60" viewBox="-10 -10 60 60" id="smile-2" y="2483"><title>Ellipse 3 copy 6</title><defs><clipPath id="bea"><path d="M1084 1590c11.05 0 20 8.95 20 20s-8.95 20-20 20-20-8.95-20-20 8.95-20 20-20z" fill="#fff"/></clipPath></defs><path d="M1084 1590c11.05 0 20 8.95 20 20s-8.95 20-20 20-20-8.95-20-20 8.95-20 20-20z" fill-opacity="0" fill="#fff" stroke-dasharray="0" stroke="#fff" stroke-miterlimit="50" stroke-width="3" clip-path="url(#a&quot;)" transform="translate(-1064 -1590)"/><path d="M9 16v-2h7v2zm15 0v-2h7v2zM10.98 27.09L28.89 27l.05 1.67-17.85.09z" fill="#fff"/></svg><svg width="60" height="60" viewBox="-10 -10 60 60" id="smile-3" y="2543"><title>Ellipse 3 copy 6</title><defs><clipPath id="bfa"><path d="M1164 1590c11.05 0 20 8.95 20 20s-8.95 20-20 20-20-8.95-20-20 8.95-20 20-20z" fill="#fff"/></clipPath></defs><path d="M1164 1590c11.05 0 20 8.95 20 20s-8.95 20-20 20-20-8.95-20-20 8.95-20 20-20z" fill-opacity="0" fill="#fff" stroke-dasharray="0" stroke="#fff" stroke-miterlimit="50" stroke-width="3" clip-path="url(#a&quot;)" transform="translate(-1144 -1590)"/><path d="M27.42 27.98c-4.37-3.63-10.48-3.63-14.85 0L10.12 30l-.97-1.36 2.44-2.02c2.48-2.05 5.44-3.08 8.4-3.08 2.97 0 5.93 1.03 8.4 3.08l2.45 2.02-.97 1.36zM9.41 12.01l6.93 1.96-.42 1.66-6.93-1.96zm14.24 1.96l6.93-1.96.42 1.66-6.93 1.96z" fill="#fff"/></svg><svg width="60" height="60" viewBox="-10 -10 60 60" id="star" y="2603"><title>Star</title><path d="M30.251 39.36c-.581 0-1.082-.18-1.498-.53l-8.823-6.7-8.823 6.7c-.915.7-2.164.7-3.079 0-.916-.69-1.332-1.91-.916-3.04L10.441 25l-8.739-6.71C.786 17.6.37 16.38.786 15.25c.334-1.14 1.332-1.92 2.497-1.92h10.904l3.329-10.79c.333-1.13 1.332-1.92 2.497-1.92 1.166 0 2.165.79 2.497 1.92l3.33 10.79h10.903c1.165 0 2.164.78 2.498 1.92.332 1.13 0 2.35-.917 3.04L29.501 25l3.33 10.79c.332 1.13 0 2.35-.917 3.04-.581.35-1.08.53-1.663.53zM19.93 30.22c.167 0 .332.08.499.17l9.323 7.05c.333.26.832.26 1.165 0 .332-.26.499-.69.332-1.13l-3.578-11.4c-.083-.35 0-.78.333-.96l9.239-7.05c.333-.26.499-.7.333-1.13-.167-.44-.501-.7-.917-.7H25.174c-.333 0-.666-.26-.749-.61l-3.579-11.4c-.167-.43-.5-.7-.916-.7-.416 0-.749.27-.915.7l-3.58 11.4c-.083.35-.415.61-.749.61H3.2c-.416 0-.749.26-.915.7-.167.43 0 .87.332 1.13l9.323 7.05c.249.26.416.61.333.96l-3.58 11.4c-.166.44 0 .87.334 1.13.332.26.832.26 1.165 0l9.322-7.05c.083-.09.25-.17.416-.17z" fill="#fff"/></svg><svg width="63" height="63" viewBox="-10 -10 63 63" id="statistics" y="2663"><title>Statistics</title><path d="M20.156 2.69C8.869 2.69-.248 11.98.02 23.33c.253 10.69 8.972 19.41 19.661 19.66.16.01.323.01.483.01 11.132 0 20.155-9.03 20.149-20.17H22.037a1.88 1.88 0 0 1-1.881-1.88V4.475c.007 0 .007 0 0 0zm-1.881 18.26c0 2.07 1.688 3.76 3.762 3.76h16.301c-.421 4.18-2.249 8.04-5.253 11.05-3.451 3.45-8.04 5.36-12.921 5.36-.146 0-.293-.01-.439-.01-4.684-.11-9.109-2.01-12.458-5.36-3.35-3.35-5.255-7.78-5.366-12.46-.118-4.97 1.726-9.66 5.19-13.21 3.023-3.1 6.941-4.98 11.184-5.41zM22.851 0v18.27c0 1.04.842 1.88 1.881 1.88H43C43 9.02 33.979 0 22.851 0zm18.172 18.27H24.732V1.98c8.574.88 15.41 7.72 16.291 16.29z" fill="#fff"/></svg><svg width="60.16" height="59.94" viewBox="-10 -10 60.16 59.94" id="stats_icon" y="2726"><defs><style>.bicls-1{fill:#fff;fill-rule:evenodd}</style></defs><path id="bistats" class="bicls-1" d="M800.276 1589.09v15.12a3.5 3.5 0 0 0 3.514 3.49h15.223a16.782 16.782 0 0 1-4.906 10.26 16.978 16.978 0 0 1-12.067 4.97h-.41a17 17 0 0 1-11.63-4.98 16.946 16.946 0 0 1 10.281-28.86m1.757-1.83a18.707 18.707 0 0 0-.444 37.41c.15.01.3.01.451.01a18.762 18.762 0 0 0 18.818-18.72H803.79a1.758 1.758 0 0 1-1.757-1.75v-16.95zm4.274-.66a17.031 17.031 0 0 1 15.214 15.12h-15.219v-15.12m-1.757-1.84v16.96a1.751 1.751 0 0 0 1.757 1.75h17.061a18.766 18.766 0 0 0-18.818-18.71z" transform="translate(-783.219 -1584.75)"/></svg><svg width="67" height="46" viewBox="-10 -10 67 46" id="studio" y="2786"><title>Logo</title><path d="M44.75 23.27c-1.38 1.39-3.28 2.18-5.36 2.19l-.01-.01H21l-1.63.01h-6.03c-3.39 0-6.48-1.34-8.72-3.61h-.01a12.571 12.571 0 0 1-3.63-8.84h.01-.01c.01-3.44 1.39-6.57 3.63-8.84v-.01C6.85 1.89 9.94.49 13.33.49h4.75c1.58 0 2.85 1.29 2.85 2.88 0 1.6-1.27 2.74-2.85 2.74h-4.75V6.1c-1.82.01-3.49.93-4.69 2.15h-.01a6.752 6.752 0 0 0-1.95 4.76c0 1.84.76 3.54 1.97 4.76h-.01c1.2 1.23 2.86 2.04 4.7 2.04l6.02-.01 1.65.01 18.37-.01h.01c.52 0 1-.27 1.34-.62.34-.35.58-1.03.58-1.57s-.24-1.42-.59-1.77c-.33-.34-.81-.55-1.34-.55h-4.89l-7.35-.01c-1.42.01-2.85-1.43-2.85-2.88l-.01-9.02c0-1.45 1.42-2.89 2.85-2.89h7.71c1.58-.01 2.85 1.14 2.85 2.74 0 1.59-1.28 2.89-2.85 2.89l-4.97-.01v4.05h9.51c2.09 0 3.99.87 5.37 2.27s2.23 3.27 2.23 5.39c.01 2.11-.85 4.04-2.23 5.45" fill="gray"/></svg><svg width="70" height="60" viewBox="-10 -10 70 60" id="twitter--gray" y="2832"><title>Twitter</title><path d="M50 4.73c-1.84.81-3.82 1.35-5.89 1.59 2.12-1.24 3.74-3.22 4.51-5.58-1.98 1.16-4.18 2-6.52 2.45A10.313 10.313 0 0 0 34.62 0c-5.67 0-10.26 4.52-10.26 10.1 0 .79.09 1.56.26 2.3A29.274 29.274 0 0 1 3.48 1.85a9.935 9.935 0 0 0-1.39 5.07c0 3.51 1.81 6.6 4.56 8.41-1.68-.05-3.26-.51-4.64-1.26v.12c0 4.9 3.53 8.98 8.23 9.91-.86.23-1.77.35-2.71.35-.66 0-1.3-.06-1.93-.18 1.31 4.01 5.1 6.93 9.59 7.01A20.79 20.79 0 0 1 2.45 35.6c-.83 0-1.65-.04-2.45-.14C4.54 38.33 9.93 40 15.72 40c18.87 0 29.19-15.39 29.19-28.73 0-.44-.01-.87-.03-1.31 2.01-1.42 3.74-3.2 5.12-5.23z" fill="gray"/></svg><svg width="51" height="44" viewBox="-10 -10 51 44" id="twitter--white" y="2892"><title>Twitter copy</title><path d="M31 2.84c-1.11.48-2.3.81-3.54.95A6.051 6.051 0 0 0 30.17.44c-1.19.7-2.51 1.2-3.92 1.47A6.232 6.232 0 0 0 21.75 0c-3.41 0-6.17 2.71-6.17 6.06 0 .47.05.94.16 1.38-5.13-.25-9.68-2.67-12.72-6.33a5.92 5.92 0 0 0-.83 3.04c0 2.11 1.08 3.96 2.74 5.05a6.242 6.242 0 0 1-2.79-.76c-.01.03-.01.05-.01.08 0 2.93 2.13 5.38 4.95 5.94-.51.14-1.06.21-1.62.21-.4 0-.79-.04-1.16-.11.78 2.41 3.06 4.16 5.76 4.21a12.543 12.543 0 0 1-7.66 2.59c-.5 0-.99-.03-1.47-.08A17.67 17.67 0 0 0 10.38 24c11.35 0 17.56-9.23 17.56-17.24 0-.26-.01-.52-.02-.78A12.42 12.42 0 0 0 31 2.84z" fill="#fff"/></svg><svg width="70" height="70" viewBox="-10 -10 70 70" id="vk--gray" y="2936"><title>VK</title><path d="M42.295 0H7.705C3.45 0 0 3.45 0 7.7v34.6C0 46.55 3.45 50 7.705 50h34.59C46.55 50 50 46.55 50 42.3V7.7C50 3.45 46.55 0 42.295 0zm-1.8 35l-4.57.07s-.982.19-2.274-.7c-1.709-1.17-3.321-4.22-4.577-3.82-1.274.4-1.234 3.14-1.234 3.14s.009.59-.281.9c-.316.34-.933.41-.933.41H24.58s-4.512.27-8.487-3.87c-4.334-4.51-8.162-13.46-8.162-13.46s-.221-.59.019-.87c.27-.32 1.004-.34 1.004-.34l4.889-.04s.461.08.791.32c.271.2.424.58.424.58s.79 1.99 1.836 3.8c2.043 3.53 2.994 4.3 3.688 3.93 1.01-.56.707-4.99.707-4.99s.019-1.61-.509-2.33c-.408-.56-1.178-.72-1.518-.76-.275-.04.176-.68.762-.97.88-.43 2.433-.45 4.269-.43 1.43.01 1.842.1 2.402.23 1.685.41 1.113 1.98 1.113 5.75 0 1.21-.218 2.91.654 3.47.374.24 1.29.04 3.582-3.85 1.085-1.85 1.9-4.01 1.9-4.01s.177-.39.454-.56c.283-.16.664-.11.664-.11l5.145-.03s1.546-.19 1.797.51c.262.73-.578 2.44-2.68 5.24-3.452 4.6-3.836 4.17-.97 6.83 2.737 2.54 3.305 3.78 3.398 3.93 1.133 1.88-1.257 2.03-1.257 2.03z" fill="gray"/></svg><svg width="51" height="50" viewBox="-10 -10 51 50" id="vk--white" y="3006"><title>VK copy</title><path d="M25.904 0H5.099A4.628 4.628 0 0 0 .465 4.62v20.76C.465 27.93 2.54 30 5.099 30h20.805a4.628 4.628 0 0 0 4.634-4.62V4.62c0-2.55-2.075-4.62-4.634-4.62zm-1.083 21l-2.748.04s-.591.12-1.368-.42c-1.028-.7-1.998-2.53-2.753-2.29-.766.24-.742 1.89-.742 1.89s.005.35-.169.54c-.19.2-.562.24-.562.24h-1.23s-2.714.16-5.105-2.32c-2.606-2.71-4.909-8.08-4.909-8.08s-.132-.35.012-.52c.162-.19.603-.21.603-.21l2.941-.02s.277.05.476.2c.163.12.255.34.255.34s.475 1.2 1.104 2.28c1.229 2.12 1.801 2.58 2.218 2.36.608-.33.426-3 .426-3s.011-.96-.306-1.39c-.246-.34-.709-.43-.914-.46-.165-.02.106-.41.459-.58.529-.26 1.463-.27 2.567-.26.861.01 1.108.06 1.445.14 1.014.25.67 1.19.67 3.45 0 .73-.131 1.75.393 2.08.225.15.776.03 2.154-2.31.653-1.11 1.143-2.41 1.143-2.41s.107-.23.273-.33c.17-.1.4-.07.4-.07l3.094-.02s.93-.11 1.08.31c.159.44-.347 1.47-1.611 3.15-2.076 2.76-2.307 2.5-.584 4.1 1.647 1.52 1.988 2.26 2.044 2.35.682 1.13-.756 1.22-.756 1.22z" fill="#fff"/></svg></svg>